<?xml version="1.0" encoding="UTF-8"?><svg xmlns="http://www.w3.org/2000/svg" xmlns:xlink="http://www.w3.org/1999/xlink" contentScriptType="text/ecmascript" width="1440" zoomAndPan="magnify" contentStyleType="text/css" viewBox="0 0 1440 809.999993" height="809.999993" preserveAspectRatio="xMidYMid meet" version="1.0"><defs><clipPath id="clip-0"><path d="M 535.1875 220.1875 L 904.9375 220.1875 L 904.9375 589.9375 L 535.1875 589.9375 Z M 535.1875 220.1875 " clip-rule="nonzero"/></clipPath></defs><rect x="-144" width="1728" fill="rgb(100%, 100%, 100%)" y="-80.999999" height="971.999992" fill-opacity="1"/><rect x="-144" width="1728" fill="rgb(100%, 100%, 100%)" y="-80.999999" height="971.999992" fill-opacity="1"/><rect x="-144" width="1728" fill="rgb(100%, 100%, 100%)" y="-80.999999" height="971.999992" fill-opacity="1"/><g clip-path="url(#clip-0)"><path fill="rgb(29.798889%, 0.779724%, 24.308777%)" d="M 720.0625 220.605469 C 618.058594 220.605469 535.1875 303.476562 535.1875 405.480469 C 535.1875 498.078125 603.484375 574.710938 692.4375 588.074219 L 702.089844 589.535156 L 702.089844 443.855469 L 658.414062 443.855469 L 658.414062 414.277344 L 702.089844 414.277344 L 702.089844 375.003906 C 702.089844 350.816406 707.894531 334.886719 717.5 324.894531 C 727.109375 314.898438 741.304688 309.859375 761.0625 309.859375 C 776.859375 309.859375 783.003906 310.816406 788.847656 311.535156 L 788.847656 335.742188 L 768.28125 335.742188 C 756.613281 335.742188 747.039062 342.253906 742.070312 350.925781 C 737.101562 359.597656 735.554688 369.949219 735.554688 380.5 L 735.554688 414.261719 L 787.007812 414.261719 L 782.429688 443.839844 L 735.554688 443.839844 L 735.554688 589.765625 L 745.089844 588.46875 C 835.308594 576.234375 904.9375 498.984375 904.9375 405.480469 C 904.9375 303.476562 822.066406 220.605469 720.0625 220.605469 Z M 720.0625 237.414062 C 812.980469 237.414062 888.128906 312.558594 888.128906 405.480469 C 888.128906 487.246094 829.605469 554.488281 752.363281 569.625 L 752.363281 460.644531 L 796.839844 460.644531 L 806.605469 397.457031 L 752.363281 397.457031 L 752.363281 380.5 C 752.363281 371.78125 753.957031 363.972656 756.644531 359.277344 C 759.335938 354.585938 761.925781 352.550781 768.28125 352.550781 L 805.65625 352.550781 L 805.65625 296.320312 L 798.367188 295.335938 C 793.328125 294.652344 781.820312 293.054688 761.0625 293.054688 C 738.34375 293.054688 718.847656 299.242188 705.386719 313.242188 C 691.929688 327.242188 685.28125 348.085938 685.28125 375.003906 L 685.28125 397.472656 L 641.609375 397.472656 L 641.609375 460.660156 L 685.28125 460.660156 L 685.28125 569.101562 C 609.277344 553 551.992188 486.359375 551.992188 405.480469 C 551.992188 312.558594 627.140625 237.414062 720.0625 237.414062 Z M 720.0625 237.414062 " fill-opacity="1" fill-rule="nonzero"/></g></svg>