<?xml version="1.0" encoding="UTF-8"?><svg xmlns="http://www.w3.org/2000/svg" xmlns:xlink="http://www.w3.org/1999/xlink" contentScriptType="text/ecmascript" width="1440" zoomAndPan="magnify" contentStyleType="text/css" viewBox="0 0 1440 809.999993" height="809.999993" preserveAspectRatio="xMidYMid meet" version="1.0"><defs><clipPath id="clip-0"><path d="M 535.1875 220.1875 L 904.9375 220.1875 L 904.9375 589.9375 L 535.1875 589.9375 Z M 535.1875 220.1875 " clip-rule="nonzero"/></clipPath></defs><rect x="-144" width="1728" fill="rgb(100%, 100%, 100%)" y="-80.999999" height="971.999992" fill-opacity="1"/><rect x="-144" width="1728" fill="rgb(100%, 100%, 100%)" y="-80.999999" height="971.999992" fill-opacity="1"/><g clip-path="url(#clip-0)"><path fill="rgb(29.798889%, 0.779724%, 24.308777%)" d="M 644.429688 220.1875 C 584.199219 220.1875 535.1875 269.199219 535.1875 329.429688 L 535.1875 480.691406 C 535.1875 540.921875 584.199219 589.9375 644.429688 589.9375 L 795.691406 589.9375 C 855.921875 589.9375 904.9375 540.921875 904.9375 480.691406 L 904.9375 329.429688 C 904.9375 269.199219 855.921875 220.1875 795.691406 220.1875 Z M 644.429688 236.992188 L 795.691406 236.992188 C 846.839844 236.992188 888.128906 278.285156 888.128906 329.429688 L 888.128906 480.691406 C 888.128906 531.839844 846.839844 573.128906 795.691406 573.128906 L 644.429688 573.128906 C 593.285156 573.128906 551.992188 531.839844 551.992188 480.691406 L 551.992188 329.429688 C 551.992188 278.285156 593.285156 236.992188 644.429688 236.992188 Z M 820.902344 287.414062 C 820.351562 287.414062 819.800781 287.441406 819.253906 287.496094 C 818.707031 287.546875 818.164062 287.628906 817.625 287.738281 C 817.082031 287.84375 816.550781 287.976562 816.023438 288.136719 C 815.496094 288.296875 814.980469 288.480469 814.46875 288.691406 C 813.960938 288.902344 813.464844 289.136719 812.980469 289.398438 C 812.492188 289.65625 812.023438 289.941406 811.566406 290.246094 C 811.105469 290.550781 810.664062 290.878906 810.238281 291.226562 C 809.816406 291.578125 809.40625 291.945312 809.019531 292.335938 C 808.628906 292.726562 808.257812 293.132812 807.910156 293.558594 C 807.5625 293.984375 807.234375 294.425781 806.925781 294.882812 C 806.621094 295.339844 806.339844 295.8125 806.078125 296.296875 C 805.820312 296.78125 805.585938 297.28125 805.375 297.789062 C 805.164062 298.296875 804.980469 298.816406 804.820312 299.339844 C 804.660156 299.867188 804.527344 300.402344 804.417969 300.941406 C 804.3125 301.480469 804.230469 302.023438 804.175781 302.574219 C 804.121094 303.121094 804.09375 303.667969 804.09375 304.21875 C 804.09375 304.769531 804.121094 305.320312 804.175781 305.867188 C 804.230469 306.414062 804.3125 306.960938 804.417969 307.5 C 804.527344 308.039062 804.660156 308.574219 804.820312 309.097656 C 804.980469 309.625 805.164062 310.144531 805.375 310.652344 C 805.585938 311.160156 805.820312 311.65625 806.078125 312.144531 C 806.339844 312.628906 806.621094 313.101562 806.925781 313.558594 C 807.234375 314.015625 807.5625 314.457031 807.910156 314.882812 C 808.257812 315.308594 808.628906 315.714844 809.019531 316.105469 C 809.40625 316.492188 809.816406 316.863281 810.238281 317.210938 C 810.664062 317.5625 811.105469 317.890625 811.566406 318.195312 C 812.023438 318.5 812.492188 318.78125 812.980469 319.042969 C 813.464844 319.300781 813.960938 319.539062 814.46875 319.746094 C 814.980469 319.957031 815.496094 320.144531 816.023438 320.304688 C 816.550781 320.464844 817.082031 320.597656 817.625 320.703125 C 818.164062 320.8125 818.707031 320.890625 819.253906 320.945312 C 819.800781 321 820.351562 321.027344 820.902344 321.027344 C 821.453125 321.027344 822 321 822.550781 320.945312 C 823.097656 320.890625 823.640625 320.8125 824.179688 320.703125 C 824.722656 320.597656 825.253906 320.464844 825.78125 320.304688 C 826.308594 320.144531 826.824219 319.957031 827.332031 319.746094 C 827.84375 319.539062 828.339844 319.300781 828.824219 319.042969 C 829.308594 318.78125 829.78125 318.5 830.238281 318.195312 C 830.695312 317.890625 831.140625 317.5625 831.5625 317.210938 C 831.988281 316.863281 832.398438 316.492188 832.785156 316.105469 C 833.175781 315.714844 833.542969 315.308594 833.894531 314.882812 C 834.242188 314.457031 834.570312 314.015625 834.875 313.558594 C 835.183594 313.101562 835.464844 312.628906 835.722656 312.144531 C 835.984375 311.65625 836.21875 311.160156 836.429688 310.652344 C 836.640625 310.144531 836.824219 309.625 836.984375 309.097656 C 837.144531 308.574219 837.277344 308.039062 837.386719 307.5 C 837.492188 306.960938 837.574219 306.414062 837.628906 305.867188 C 837.683594 305.320312 837.707031 304.769531 837.707031 304.21875 C 837.707031 303.667969 837.683594 303.121094 837.628906 302.574219 C 837.574219 302.023438 837.492188 301.480469 837.386719 300.941406 C 837.277344 300.402344 837.144531 299.867188 836.984375 299.339844 C 836.824219 298.816406 836.640625 298.296875 836.429688 297.789062 C 836.21875 297.28125 835.984375 296.78125 835.722656 296.296875 C 835.464844 295.8125 835.183594 295.339844 834.875 294.882812 C 834.570312 294.425781 834.242188 293.984375 833.894531 293.558594 C 833.542969 293.132812 833.175781 292.726562 832.785156 292.335938 C 832.398438 291.945312 831.988281 291.578125 831.5625 291.226562 C 831.140625 290.878906 830.695312 290.550781 830.238281 290.246094 C 829.78125 289.941406 829.308594 289.65625 828.824219 289.398438 C 828.339844 289.136719 827.84375 288.902344 827.332031 288.691406 C 826.824219 288.480469 826.308594 288.296875 825.78125 288.136719 C 825.253906 287.976562 824.722656 287.84375 824.179688 287.738281 C 823.640625 287.628906 823.097656 287.546875 822.550781 287.496094 C 822 287.441406 821.453125 287.414062 820.902344 287.414062 Z M 720.0625 312.625 C 669.109375 312.625 627.625 354.109375 627.625 405.0625 C 627.625 456.011719 669.109375 497.5 720.0625 497.5 C 771.011719 497.5 812.5 456.011719 812.5 405.0625 C 812.5 354.109375 771.011719 312.625 720.0625 312.625 Z M 720.0625 329.429688 C 761.929688 329.429688 795.691406 363.191406 795.691406 405.0625 C 795.691406 446.929688 761.929688 480.691406 720.0625 480.691406 C 678.191406 480.691406 644.429688 446.929688 644.429688 405.0625 C 644.429688 363.191406 678.191406 329.429688 720.0625 329.429688 Z M 720.0625 329.429688 " fill-opacity="1" fill-rule="nonzero"/></g></svg>