<?xml version="1.0" encoding="UTF-8"?><svg xmlns="http://www.w3.org/2000/svg" xmlns:xlink="http://www.w3.org/1999/xlink" contentScriptType="text/ecmascript" width="1440" zoomAndPan="magnify" contentStyleType="text/css" viewBox="0 0 1440 809.999993" height="809.999993" preserveAspectRatio="xMidYMid meet" version="1.0"><defs><clipPath id="clip-0"><path d="M 536 252.761719 L 904 252.761719 L 904 557.261719 L 536 557.261719 Z M 536 252.761719 " clip-rule="nonzero"/></clipPath></defs><rect x="-144" width="1728" fill="rgb(100%, 100%, 100%)" y="-80.999999" height="971.999992" fill-opacity="1"/><rect x="-144" width="1728" fill="rgb(100%, 100%, 100%)" y="-80.999999" height="971.999992" fill-opacity="1"/><g clip-path="url(#clip-0)"><path fill="rgb(29.798889%, 0.779724%, 24.308777%)" d="M 854.609375 330.175781 C 852.9375 331.714844 852.054688 333.933594 852.207031 336.203125 C 852.234375 336.609375 854.746094 377.238281 836.632812 422.511719 C 812.4375 483.003906 764.730469 522.070312 695 538.589844 C 694.25 538.746094 629.742188 552.105469 573.113281 525.179688 C 597.324219 524.164062 630.851562 517.347656 654.441406 490.867188 C 656.410156 488.664062 656.878906 485.25 655.667969 482.550781 C 654.453125 479.859375 651.761719 477.878906 648.808594 477.878906 C 648.796875 477.878906 648.78125 477.878906 648.761719 477.878906 C 646.777344 477.878906 612.625 477.621094 596.261719 444.648438 C 602.878906 444.929688 610.789062 444.542969 617.167969 441.605469 C 620.105469 440.253906 621.839844 437.226562 621.476562 434.019531 C 621.113281 430.804688 618.734375 428.21875 615.570312 427.554688 C 613.734375 427.164062 574.183594 418.339844 568.089844 375.382812 C 574.164062 377.914062 581.738281 379.875 589.273438 378.746094 C 592.164062 378.316406 594.535156 376.234375 595.355469 373.425781 C 596.171875 370.621094 595.28125 367.59375 593.070312 365.667969 C 591.359375 364.183594 554.070312 331.027344 571.148438 288.183594 C 591.359375 309.234375 649.003906 361.648438 718.902344 357.640625 C 721.132812 357.515625 723.191406 356.394531 724.519531 354.589844 C 725.839844 352.792969 726.289062 350.496094 725.746094 348.328125 C 724.429688 343.078125 723.753906 337.664062 723.753906 332.238281 C 723.753906 296.683594 752.226562 267.753906 787.21875 267.753906 C 804.335938 267.753906 820.386719 274.582031 832.421875 286.984375 C 833.804688 288.410156 835.695312 289.226562 837.679688 289.265625 C 844.613281 289.328125 856.027344 288.582031 868.929688 283.789062 C 865.082031 288.289062 859.699219 293.5625 852.179688 299.46875 C 849.578125 301.511719 848.621094 305.019531 849.828125 308.097656 C 851.035156 311.183594 854.171875 313.136719 857.414062 312.839844 C 858.929688 312.71875 866.277344 312.070312 874.894531 310.324219 C 869.953125 315.570312 863.375 322.117188 854.609375 330.175781 Z M 900.644531 288.296875 C 897.980469 286.496094 894.464844 286.585938 891.90625 288.53125 C 889.316406 290.492188 885.105469 292.183594 880.320312 293.566406 C 893.417969 278.277344 893.6875 268.058594 893.539062 265.65625 C 893.359375 262.925781 891.710938 260.511719 889.238281 259.34375 C 886.757812 258.1875 883.847656 258.460938 881.640625 260.066406 C 865.925781 271.484375 850.277344 273.96875 840.875 274.246094 C 826.273438 260.367188 807.34375 252.757812 787.21875 252.757812 C 743.957031 252.757812 708.757812 288.414062 708.757812 332.238281 C 708.757812 335.785156 708.988281 339.328125 709.453125 342.839844 C 635.589844 341.582031 575.640625 270.898438 575.019531 270.15625 C 573.453125 268.277344 571.074219 267.257812 568.613281 267.492188 C 566.171875 267.703125 563.988281 269.09375 562.765625 271.21875 C 541.945312 307.328125 554.664062 339.195312 567.433594 358.289062 C 566.113281 357.503906 565.035156 356.78125 564.296875 356.238281 C 562.039062 354.558594 559.027344 354.28125 556.503906 355.523438 C 553.976562 356.765625 552.359375 359.3125 552.3125 362.132812 C 551.75 396.761719 567.9375 417.023438 583.664062 428.507812 C 581.964844 428.742188 580.363281 429.554688 579.167969 430.859375 C 577.367188 432.8125 576.730469 435.578125 577.507812 438.121094 C 588.414062 473.8125 614.867188 486.460938 632.332031 490.933594 C 597 517.585938 545.789062 508.886719 545.222656 508.78125 C 541.828125 508.183594 538.429688 509.972656 537.035156 513.144531 C 535.644531 516.308594 536.597656 520.023438 539.351562 522.121094 C 577.011719 550.859375 622.054688 557.222656 654.585938 557.222656 C 679.1875 557.222656 696.632812 553.582031 698.3125 553.21875 C 862.421875 514.335938 867.621094 364.429688 867.285156 338.882812 C 898.074219 310.226562 902.914062 299.230469 903.671875 296.496094 C 904.519531 293.398438 903.304688 290.101562 900.644531 288.296875 " fill-opacity="1" fill-rule="nonzero"/></g></svg>