<?xml version="1.0" encoding="UTF-8"?><svg xmlns="http://www.w3.org/2000/svg" xmlns:xlink="http://www.w3.org/1999/xlink" contentScriptType="text/ecmascript" width="1440" zoomAndPan="magnify" contentStyleType="text/css" viewBox="0 0 1440 809.999993" height="809.999993" preserveAspectRatio="xMidYMid meet" version="1.0"><defs><clipPath id="clip-0"><path d="M 535.1875 220.1875 L 904.9375 220.1875 L 904.9375 589.9375 L 535.1875 589.9375 Z M 535.1875 220.1875 " clip-rule="nonzero"/></clipPath></defs><rect x="-144" width="1728" fill="rgb(100%, 100%, 100%)" y="-80.999999" height="971.999992" fill-opacity="1"/><rect x="-144" width="1728" fill="rgb(100%, 100%, 100%)" y="-80.999999" height="971.999992" fill-opacity="1"/><g clip-path="url(#clip-0)"><path fill="rgb(29.798889%, 0.779724%, 24.308777%)" d="M 720.0625 220.1875 C 618.054688 220.1875 535.1875 303.054688 535.1875 405.0625 C 535.1875 507.070312 618.054688 589.9375 720.0625 589.9375 C 822.070312 589.9375 904.9375 507.070312 904.9375 405.0625 C 904.9375 303.054688 822.070312 220.1875 720.0625 220.1875 Z M 720.0625 236.261719 C 813.382812 236.261719 888.859375 311.742188 888.859375 405.0625 C 888.859375 498.382812 813.382812 573.859375 720.0625 573.859375 C 626.742188 573.859375 551.261719 498.382812 551.261719 405.0625 C 551.261719 311.742188 626.742188 236.261719 720.0625 236.261719 Z M 647.71875 300.566406 C 634.496094 300.566406 623.605469 311.457031 623.605469 324.679688 C 623.605469 337.902344 634.496094 348.792969 647.71875 348.792969 C 660.941406 348.792969 671.832031 337.902344 671.832031 324.679688 C 671.832031 311.457031 660.941406 300.566406 647.71875 300.566406 Z M 647.71875 316.644531 C 652.253906 316.644531 655.757812 320.144531 655.757812 324.679688 C 655.757812 329.214844 652.253906 332.71875 647.71875 332.71875 C 643.183594 332.71875 639.679688 329.214844 639.679688 324.679688 C 639.679688 320.144531 643.183594 316.644531 647.71875 316.644531 Z M 631.644531 356.832031 C 631.113281 356.832031 630.59375 356.882812 630.074219 356.988281 C 629.558594 357.089844 629.054688 357.242188 628.566406 357.445312 C 628.078125 357.648438 627.617188 357.894531 627.175781 358.1875 C 626.738281 358.480469 626.332031 358.816406 625.957031 359.1875 C 625.585938 359.5625 625.253906 359.96875 624.960938 360.40625 C 624.667969 360.84375 624.417969 361.308594 624.214844 361.796875 C 624.015625 362.28125 623.863281 362.785156 623.757812 363.304688 C 623.65625 363.820312 623.605469 364.34375 623.605469 364.871094 L 623.605469 485.441406 C 623.605469 485.96875 623.65625 486.492188 623.757812 487.011719 C 623.863281 487.527344 624.015625 488.03125 624.21875 488.519531 C 624.417969 489.003906 624.667969 489.46875 624.960938 489.90625 C 625.253906 490.347656 625.585938 490.753906 625.960938 491.125 C 626.332031 491.5 626.738281 491.832031 627.175781 492.125 C 627.617188 492.417969 628.078125 492.664062 628.566406 492.867188 C 629.054688 493.070312 629.558594 493.222656 630.074219 493.324219 C 630.59375 493.429688 631.113281 493.480469 631.644531 493.480469 L 663.796875 493.480469 C 664.324219 493.480469 664.84375 493.429688 665.363281 493.324219 C 665.878906 493.222656 666.382812 493.070312 666.871094 492.867188 C 667.359375 492.664062 667.820312 492.417969 668.261719 492.125 C 668.699219 491.832031 669.105469 491.496094 669.480469 491.125 C 669.851562 490.75 670.183594 490.34375 670.476562 489.90625 C 670.773438 489.46875 671.019531 489.003906 671.222656 488.515625 C 671.421875 488.03125 671.574219 487.527344 671.679688 487.007812 C 671.78125 486.492188 671.832031 485.96875 671.832031 485.441406 L 671.832031 364.871094 C 671.832031 364.34375 671.78125 363.820312 671.679688 363.300781 C 671.574219 362.785156 671.421875 362.28125 671.21875 361.792969 C 671.019531 361.308594 670.769531 360.84375 670.476562 360.40625 C 670.183594 359.964844 669.851562 359.558594 669.476562 359.1875 C 669.105469 358.8125 668.699219 358.480469 668.261719 358.1875 C 667.820312 357.894531 667.359375 357.648438 666.871094 357.445312 C 666.382812 357.242188 665.878906 357.089844 665.363281 356.988281 C 664.84375 356.882812 664.324219 356.832031 663.796875 356.832031 Z M 695.945312 356.832031 C 695.417969 356.832031 694.898438 356.882812 694.378906 356.988281 C 693.859375 357.089844 693.359375 357.242188 692.871094 357.445312 C 692.382812 357.648438 691.921875 357.894531 691.480469 358.1875 C 691.042969 358.480469 690.636719 358.816406 690.261719 359.1875 C 689.890625 359.5625 689.558594 359.96875 689.261719 360.40625 C 688.96875 360.84375 688.722656 361.308594 688.519531 361.796875 C 688.320312 362.28125 688.167969 362.785156 688.0625 363.304688 C 687.960938 363.820312 687.910156 364.34375 687.910156 364.871094 L 687.910156 485.441406 C 687.910156 485.96875 687.960938 486.492188 688.0625 487.011719 C 688.167969 487.527344 688.320312 488.03125 688.519531 488.519531 C 688.722656 489.003906 688.972656 489.46875 689.265625 489.90625 C 689.558594 490.347656 689.890625 490.753906 690.265625 491.125 C 690.636719 491.5 691.042969 491.832031 691.480469 492.125 C 691.921875 492.417969 692.382812 492.664062 692.871094 492.867188 C 693.359375 493.070312 693.863281 493.222656 694.378906 493.324219 C 694.898438 493.429688 695.417969 493.480469 695.945312 493.480469 L 728.097656 493.480469 C 728.628906 493.480469 729.148438 493.429688 729.667969 493.324219 C 730.183594 493.222656 730.6875 493.070312 731.175781 492.867188 C 731.664062 492.664062 732.125 492.417969 732.566406 492.125 C 733.003906 491.832031 733.410156 491.496094 733.78125 491.125 C 734.15625 490.75 734.488281 490.34375 734.78125 489.90625 C 735.074219 489.46875 735.324219 489.003906 735.527344 488.515625 C 735.726562 488.03125 735.878906 487.527344 735.984375 487.007812 C 736.085938 486.492188 736.136719 485.96875 736.136719 485.441406 L 736.136719 425.15625 C 736.136719 414.066406 745.144531 405.0625 756.234375 405.0625 C 767.320312 405.0625 776.328125 414.066406 776.328125 425.15625 L 776.328125 485.441406 C 776.328125 485.96875 776.378906 486.492188 776.480469 487.011719 C 776.585938 487.527344 776.738281 488.03125 776.941406 488.519531 C 777.140625 489.003906 777.390625 489.46875 777.683594 489.90625 C 777.976562 490.347656 778.308594 490.753906 778.683594 491.125 C 779.054688 491.5 779.460938 491.832031 779.898438 492.125 C 780.339844 492.417969 780.800781 492.664062 781.289062 492.867188 C 781.777344 493.070312 782.28125 493.222656 782.796875 493.324219 C 783.316406 493.429688 783.835938 493.480469 784.367188 493.480469 L 816.519531 493.480469 C 817.046875 493.480469 817.566406 493.429688 818.085938 493.324219 C 818.605469 493.222656 819.105469 493.070312 819.59375 492.867188 C 820.082031 492.664062 820.542969 492.417969 820.984375 492.125 C 821.421875 491.832031 821.828125 491.496094 822.203125 491.125 C 822.574219 490.75 822.90625 490.34375 823.203125 489.90625 C 823.496094 489.46875 823.742188 489.003906 823.945312 488.515625 C 824.144531 488.03125 824.296875 487.527344 824.402344 487.007812 C 824.503906 486.492188 824.554688 485.96875 824.554688 485.441406 L 824.554688 417.117188 C 824.554688 383.917969 797.472656 356.832031 764.269531 356.832031 C 753.929688 356.832031 744.65625 360.179688 736.136719 364.792969 C 736.132812 364.269531 736.074219 363.75 735.96875 363.234375 C 735.863281 362.722656 735.707031 362.222656 735.503906 361.742188 C 735.296875 361.257812 735.050781 360.796875 734.753906 360.363281 C 734.460938 359.929688 734.128906 359.527344 733.753906 359.160156 C 733.382812 358.789062 732.976562 358.460938 732.539062 358.171875 C 732.101562 357.882812 731.640625 357.636719 731.15625 357.4375 C 730.671875 357.238281 730.171875 357.085938 729.65625 356.984375 C 729.144531 356.882812 728.625 356.832031 728.097656 356.832031 Z M 639.679688 372.910156 L 655.757812 372.910156 L 655.757812 477.402344 L 639.679688 477.402344 Z M 703.984375 372.910156 L 720.0625 372.910156 L 720.0625 379.472656 C 720.0625 380.257812 720.175781 381.03125 720.402344 381.785156 C 720.628906 382.539062 720.960938 383.246094 721.394531 383.90625 C 721.828125 384.5625 722.351562 385.144531 722.957031 385.648438 C 723.5625 386.152344 724.226562 386.558594 724.953125 386.867188 C 725.675781 387.175781 726.433594 387.375 727.214844 387.460938 C 728 387.546875 728.777344 387.519531 729.554688 387.375 C 730.328125 387.234375 731.066406 386.984375 731.769531 386.625 C 732.46875 386.265625 733.105469 385.8125 733.671875 385.265625 C 741.636719 377.613281 752.347656 372.910156 764.269531 372.910156 C 788.785156 372.910156 808.480469 392.605469 808.480469 417.117188 L 808.480469 477.402344 L 792.402344 477.402344 L 792.402344 425.15625 C 792.402344 405.296875 776.089844 388.984375 756.234375 388.984375 C 736.375 388.984375 720.0625 405.296875 720.0625 425.15625 L 720.0625 477.402344 L 703.984375 477.402344 Z M 703.984375 372.910156 " fill-opacity="1" fill-rule="nonzero"/></g></svg>