<svg id="Calque_1" data-name="Calque 1" xmlns="http://www.w3.org/2000/svg" xmlns:xlink="http://www.w3.org/1999/xlink" viewBox="0 0 1280 1024"><defs><style>.cls-1,.cls-2{fill:none;stroke-miterlimit:10;stroke-width:94.65px;}.cls-1{stroke:url(#Dégradé_sans_nom_11);}.cls-2{stroke:url(#Dégradé_sans_nom_11-2);}.cls-3{fill:url(#Dégradé_sans_nom_19);}.cls-4{fill:#fff;}.cls-5{fill:url(#Dégradé_sans_nom_19-2);}.cls-6{fill:url(#Dégradé_sans_nom_19-3);}</style><linearGradient id="Dégradé_sans_nom_11" x1="270.79" y1="629.26" x2="969.9" y2="629.26" gradientUnits="userSpaceOnUse"><stop offset="0.18" stop-color="#48153f"/><stop offset="1" stop-color="#65143e"/></linearGradient><linearGradient id="Dégradé_sans_nom_11-2" x1="457.66" y1="629.26" x2="783.03" y2="629.26" xlink:href="#Dégradé_sans_nom_11"/><linearGradient id="Dégradé_sans_nom_19" x1="596.1" y1="382.92" x2="1214.39" y2="382.92" gradientUnits="userSpaceOnUse"><stop offset="0.65" stop-color="#5dcad1"/><stop offset="0.92" stop-color="#5db4d1"/></linearGradient><linearGradient id="Dégradé_sans_nom_19-2" x1="243.11" y1="830.15" x2="464.8" y2="830.15" xlink:href="#Dégradé_sans_nom_19"/><linearGradient id="Dégradé_sans_nom_19-3" x1="138.79" y1="341.62" x2="488.32" y2="341.62" xlink:href="#Dégradé_sans_nom_19"/></defs><circle class="cls-1" cx="620.34" cy="629.26" r="302.23"/><circle class="cls-2" cx="620.34" cy="629.26" r="115.36"/><path class="cls-3" d="M630.19,658.54a43.39,43.39,0,0,1-6.91-.67l-.28,0c-10.16-1.58-17.48-2.72-22.69-9.32-5.45-6.91-4.48-14.57-3.24-24.26l.1-.83c1.32-10.37,5.78-18.48,14-25.5C687.86,532.67,765.73,466.25,841,402q57.81-49.31,115.63-98.6c-.9-10.56-1.67-21.22-2.42-31.54-.55-7.66-1.12-15.58-1.74-23.34-.77-9.64,2.33-17.25,9.46-23.26,28.56-24.07,57.45-48.74,85.38-72.61L1072.69,131c1.32-1.13,2.65-2.25,4.23-3.58l23.82-20.14,3.29,42.35c.84,10.71,1.64,21.08,2.45,31.45.29,3.73.61,7.46.93,11.19.65,7.62,1.32,15.45,1.76,23.32,18.8,4.35,37.31,8.82,56.83,13.54l21.31,5.14,27.08,6.5L1193.27,259l-7.88,6.78c-5.51,4.75-10.8,9.3-16.1,13.84l-25,21.29c-22.67,19.34-46.11,39.35-69.08,59.1a23.45,23.45,0,0,1-15.76,6.16,28.14,28.14,0,0,1-7-.95c-9.55-2.43-19.36-4.76-28.85-7-8.33-2-16.92-4-25.41-6.14-36.29,31.06-73.21,62.56-108.93,93l-48.5,41.37-19,16.18c-57.46,49-116.87,99.76-175.16,149.79A24.65,24.65,0,0,1,630.19,658.54Z"/><path class="cls-4" d="M1088.69,136.16c1.25,16,2.41,31,3.59,46.06,1,12.88,2.33,25.75,2.89,38.65.21,4.94,1.87,6.59,6.57,7.66,27.08,6.23,54.07,12.85,82.24,19.62-8.45,7.27-16.18,14-24,20.59Q1113,308.92,1066,349.17a9.49,9.49,0,0,1-6.47,2.71,14.24,14.24,0,0,1-3.52-.51c-18.49-4.71-37.14-8.83-55.65-13.5a13.5,13.5,0,0,0-3.3-.45c-2.68,0-4.88,1-7.29,3.1q-79,67.64-158.22,135.08-97.14,82.9-194.16,166a10.36,10.36,0,0,1-7.16,2.7,33,33,0,0,1-5-.55c-16.22-2.53-15.93-2.47-13.89-18.53.88-7,3.72-11.85,9.13-16.45q173.71-147.84,347.19-296a8.69,8.69,0,0,0,3.42-8.38c-1.66-19-2.84-38-4.34-57-.37-4.62.47-7.89,4.44-11.23,37.08-31.26,73.9-62.83,110.79-94.31,2-1.68,4-3.34,6.75-5.71m24.1-57.69-42.5,35.93-2.6,2.19c-1.58,1.33-2.92,2.46-4.25,3.6q-12.63,10.77-25.26,21.57c-28,23.87-56.85,48.56-85.4,72.63-10.75,9.06-15.63,20.93-14.48,35.28.61,7.7,1.18,15.59,1.73,23.22.58,8,1.17,16.2,1.83,24.42Q887,344.1,832.11,390.9C756.7,455.22,678.73,521.73,602,587.05c-11,9.34-17.17,20.65-18.94,34.57l-.1.82c-1.39,10.91-3,23.28,6.19,34.88,8.68,11,20.36,12.82,31.66,14.58l.3,0a55.86,55.86,0,0,0,9.11.84,39,39,0,0,0,25.72-9.57c58.37-50.09,117.86-100.87,175.4-150l18.7-16,48.64-41.49c33.85-28.87,68.79-58.68,103.24-88.16,6.2,1.52,12.38,3,18.43,4.42,9.42,2.23,19.18,4.54,28.61,6.95a42.47,42.47,0,0,0,10.56,1.39,37.58,37.58,0,0,0,25-9.61c23-19.73,46.37-39.72,69-59l25-21.31c5.32-4.55,10.57-9.06,16.12-13.84l7.9-6.81,42.24-36.31-54.16-13q-10.77-2.58-21.33-5.14c-16-3.86-31.28-7.56-46.63-11.16-.33-4.41-.7-8.76-1.07-13-.31-3.65-.63-7.43-.92-11.09-.81-10.4-1.62-20.79-2.46-31.52L1117.1,134l-4.31-55.48Z"/><path class="cls-5" d="M282.51,904.54c-.12-1.35-.26-2.7-.4-4-.27-2.75-.56-5.59-.76-8.44-6.82-1.47-13.54-3-20.62-4.58L253,885.71l-9.84-2.21,10.31-9.13,5.82-5.15,9-7.93q12.31-10.83,24.61-21.69a8.44,8.44,0,0,1,5.8-2.32,10.25,10.25,0,0,1,2.43.31c3.46.83,7,1.62,10.48,2.38,3,.67,6.15,1.36,9.23,2.09Q340.17,825,359.56,808l24-21.14c20.63-18.14,42-36.91,62.9-55.42a8.94,8.94,0,0,1,6.07-2.31,17.2,17.2,0,0,1,2.35.2l.1,0c8.55,1.2,10.51,3.67,9.58,12l0,.3a13.8,13.8,0,0,1-4.94,9.31Q418.47,787,377.37,823.17l-41.26,36.27c.38,3.83.71,7.67,1,11.4.25,2.82.49,5.63.76,8.45a9.35,9.35,0,0,1-3.3,8.47c-10.25,8.9-20.61,18-30.63,26.85l-9,7.88-1.47,1.28L285,931.23Z"/><path class="cls-4" d="M452.56,734.24a13.63,13.63,0,0,1,1.74.17c5.88.83,5.78.81,5.12,6.64a8.68,8.68,0,0,1-3.21,6Q394.1,801.53,332.08,856.1a3.15,3.15,0,0,0-1.19,3.06c.7,6.86,1.23,13.74,1.88,20.61a4.23,4.23,0,0,1-1.55,4.1C318,895.38,304.8,907,291.61,918.61l-2.41,2.11c-.54-5.8-1-11.23-1.55-16.66-.43-4.66-1-9.31-1.26-14-.1-1.79-.71-2.38-2.42-2.74-9.84-2.11-19.65-4.36-29.88-6.66,3-2.68,5.78-5.14,8.56-7.59q16.82-14.8,33.63-29.63a3.4,3.4,0,0,1,2.38-1,5.1,5.1,0,0,1,1.22.17c6.73,1.61,13.5,3,20.23,4.59a5.37,5.37,0,0,0,1.14.14,3.9,3.9,0,0,0,2.68-1.16q28.24-24.91,56.56-49.77,34.74-30.54,69.41-61.15a3.76,3.76,0,0,1,2.66-1m0-10.32a14.16,14.16,0,0,0-9.49,3.6c-20.88,18.47-42.17,37.2-62.75,55.3l-6.64,5.84L356.28,804c-12.1,10.63-24.59,21.61-36.9,32.47l-6.7-1.5c-3.43-.76-7-1.54-10.4-2.36a15.39,15.39,0,0,0-3.62-.45,13.6,13.6,0,0,0-9.23,3.62c-8.2,7.27-16.57,14.63-24.67,21.75l-8.93,7.86c-1.89,1.66-3.78,3.34-5.74,5.08L247.24,873l-15.1,13.38,19.68,4.42,7.76,1.75c5.81,1.31,11.37,2.56,16.94,3.78.15,1.6.3,3.17.46,4.73.13,1.33.27,2.67.39,4,.35,3.72.7,7.45,1.05,11.29l.5,5.36,1.86,20.07L296,928.5l.94-.82,1.51-1.31,9-8c10-8.8,20.32-17.9,30.53-26.76A14.38,14.38,0,0,0,343,878.8c-.26-2.8-.5-5.6-.75-8.4s-.51-5.86-.79-8.83L380.78,827c27-23.68,54.81-48.17,82.23-72.23a18.9,18.9,0,0,0,6.67-12.62l0-.29c.44-4,.94-8.45-2.43-12.6-3.21-3.94-7.45-4.53-11.55-5.11h-.11a20.83,20.83,0,0,0-3.07-.26Z"/><path class="cls-6" d="M470.57,497.93a21.53,21.53,0,0,1-14.79-5.67c-43.25-37.38-87.27-75.35-129.84-112.06l-64.89-56c-5.87,1.42-11.75,2.77-17.46,4.08-4.3,1-8.61,2-12.91,3a18,18,0,0,1-4.14.52,14.46,14.46,0,0,1-9.7-3.81c-15.94-13.92-32.26-28-48-41.55L154.5,274.14l-2.29-2-13.42-11.67,40.84-9.59,6.18-1.49c4.21-1,8.54-2.07,12.91-3,.82-10.91,1.72-21.67,2.68-33q.51-6.12,1-12.34l1.31-15.73,16.51,14.12c3.12,2.67,6.11,5.22,9.1,7.79l14.05,12.12c12.8,11,26,22.44,39.08,33.6a13.48,13.48,0,0,1,4.89,12.32c-.54,5.55-1,11.25-1.44,16.75-.38,4.83-.78,9.82-1.24,14.77,20.55,17.66,41.4,35.64,61.57,53L384,382.33c32.5,28,66.12,57,99.26,85.39,5.09,4.36,5.08,9.72,5.08,12.6v.16c0,5.83,0,10-3.26,13.52-3.4,3.65-7.77,3.76-13.3,3.91h-1.18Z"/><path class="cls-4" d="M210.48,201.7c4.8,4.11,9.21,7.86,13.6,11.64q26.56,22.88,53.16,45.74a5.47,5.47,0,0,1,2.09,5.4c-1,10.76-1.74,21.56-2.75,32.33a6,6,0,0,0,2.39,5.7q44.7,38.42,89.3,76.94Q423.1,426.7,478,473.85c2.32,2,2.27,4.15,2.26,6.62,0,9.3,0,9.13-9.18,9.38h-.49a13.63,13.63,0,0,1-9.51-3.69q-97.79-84.53-195.71-168.88a4.87,4.87,0,0,0-3.34-1.41,6.76,6.76,0,0,0-1.65.22c-10.48,2.56-21,4.87-31.54,7.35a10.19,10.19,0,0,1-2.28.31,6.35,6.35,0,0,1-4.39-1.83c-20.71-18.07-41.57-36-62.38-53.9L156,264.73l25.49-6c7.12-1.68,14.21-3.53,21.39-5,2.75-.54,3.53-1.61,3.72-4.34,1.15-15.7,2.53-31.38,3.89-47.75M197,168.92l-2.61,31.45q-.52,6.24-1,12.37c-.78,9.28-1.53,18.18-2.22,27.09q-3.66.85-7.22,1.73L177.78,243l-17.38,4.08-8.1,1.9-30.69,7.21,23.78,20.69,1.43,1.25,2.41,2.09,14.25,12.28c15.79,13.59,32.11,27.65,48.05,41.56a22.31,22.31,0,0,0,15,5.8,25.76,25.76,0,0,0,6-.74c4.26-1,8.63-2,12.85-3,4.44-1,9-2.05,13.52-3.13q31,26.76,62,53.5c42.48,36.64,86.4,74.52,129.56,111.82A29.57,29.57,0,0,0,470.57,506H472c6.23-.17,13.29-.35,19-6.48,5.41-5.81,5.42-12.51,5.43-19v-.17c0-3.58,0-12-7.9-18.75-33.09-28.37-66.67-57.31-99.15-85.29l-10.53-9.08-27.34-23.58c-19.12-16.49-38.86-33.5-58.37-50.28.31-3.6.6-7.19.88-10.7.44-5.47.89-11.13,1.43-16.62a21.61,21.61,0,0,0-7.68-19.24c-13-11.15-26.27-22.55-39.06-33.58L234.61,201.1c-3-2.58-6-5.15-9.13-7.82l-4.5-3.85-24-20.51Z"/></svg>