<svg id="Calque_1" data-name="Calque 1" xmlns="http://www.w3.org/2000/svg" viewBox="0 0 1280 1024"><defs><style>.cls-1{fill:#4c023e;}</style></defs><path class="cls-1" d="M480.21,503.12c20.29.15,35.73,10.18,49.34,23.84,16.52,16.57,28.9,36.27,41.76,55.6,4.34,6.52,9,12.85,13,19.54,3.08,5.1,4.71,4.63,7.72-.21a876.14,876.14,0,0,1,57.8-81.37C706,449.8,771.49,389.28,847.61,340.43c5.63-3.62,10.95-5.14,15.66.44s2.41,10.6-1.95,15.56A1715.73,1715.73,0,0,0,708.88,558.62a1576.74,1576.74,0,0,0-88.28,156c-3.28,6.64-7.42,10.53-14.65,12.12-16.64,3.65-33.13,8-49.76,11.72-12.28,2.73-14.32,1.39-18.77-10.34C523,690.19,506.94,653.1,484.64,619c-18.21-27.87-39.89-52.62-66.27-73-5.45-4.21-5.62-6.57-.42-11,15.8-13.62,32-26.27,53.17-30.45C474.12,503.91,477.18,503.58,480.21,503.12Z"/></svg>