<svg id="Calque_1" data-name="Calque 1" xmlns="http://www.w3.org/2000/svg" xmlns:xlink="http://www.w3.org/1999/xlink" viewBox="0 0 1280 1024"><defs><style>.cls-1{fill:#fff;}.cls-2{fill:url(#Dégradé_sans_nom_19);}.cls-3{fill:url(#Dégradé_sans_nom_19-2);}.cls-4{font-size:380.7px;font-family:CenturyGothic, Century Gothic;letter-spacing:0em;}</style><linearGradient id="Dégradé_sans_nom_19" x1="248.06" y1="557.23" x2="928.43" y2="557.23" gradientUnits="userSpaceOnUse"><stop offset="0.65" stop-color="#5dcad1"/><stop offset="0.92" stop-color="#5db4d1"/></linearGradient><linearGradient id="Dégradé_sans_nom_19-2" x1="750.11" y1="321.81" x2="1116.35" y2="321.81" xlink:href="#Dégradé_sans_nom_19"/></defs><circle class="cls-1" cx="588.24" cy="557.23" r="340.19"/><path class="cls-2" d="M588.24,293.19a263,263,0,1,1-102.75,20.72,262.25,262.25,0,0,1,102.75-20.72m0-76.14c-187.88,0-340.18,152.31-340.18,340.18s152.3,340.19,340.18,340.19S928.43,745.11,928.43,557.23,776.12,217.05,588.24,217.05Z"/><path class="cls-3" d="M770.45,488.71a26.68,26.68,0,0,1-3.88-.34l-.17,0c-6.09-.85-10.48-1.47-13.65-5.37-3.32-4.09-2.81-8.67-2.16-14.48l.06-.5a22.8,22.8,0,0,1,8.16-15.37c45.36-39.77,91.43-80.26,136-119.42l68-59.74c-.63-6.34-1.18-12.7-1.72-18.85-.41-4.65-.81-9.29-1.25-13.93a15.47,15.47,0,0,1,5.45-14c16.91-14.68,34-29.73,50.55-44.29l14.83-13,2.52-2.2,14-12.23s3.5,37.84,4.08,44.08c.21,2.23.44,4.46.66,6.69.46,4.54.93,9.22,1.26,13.93,11.27,2.43,22.37,4.93,34.07,7.58l12.82,2.89,16.25,3.65-17.14,15.18c-3.24,2.89-6.36,5.65-9.49,8.4l-14.73,13c-13.38,11.77-27.23,23.94-40.79,36a14,14,0,0,1-9.58,3.83,17.08,17.08,0,0,1-4-.51c-5.73-1.37-11.61-2.67-17.3-3.93-5-1.11-10.16-2.25-15.26-3.45C966.73,321,945,340,924,358.49l-39.77,35c-34,29.94-69.24,60.89-103.78,91.43A14.75,14.75,0,0,1,770.45,488.71Z"/><path class="cls-1" d="M1040.26,172.27c.88,9.57,1.71,18.54,2.55,27.51.72,7.69,1.62,15.38,2.07,23.09.17,2.95,1.18,3.92,4,4.52,16.25,3.48,32.44,7.21,49.35,11-5,4.43-9.55,8.49-14.14,12.53q-27.78,24.45-55.54,48.93a5.63,5.63,0,0,1-3.93,1.68,8.57,8.57,0,0,1-2-.28c-11.1-2.65-22.29-4.95-33.4-7.58a8.29,8.29,0,0,0-1.89-.24,6.41,6.41,0,0,0-4.42,1.92q-46.65,41.14-93.42,82.18-57.36,50.45-114.63,101a6.22,6.22,0,0,1-4.39,1.67,20.64,20.64,0,0,1-2.86-.28c-9.72-1.36-9.55-1.33-8.47-11a14.39,14.39,0,0,1,5.31-9.92Q867,369.08,969.43,279a5.19,5.19,0,0,0,2-5c-1.16-11.33-2-22.7-3.1-34-.26-2.76.21-4.72,2.55-6.76,21.9-19,43.64-38.23,65.42-57.38,1.16-1,2.33-2,4-3.47m13.9-34.71-25.1,21.86-1.53,1.33c-.94.81-1.73,1.5-2.51,2.19q-7.47,6.56-14.92,13.13c-16.5,14.52-33.57,29.54-50.42,44.18-6.35,5.51-9.16,12.66-8.35,21.23.43,4.6.84,9.31,1.24,13.87.42,4.78.84,9.68,1.31,14.59q-32.43,28.47-64.83,57C844.53,366,798.5,406.48,753.19,446.21a31.3,31.3,0,0,0-11,20.83l-.06.5c-.73,6.54-1.56,13.95,4,20.8,5.28,6.5,12.28,7.49,19.05,8.44l.19,0a34.4,34.4,0,0,0,5.07.43,23.32,23.32,0,0,0,15.68-6c34.43-30.45,69.54-61.32,103.48-91.17l11.12-9.78,28.68-25.21c20-17.58,40.64-35.72,61-53.66,3.72.85,7.43,1.67,11.06,2.48,5.66,1.25,11.51,2.55,17.17,3.9a25.36,25.36,0,0,0,6,.74,22.43,22.43,0,0,0,15.23-6c13.56-12,27.4-24.18,40.79-36l14.71-12.94c3.14-2.76,6.26-5.53,9.52-8.42l4.66-4.14,24.94-22.09-32.5-7.29-12.81-2.89c-9.58-2.17-18.76-4.24-28-6.26-.24-2.63-.5-5.24-.76-7.8-.22-2.21-.45-4.41-.65-6.62-.58-6.23-1.16-12.45-1.75-18.87l-.8-8.64-3.07-33.13Z"/><text class="cls-4" transform="translate(470.86 695.87)">1</text></svg>