<svg id="Calque_1" data-name="Calque 1" xmlns="http://www.w3.org/2000/svg" xmlns:xlink="http://www.w3.org/1999/xlink" viewBox="0 0 1280 1024"><defs><style>.cls-1{fill:#fbfbfa;}.cls-1,.cls-2,.cls-3,.cls-4{opacity:0.81;}.cls-2{fill:url(#Dégradé_sans_nom_27);}.cls-3{fill:url(#Dégradé_sans_nom_11);}.cls-5{fill:url(#Dégradé_sans_nom_19);}</style><linearGradient id="Dégradé_sans_nom_27" x1="-1268.16" y1="2072.79" x2="-513.98" y2="2072.79" gradientTransform="translate(-613.15 5156.81) rotate(180) scale(1.45 2.24)" gradientUnits="userSpaceOnUse"><stop offset="0.18" stop-color="#eed5b7"/><stop offset="0.42" stop-color="#fbd3b6"/></linearGradient><linearGradient id="Dégradé_sans_nom_11" x1="-1270.09" y1="1870.44" x2="-515.9" y2="1870.44" gradientTransform="translate(-613.15 4768.09) rotate(180) scale(1.45 2.24)" gradientUnits="userSpaceOnUse"><stop offset="0.18" stop-color="#48153f"/><stop offset="1" stop-color="#65143e"/></linearGradient><linearGradient id="Dégradé_sans_nom_19" x1="126.3" y1="599.75" x2="1244.25" y2="599.75" gradientTransform="translate(6.29 -11.56) rotate(0.29)" gradientUnits="userSpaceOnUse"><stop offset="0.65" stop-color="#5dcad1"/><stop offset="0.92" stop-color="#5db4d1"/></linearGradient></defs><path class="cls-1" d="M129.53,430.74c275.09,122.94,430.71,83.07,522.74,20.74,79.55-53.88,108-122.14,208-174.23,133.15-69.39,270.92-46.41,366.51-16.15V593.76H129.53Z"/><path class="cls-2" d="M134.61,537c104,58,187.33,67,239.52,66.56,28.48-.25,102.45-3.59,276.35-91.73,263.58-133.59,359.46-260.51,501.85-212.55,35.7,12,63,31.22,79.51,44.52V722.69H134.61Z"/><path class="cls-3" d="M137.41,587.42C385.09,713.51,537.14,679,631.55,620.19c93.3-58.09,126.75-137.66,240.27-196.66,135.62-70.48,269.6-51.38,362.83-23.41V767.4H137.41Z"/><g class="cls-4"><path class="cls-5" d="M129.1,675.14c87.25,38.39,195.59,72,320.63,78.82,67.92,3.7,123.57,6.2,193.28-16.12A425,425,0,0,0,745.4,688.93c103.46-67.08,166.85-144.83,216-193.67,63.56-63.21,158.42-126.44,287.16-105.47l-2,390L146.39,797.47Q137.74,736.3,129.1,675.14Z"/></g></svg>