<svg id="Calque_1" data-name="Calque 1" xmlns="http://www.w3.org/2000/svg" viewBox="0 0 1280 1024"><defs><style>.cls-1{fill:#1a3644;}.cls-2{fill:#5c3052;}.cls-3{fill:#152c37;}.cls-4{fill:#e1a582;}.cls-5{fill:#743d68;}.cls-6{fill:#d8f0f5;}.cls-7{fill:#3d1847;}.cls-8{fill:#c18d6c;}.cls-9{fill:#423126;}.cls-10{fill:#51205f;}.cls-11{fill:#4c2844;}.cls-12{fill:#789aa2;}.cls-13{fill:#97d283;}.cls-14{fill:#cb9576;}.cls-15{fill:#c1a485;}.cls-16{fill:#45243e;}.cls-17{fill:#838e90;}.cls-18{fill:#e1a583;}.cls-19{fill:#6c8b92;}.cls-20{fill:#b9dae2;}.cls-21{fill:#e0a582;}.cls-22{fill:#b08263;}.cls-23{fill:#c2906f;}.cls-24{fill:#190d0a;}.cls-25{fill:#4a3431;}.cls-26{fill:#c18f6e;}.cls-27{fill:#926b53;}.cls-28{fill:#c8e2e9;}.cls-29{fill:#c7e2e8;}.cls-30{fill:#c4dcdf;}.cls-31{fill:#190d09;}.cls-32{fill:#be9b35;}.cls-33{fill:#caa234;}.cls-34{fill:#2a502f;}.cls-35{fill:#c18d6b;}.cls-36{fill:#bc8a6a;}.cls-37{fill:#bc896c;}.cls-38{fill:#ba886c;}.cls-39{fill:#bb8a6d;}.cls-40{fill:#453328;}.cls-41{fill:#8a5b62;}.cls-42{fill:#a97d5f;}.cls-43{fill:#c1a385;}.cls-44{fill:#9d7459;}.cls-45{fill:#344f31;}.cls-46{fill:#b28566;}.cls-47{fill:#1c3744;}.cls-48{fill:#9a7b33;}.cls-49{fill:#e40001;}.cls-50{fill:#436936;}.cls-51{fill:#084922;}.cls-52{fill:#ebf7f9;}.cls-53{fill:#4f7b41;}.cls-54{fill:#486045;}.cls-55{fill:#d3d3d3;}.cls-56{fill:#a0765a;}.cls-57{fill:#d30102;}.cls-58{fill:#faf8f7;}.cls-59{fill:#b08264;}.cls-60{fill:#4b6065;}.cls-61{fill:#bfa085;}.cls-62{fill:#617d83;}.cls-63{fill:#68868d;}.cls-64{fill:#f6f6f5;}.cls-65{fill:#67858b;}.cls-66{fill:#66848a;}.cls-67{fill:#80b861;}.cls-68{fill:#4e7a3f;}.cls-69{fill:#446a37;}.cls-70{fill:#67a154;}.cls-71{fill:#c2e28f;}.cls-72{fill:#c1e28f;}.cls-73{fill:#c8e591;}.cls-74{fill:#c5e490;}.cls-75{fill:#c7e591;}.cls-76{fill:#b9946c;}.cls-77{fill:#acda89;}.cls-78{fill:#b2dd8b;}.cls-79{fill:#b8df8d;}.cls-80{fill:#b9e08d;}.cls-81{fill:#aedb8a;}.cls-82{fill:#538042;}.cls-83{fill:#b7c4c5;}.cls-84{fill:#bec4c4;}.cls-85{fill:#0a5e2b;}.cls-86{fill:#c3c8c8;}.cls-87{fill:#205837;}.cls-88{fill:#a5adae;}.cls-89{fill:#7799a1;}.cls-90{fill:#8f6a51;}.cls-91{fill:#5d3152;}.cls-92{fill:#791f2d;}.cls-93{fill:#4e0e20;}.cls-94{fill:#35653c;}.cls-95{fill:#3d7a39;}.cls-96{fill:#34663c;}.cls-97{fill:#2d5230;}.cls-98{fill:#477139;}.cls-99{fill:#fb0f0a;}.cls-100{fill:#e50001;}.cls-101{fill:#68a053;}.cls-102{fill:#5b8345;}.cls-103{fill:#dea583;}.cls-104{fill:#efebe4;}.cls-105{fill:#9f7459;}.cls-106{fill:#a0ced9;}.cls-107{fill:#779aa2;}.cls-108{fill:#8cc87a;}.cls-109{fill:#8bc778;}.cls-110{fill:#8dc97b;}.cls-111{fill:#663a52;}.cls-112{fill:#b78768;}.cls-113{fill:#8ac678;}.cls-114{fill:#598143;}.cls-115{fill:#d3150c;}.cls-116{fill:#551523;}.cls-117{fill:#935d4c;}.cls-118{fill:#5f6a3d;}.cls-119{fill:#917152;}.cls-120{fill:#525b35;}.cls-121{fill:#447037;}.cls-122{fill:#8d6a4f;}.cls-123{fill:#417638;}</style></defs><path class="cls-1" d="M804.82,866c4.55-2.4,9.17-4.65,13.93-6.65.87-.5,1.75-1,2.62-1.43,2.69-1.89,5.4-3.72,8.18-5.44.78-27.86-1.11-55.43-14.26-81.79-3.86,2-6,6.18-10.1,7.9s-8.37,4.65-13,3.86c-4.14-.7-2.07-6.2-4.77-8.47a5,5,0,0,0-1.45-.86c-3-.68-5.54-.06-7.07,2.91-2.17,12.56-2.18,12.55-15.62,14.86-16.52,2.85-33.24,3.34-49.92,4.25-12.36,2.82-23.7-2.2-35.39-4.57a29.86,29.86,0,0,1-6.86-2.91c-8.63,1.91-14.81,7-19.1,14.58-.23,4-.39,8-.7,12-2.19,28.28-6.1,56.42-7.36,84.79l2.16.15c2.52-2.67,2.72-7.48,7.4-8.52,15.83-3.51,31.48-6.66,47.87-2.87a25.9,25.9,0,0,1,11.51,5.43c14.7-3.06,29.18-6.76,44.09-9.65.83-.26,1.65-.56,2.47-.83q3-1.07,6-2,15.1-5,30.07-10.43C798.63,868.87,801.72,867.41,804.82,866Z"/><path class="cls-2" d="M751.09,387l81.18,34.49c2.61,3.4.8,6.57-.57,9.71a206.16,206.16,0,0,0-9.53,25.91,86.11,86.11,0,0,0-2.3,39.28c2.57,14.15,4.34,28.45,7.53,42.49,1.37,6,1,12,.39,18-1.88,28.42-6.48,56.49-10.94,84.57-1.1,3.51-3.3,6.27-6.85,7.15-14.33,3.55-27.27,10.63-41,15.72a6.65,6.65,0,0,1-2.56.21c-2.94-.87-3.28-3.09-3-5.67a23.64,23.64,0,0,1,1.38-4c2.08-11.65.54-23.38.87-35.07.09-3.38-1.45-5.31-5-5.7-2.85-.32-5.65-1-7.85-3.11-2-2.27-1.07-5-.89-7.46.55-7.61-1.46-14.27-7-19.61-4.48-4.3-5.17-9.3-3.57-15,2.63-9.4,4.51-18.93,9.61-27.59,4.52-7.69,2.49-11.21-6.2-13.57-15.49-4.21-16.91-3-17,12.76-.06,9.92-3.7,19.14-6.24,28.56-.94,3.49-4,4.74-7.06,5.73-10.86,3.49-17.14,10.76-19.7,22-1.17,5.06-1.28,11.13-6.9,14.26-18.79-1.54-36.93-6.53-55.29-10.33a7.24,7.24,0,0,1-3.52-2.33c-2.62-7.86-2.62-7.86-11.87-17.8,7.87-2.72,8-7.73,5.41-14.78-6.82-18.46-10.22-37.75-12.37-57.27-1.17-10.5.82-20.67,3.21-30.76,5.1-21.56,10.83-42.94,19.59-63.37,1.64-4.39,4.59-6.63,9.45-7.3,9.61-1.31,19.12-3.26,28.67-4.95,1.18,3.89-1.78,6-4,7.91-4.71,4.09-4.81,8.69-2.91,14.07,2.15,6.08,4.95,11.9,9.54,16.31,14.44,13.9,24.68,14.21,40.4,4.88,16.83-10,25.82-25.82,31.24-44.08C746.94,396.35,746.67,390.75,751.09,387Z"/><path class="cls-3" d="M711.82,888.5c-16.73-6.72-33.49-5.74-50.74-2.2-8.46,1.74-15.8,3.21-17,12.71l3.29.23c3.79.24,7.61.26,11.43.2,7.68-.82,15.43-1.12,22.42-1.83,4.13-.41,8.29-.69,12.46-1,8.05-1.17,16-2.72,23.79-4.43A13.58,13.58,0,0,0,711.82,888.5Z"/><path class="cls-4" d="M676,374.72c-21.44,4.95-35.71-6.31-48.05-21.5-14.53-17.89-25.25-37.78-29.94-60.51-2.32-11.25,1-22.24,3.38-33.11,2.2-10.22,3.82-20.27.74-30.53,6.68-4.13,13.8-2.39,20.83-1.59,9.08,7.87,10.13,18.25,8.13,29a156.12,156.12,0,0,1-8.36,28.06c-3.49,9-1.38,12.72,8,14.42,5.76,1,11-.7,16.15-3.08-4.82-.06-8.75,3.39-13.82,3-9.4-.75-13-5.44-10-14.25a124.06,124.06,0,0,1,5.85-15.28c5.7-11.71,5.7-23.12-.19-34.76-1.52-3-3.32-6.1-3.21-9.74a3.39,3.39,0,0,1,1.78-2.12c10.29-2.62,20.37-1,30.41,1.41,4.32,4.9,10.06,6.21,16.28,6.38,6.76.18,12.8,3.18,19.14,5,3.12.92,5.89,1.46,5.27-3.39a3.88,3.88,0,0,1,2.53-2.66c6.16-1.1,12.32.17,17.84,2.11,9.23,3.27,17.5,3.5,25.45-2.64,4.09,10.09,2,20.23.14,30.35-1.11,6.15-2.74,12.33,1.84,18.14-1.65-7.18,1.39-12.91,5.24-18.31,6.36-8.92,18-8.17,23.22,1.47,2.73,5.05,3.44,10.44,1.17,15.79-3.62,8.57-8.35,16.7-16.37,21.66A29.09,29.09,0,0,0,746.6,313.5c-1.87,5.11-5.22,9.56-8,14.27-13.51,14.15-26.48,28.9-42.13,40.83C690.6,373.1,684.15,377.19,676,374.72Z"/><path class="cls-4" d="M766.45,664.3c12.93-6.9,26-13.42,40.46-16.64,3-.67,6.29-1.19,7.74-4.61q15.27-2.31,30.7-3.31c6.29-.41,8.14-3.25,6.86-9.62-3.27-16.27-6.14-32.62-9.08-49-1.79-7.71,1.58-12.33,8.53-15.51a340.2,340.2,0,0,1,34.18-13.7c11.68-3.87,14.79-1.19,13.92,11.6.53,25.33,3.55,50.6,1.89,76-.42,6.31-1.1,12.61-1.34,18.92-.38,10.15-5.88,16.73-14.66,20.57-19.4,8.47-39.81,13.37-60.77,15.8-13,1.5-13,1.14-13.76,13.54-.61.07-1.48,0-1.56-.32-2.39-10.47-10.39-9.85-18.17-8.86-7.12.9-14.31,1.23-21.36,2.57-17.11,3.77-26.45,14.83-29.67,31.62-6,15.15-17.55,23-33.38,25.08-11.15-2.41-11.73-4-6.82-18.34a70.85,70.85,0,0,0,2.45-7.47c1.09-4.1,1.81-8.27,2.59-12.43.79-5.79,2.22-11.58-.16-17.34-3.9-6.82-.93-10.31,5.54-13.2,8.89-4,19.21-4.49,26.91-11.22,5.2-3.15,10.47-6.2,15.64-9.42C757.48,667.19,761.25,663.71,766.45,664.3Z"/><path class="cls-5" d="M825.58,556.68c1.65-19.1-4.21-37.33-7.63-55.65-4.75-25.4,1.62-48.07,11.52-70.59,1.27-2.88,3.16-5.53,2.8-8.91,5.47,1.73,8.77,6.19,12.49,10.07C864,451.66,877.47,475.71,892,499.05c6.79,10.93,13.34,22,20,33-18.5,6.38-35.38,16.29-53.05,24.46-9.45,4.37-17.78,10.31-26.19,16.23-4.3-.61-3.72-4.39-4.75-7.19S828.1,559.17,825.58,556.68Z"/><path class="cls-2" d="M708,757.33c2.86-1.16,5.63-2.64,8.59-3.41,11.31-2.93,17.12-11.53,22.24-20.94,3.14-5.35,8.32-8.54,13.05-12.16,7.25-5.57,14.69-10.91,16.18-20.9,12.52-3.4,25.36-3.25,38.18-3.39,3.18,0,3.66,1.83,3.75,4.42s-.75,5.19,1.15,7.41a431.13,431.13,0,0,0,3.18,46.4c.3,2.59.88,5.14-.92,7.44-7.2,7.5-16.19,11.08-26.38,12-2.35.32-5-.5-6.74,2-8.57,6.45-19,6.29-28.82,7.2a213.34,213.34,0,0,1-38.74-.12c-2-.25-3.76-1.16-5.74-1.26-7.41-.79-14.82-1.55-22.17-2.83-3.29-2-1.41-3.93.29-5.41C692.21,767.66,699.11,761.12,708,757.33Z"/><path class="cls-6" d="M557,530.4c2.07,4.12,6.09,7.12,6.91,12a135.09,135.09,0,0,1,6.94,19.15c4.76,4.22,3,10.56,5.11,15.65-2.21,4.59-.12,8.88.91,13.25-3.63,8.6-9.93,15.22-16.26,21.83-4.26.81-8.35-3.33-12.69-.43-4.94,2.35-5.61,6.88-5.94,11.58-.24,3.42.21,6.9-.77,10.26-.45,1.07-1,2.45-2.14,2.48-8.66.2-17.35.63-25.73-2.3-2.52-3.16-5.9-5.4-8.76-8.22-.49-1.74,0-3.44.18-5.17-4.14-17-4.05-34.24-3.86-51.53a82.8,82.8,0,0,1,8-34.21c5.66-12.23,14.27-20.2,28.84-19a16.63,16.63,0,0,1,2.64,0C547.62,518.65,552.18,524.65,557,530.4Z"/><path class="cls-7" d="M598.86,196.36c-1.84-28,12.77-49.24,40.6-60.29,12.24-4.86,26-4.17,37.6-11.08a3.86,3.86,0,0,1,2.53-.39c20.79,4.2,42.4.3,63,6.92,31.18,10,48.31,32.69,48.38,65.44,0,2.59,0,5.18.08,7.77-10.65,12-24.09,15.83-39.63,13.43a4.75,4.75,0,0,1-1.83-2c-2.56-10.61-3.41-21.57-7.07-32-8.31-23.6-24.8-39.22-47.48-48.37a40.85,40.85,0,0,0-25.48-1.12,91.43,91.43,0,0,0-39.43,22.42c-11.95,11.38-16.16,26.17-18.51,41.81C603.58,205.07,600.93,204.53,598.86,196.36Z"/><path class="cls-4" d="M751.09,387c-3.53,17.37-8.65,34-20.71,47.73a59.8,59.8,0,0,1-31.26,18.9c-6.47,1.61-12-1.28-17.2-4.21-12.11-6.8-18.26-17.89-21.25-31.1-.72-3.2-.27-5.42,2.52-7.44,3.23-2.35,6.53-4.8,8-8.79,3.93-6.9,5.4-14.41,5.61-22.25,20.55,11.72,50.39-.42,57.11-23.19.87-2.94.57-6.47,3.73-8.43,4.05.62,5.05,3.25,4.54,6.88C741.27,366.86,744.78,377.34,751.09,387Z"/><path class="cls-8" d="M646.91,805.27c-24.83-6.19-48.71-15.38-73.06-23.11-33.14-10.52-66.16-21.42-99.25-32.12a48.84,48.84,0,0,0-5.83-1.14c-4.8-.76-5.68-4.4-5.75-8.29-.09-5.32-2.71-8.46-7.54-10.27-3.77-1.41-7-3.84-10.54-5.79-9.31-5.17-13.53-4-18.87,5.25a8.52,8.52,0,0,1-2.58,3.35l-10.3-3.85c3.22-8,6.19-16.24,14.74-20.44,11.17,1.71,21.61,6.06,32.25,9.48C519.41,737.38,578.8,756,638,775.08c3.75,1.22,8,1.66,10.38,5.59C650,789,651.25,797.3,646.91,805.27Z"/><path class="cls-9" d="M742.22,355.14l-3.51-6.48c-3.68-6.67-3.31-13.68-1.8-20.8,2.3-8.94,10-15.42,11.12-25,.28-2.48,3.56-2.57,5.56-3.57,10.4-5.24,16.3-14.19,20.31-24.64,2.29-6,.7-11.42-3.36-16-5-5.66-12.12-5-16.81,1-5.38,6.8-7.47,14-3.18,22.41-9.37-2.46-12.15-7.19-9.48-18.33a118.3,118.3,0,0,0,2.7-34.2c-.56-5.92,1.71-10.17,7.33-12.46,15,1.26,27.82-4.45,40-12.32,8.51,18.44,10.25,38.08,9.51,58-.23,6.27-3.2,12.15-7,17.43A611.23,611.23,0,0,0,760,331.41c-.7,1.2-.91,3.33-2.55,3-9.45-1.69-5.24,5.09-4.34,7.95C756.35,352.91,754.21,355.73,742.22,355.14Z"/><path class="cls-10" d="M751.1,217.05l-7.33,12.46c-4.74,7.71-10.55,9.55-19.47,6-7.33-2.92-15.69-3.26-23.6-4.74-3.79,0-7.5,1.21-11.32.73-10-2.19-20.59-1.33-30.18-5.68l-33.35-2a81.21,81.21,0,0,1-25.66.25,157.39,157.39,0,0,0-53.45,11.27c.61-4.63,3.65-5.46,5.81-6.88,13.23-8.7,26.66-17.13,41.12-23.66,4.1-1.85,5.65-4.27,5.19-8.43,3.24,7.73,7.6,4.71,12,1.25,4.27-3,9.41-3,14.15-3.25,32.06-1.55,64-.68,95.37,7,10.83,2.67,21.77,5.93,30.42,13.81Z"/><path class="cls-11" d="M633.11,414.38c3,2.83.22,5.56-.65,7.82a375.21,375.21,0,0,0-19.66,72.14c-2.31,13.72,1.53,27.42,4,40.91a204.64,204.64,0,0,0,8.87,32.38c4.39,12.25,4.07,12.48-8.51,13.17-10.07,2.94-17.19-2.43-24-8.55-8-3.67-9.6-9.85-8.59-18.2C590.6,504,604.14,456.5,633.11,414.38Z"/><path class="cls-12" d="M383.27,714.25c-2.87-.66-6.13.42-8.64-1.9,1-4.6.07-9.12-.6-13.65-.5-3.35-1.68-6.81,1.28-9.71a7.56,7.56,0,0,1,1.52-.79c3.27-1.23,8.19-.4,8.47-5.63.24-4.68-3.76-5.94-7.25-7.38-3.92-3.88-1.22-7.72.77-10.84,5.75-9.05,13.21-15.82,25-15.28,2.09,1.24,3.13,4.79,6.61,3a5.43,5.43,0,0,1,4.48.78,4.46,4.46,0,0,1,1.63,3.71c-.92,5.92,2.64,2.47,4.64,2.28,3.81-.34,5.33,1.49,4.92,5.16-1.19,2.09-3.15,4.23.72,6.44-2.19-2-3.05-3.76-1-5.82-.57-6.57,1.39-11,9-10.44,3,1.65,1.29,3.78.53,5.77-.88,2.31-.92,4.27,2.65,5.48-5.6-3.06-1-6.54-1.43-9.69a2.18,2.18,0,0,0-2.59-1.62c-4.14.69-8.27,1.93-10.19-3.84-.54-1.64-3-.93-4.71-1.07-3.15-.52-4.5-2.49-4.5-5.55,4.11-5.09,10.05-2.2,15-3.46,3.45.21,6.25,2.29,9.46,3.23a96,96,0,0,0,9.49,5.73c2.81,2.35,4,5.57,5,9,1.29,5.42,3.62,10.61,3.61,16.31a8.68,8.68,0,0,1-.36,4.94c-3.44,2.17-6.5-.27-9.74-.77s-6.46-2.9-9.45.45c-4.29,7.49-8.31,15.16-14.33,21.5a35.42,35.42,0,0,1-4.51,4c-2.07,1.32-4,2.81-6.12,4.13-6.13,3.6-12.93,5.3-19.75,7C389.5,716.28,386.26,716.15,383.27,714.25Z"/><path class="cls-13" d="M560.36,611.69c3.9-7.92,10.47-13.88,15.41-21,1.21-.68.58-2.54,2-3.07,4.48-.1,8.81-4.25,13.43-.49a4.91,4.91,0,0,1,2.24,3.32A52.13,52.13,0,0,1,594,597a18.16,18.16,0,0,0,5.24,11.47c8.91,9,12.76,20.21,13.11,32.62.13,4.68,2.66,8,4.76,11.73a10.71,10.71,0,0,1,1.38,2.14,6.08,6.08,0,0,1,.16,3.77,3.46,3.46,0,0,1-2.79,2.23c-5.67-3-6.51-9.62-10.16-13.07,2.5,5.53,8.73,10.28,8.48,18.07-1.12,4.08-1.75,8.47-6.52,10.21-4-5.38-4.33-13.17-10.9-16.91-.85-1.47-2.65-1.57-3.74-2.49.48,1,1.85.81,2.62,1.59,7.65,4.86,8.9,13.45,12.21,20.83a4.24,4.24,0,0,1-3.81,4.34c-5.79-2.83-6.92-9.67-11.57-13.48a28.32,28.32,0,0,0-3.62-3.13c1.06,1.2,2.57,1.94,3.52,3.27A49.75,49.75,0,0,1,602.7,686.3c-2.21,6.92-8.62,10.49-12.7,15.94-2.2.52-4.15-.32-6.11-1.13-22.6-10.76-21.15-13.72-11.65-37.74.85-2.15,2.5-3.84,4-5.58,8.29-9.55,8.28-9.55.93-19.06,1.21-6.33,5.22-11.06,8.67-15.35-4.21,3.15-5.28,9.56-10.06,13.12-2.44-.07-3.72-1.48-4.31-3.69a47.35,47.35,0,0,1,4.06-13.3c-2.46,2.73-1.46,7.59-5.27,10-4.69-1.93-5.71-6-6.21-10.45,1.5-7.1,5.38-13,9.38-18.89.2-1,1.52-1.34,1.48-2.49-.45,1-1.49,1.7-1.71,2.88-4.22,5-6.61,11-9.48,16.78C560.42,616.74,559.51,614.74,560.36,611.69Z"/><path class="cls-14" d="M736.91,327.86c1.93,6.82,2,13.8,1.8,20.8-2.9,6.13-3.34,13.06-6.72,19.15-3.08,5.54-6.79,9.81-12.68,12.16-10.15,4-20.51,6.67-31.58,6.92-5.75.12-9.26-1.55-10.89-7l-.87-5.16c12.59-1.68,22.09-8.74,30.77-17.4C716.69,347.39,726.85,337.67,736.91,327.86Z"/><path class="cls-15" d="M646.91,805.27q.08-12.81.13-25.6c.75-3.12,3.49-4.44,5.72-6.11,13.49-10.13,26.92-20.33,40.49-30.35,2.66-2,5.11-4.83,9.1-3.51a13.19,13.19,0,0,1-.77,3.32c-4,7.53-3,12.79,6.4,14.31l-24.44,20.46c-1.32,4.74-5.78,6.37-9.09,9.15a5.46,5.46,0,0,1-3.34,1.18c-7.22,3.55-12.57,9.61-19.1,14.1Z"/><path class="cls-16" d="M832.1,572c7.68-9.53,18.84-13.71,29.28-19q17.36-8.76,34.81-17.32c5-2.44,10.15-4.07,15.79-3.58,4.64,7.6.94,14.18-2.82,20.52a37.6,37.6,0,0,1-9.4,10.95c-4.55-12.41-4.59-12.53-18.23-7.52-8.63,3.17-17.07,6.85-25.66,10.14-6.62,2.53-12.31,5.64-11.43,14.14-3.46,3.39-7.37,3.07-10.9.6C830.36,578.68,829.64,575.41,832.1,572Z"/><path class="cls-17" d="M468.6,585.51c.82-17.21,2.16-34.34,9.23-50.38,8.94-20.26,25.39-28.37,44.29-22,.36,2.68-1.76,2.93-3.49,3.57-11.38-.49-18.48,6.16-23,15.32-8.79,17.91-11.84,37-9.7,56.92,1.14,10.56,1.37,21.26,5.72,31.23a2.87,2.87,0,0,1-1,2.61,6.94,6.94,0,0,1-7.13-.09c-5.9-8.13-5.71-17.86-6.51-27.13-1.58-18.4-1-36.71,5.28-54.44,2-5.73,4.35-11.25,8.15-16,.84-.8,1.39-2,2.6-2.4-.92-.11-1.14.77-1.73,1.24-11.39,14.88-13.91,32.4-15.07,50.24-.88,13.51.62,26.89,3.27,40.13.4,2,1,3.91-.14,5.84-3.13,1.79-5.68.53-8.07-1.53-3.74-8.8-3-18.32-4.52-27.49A10.27,10.27,0,0,1,468.6,585.51Z"/><path class="cls-18" d="M423.49,733.15c1.31-14,12-17.58,21.71-11.14,4.74,3.16,9.58,6.14,15.16,7.9,4.11,1.29,5.27,5,4.74,9.09a10.73,10.73,0,0,0,3.67,9.9c-1.61,3.06-4.55,3.35-7.4,3.09-7.94-.72-15.95-1.15-23.73-2.69C429.19,747.63,424.58,741.71,423.49,733.15Z"/><path class="cls-19" d="M376.79,689.61c-3.72,5.62.67,10.94.83,16.43.1,3.16,1.22,5.64-3,6.31-7.7-4-6.89-12-7.93-18.64-3.21-20.31,2.49-37.35,20.54-49a14.76,14.76,0,0,1,3.75-3.47,56.05,56.05,0,0,1,12.49-4.35c9.6-2.18,19-3.13,27,4.38-4.58,4-11-.94-15.58,3.27l-.63,1a19.82,19.82,0,0,1-8.59,4.23l-1.21,0c-12.09,2.47-21.91,7.82-26,20.44-.41,1.26-1.34,2.6.14,3.83C375.84,679,374.15,684,376.79,689.61Z"/><path class="cls-20" d="M518.81,515l3.31-1.8c6.43.16,13-1.67,19.18,1.74.53.35.71.71.55,1.07s-.33.56-.5.56l-1.83.06c-17.23.29-26.08,6.79-32.11,23.64-8.6,24-7.12,48.45-3.16,73,.49,3,2.3,6,.86,9.17a5.07,5.07,0,0,1-5.55.32c-5.55-6.31-5.2-14.44-6.24-21.93-3-21.32-1.59-42.38,6.35-62.62,3.13-8,6.62-15.93,13.84-21.36C515.11,515.75,517.16,515.94,518.81,515Z"/><path class="cls-21" d="M591.68,590.88c-.15-1.26-.31-2.52-.46-3.78q.93-7.43,1.87-14.85c7.85,3.3,15.11,8.26,24,8.55,12.36-.42,14,7.21,12.83,17-3.16,3.07-6.7.56-10.06.72-3.39-.31-7.25-.22-9.35-3.23-3.18-4.57-7-3.87-11.25-2.45C596.48,593.21,593.83,593,591.68,590.88Z"/><path class="cls-22" d="M394.09,713.69,413,706.83c5.34-1.46,10.63-2.75,14,3.51-5.9,5.38-7.74,13.73-13.85,19a46.43,46.43,0,0,1-15.62-5C394,721.56,391.64,718.41,394.09,713.69Z"/><path class="cls-23" d="M468.6,585.51c0,1.8,0,3.59,0,5.39-14.93,9-30.87,16-46.4,23.77-8,4-15.91,7.62-19.27,16.75-4.83,2-8.86-.22-12.89-2.47-1-1-1.9-2-1.2-3.55,21.73-12.09,44.33-22.47,66.67-33.35C459.92,589.92,464.25,587.69,468.6,585.51Z"/><path class="cls-24" d="M787,774.25l26.38-12q.95,4.23,1.91,8.47c-3.15,7-17.35,16.48-24.19,15.11C784.44,784.44,788.45,778.12,787,774.25Z"/><path class="cls-25" d="M600.19,224.06a43.83,43.83,0,0,1,25.66-.25c.08.65.17,1.3.25,1.94,1.24,2-.18,2.74-1.63,3.47l-22.37-.15Q601.14,226.57,600.19,224.06Z"/><path class="cls-26" d="M394.09,713.69l3.48,10.63c-5.51-2.31-14.4.18-14.3-10.07Z"/><path class="cls-27" d="M388.88,625.4l1.76,1.91c3.17,5.2,3.74,10.41.09,15.65l-3.49,1.76C387.63,638.27,385,631.56,388.88,625.4Z"/><path class="cls-28" d="M541.35,516.54c0-.54,0-1.09-.05-1.63,7,3.33,12.73,8,15.66,15.49Z"/><path class="cls-29" d="M570.81,561.52c-3.22-6.06-5.91-12.3-6.94-19.15A30,30,0,0,1,570.81,561.52Z"/><path class="cls-30" d="M577.78,587.59c-.24,1.3-.34,2.69-2,3.07-1.69-4.52-2.95-9,.15-13.49C576,580.73,575.74,584.37,577.78,587.59Z"/><path class="cls-31" d="M711.12,781.22c23.21.67,46.37.51,69.14-5,.31,14.74,0,14.87-16.29,17.19a365.07,365.07,0,0,1-51.9,3.7c-4.65-2.44-2.82-6.85-3.24-10.59C709,784.52,709.4,782.59,711.12,781.22Z"/><path class="cls-32" d="M710.81,786.64c1,3.43-.75,7.2,1.27,10.51-6.37,4-12.61-.13-18.78-.7-5.76-.54-11.81-1.59-17.11-4.62a3.92,3.92,0,0,1,2.43-2.81c7.18-.5,13.89,2.8,21.06,2.58,2.48-.08,5.11,1.13,7.15-1.28C707.89,788.8,708.05,786.29,710.81,786.64Z"/><path class="cls-33" d="M678.13,790.36l-1.94,1.47c-2.6,0-4.9-.4-5.08-3.71l1.8-1.67C675.33,786.85,677.24,787.92,678.13,790.36Z"/><path class="cls-15" d="M738.74,679.39c-6.8,9.07-18.23,8.14-27.33,12.18-6.38,2.83-7.7,5.29-4.16,10.83-4,6.39-10.59,10-16.27,14.49-5.61,3.5-10.27,8.23-15.63,12.06-4.28,3-8.45,6.17-12.49,9.5-8.08,4.68-9.17,12.16-8.48,20.52a47.4,47.4,0,0,1,.33,9.31c-1.94,4.11-4.76,6.35-9.52,4.52-4.82-11.16-2.36-22.69-1.74-34.12,6.51-6.42,6.63-14.55,6.27-22.9-.18-4.24-.36-8.54.76-12.73,1.52-4.34,5.21-6.71,8.62-9.33,31.67-24.31,63.49-48.44,95-72.9,3.48-2.7,7.2-7.73,11.74-5.38,3.52,1.83,1.38,7.4,1.32,11.23-.15,10,1.09,20-.72,29.94l-1.82,1.82c-1.87,4.62-6,7-9.73,9.75C749.49,671.83,743.79,675.14,738.74,679.39Z"/><path class="cls-34" d="M688.58,609.88c1.55-4.93,3.75-9.75,4.52-14.79,1.89-12.53,9.85-19.3,21.06-22.57,4.12-1.2,5-3.25,6.27-6.76,4.18-12,4.68-24.51,6.15-36.9.7-5.87,3.25-8.17,9.29-5.7,3.15,1.28,6.71,1.52,10.06,2.35,11,2.74,13.46,9.94,6.58,19.27-6.72,9.12-7.12,20.26-10.09,30.58-.72,2.51,1.4,4.27,3.11,5.82,8.94,8.07,10.8,17.91,7.41,29.1,2,3.25.78,5.91-1.47,8.39-7.25-1.41-2.08-7.16-4-11.16-3,1.46-2.88,5.93-6.19,6.77-7.4,4-14.09,8.38-14.76,18a17.22,17.22,0,0,1-2.83,8.87,4.5,4.5,0,0,1-2.33.9,46.63,46.63,0,0,1-13.65-3.47c-3.44-3.73-6.25-7.8-11.1-10.46s-4-9.93-8.48-13.54a6,6,0,0,1-.67-2.45A4.11,4.11,0,0,1,688.58,609.88Z"/><path class="cls-35" d="M750.59,618.48q1.17-4.11,2.35-8.2c15.19,3.24,15.53,3.25,15.06,19.32-.26,9,2.2,18.2-1.51,27V614.4L652.27,701.72c-9.83-.89-19.95-1-26.18-10.71,3.4-2.72,7.59-3,11.63-3.7,9-2.3,18.87-1.08,27.1-6.59,1.63-1.28,3.64-1.91,5.34-3.06,11.81-8.11,23-17.06,34.62-25.4,5.8-3.25,10-9,16.76-10.77l1.54-.77c1.89-1.88,2.73-4.67,5.23-6,3.82-2.66,7.46-5.54,11.15-8.36C743.34,624,746.52,620.59,750.59,618.48Z"/><path class="cls-36" d="M688.58,609.88c-.08.59-.15,1.19-.23,1.78-2.38,2.44-5.63,2.3-8.63,2.94a12.27,12.27,0,0,1-2.71-.05c-16.25-2.37-32-7.11-48.25-9.57-4.26-1.74-8.53-3.47-9.62-8.7L630,597.81Z"/><path class="cls-37" d="M754.35,667.11c2.62-3.87,7-5.67,10.32-8.68,0,2.13-.35,4.37,1.78,5.86l-12.11,6.2A2.26,2.26,0,0,1,754.35,667.11Z"/><path class="cls-38" d="M624.47,229.22c.54-1.15,1.09-2.31,1.63-3.47,10.32,15.46,12.78,31.42,3.44,48.32a39,39,0,0,0-3.72,9.62c-.84,3.5-5.33,7.42-.32,10.7,4.79,3.15,10.18,3.79,15.42.46,1.67-1.06,3.22-2.52,5.05-3.08,2.63-.81,4.49.67,5,3.31.49,2.25-.66,4.68-2.67,4.69-7.59,0-15.05,3.86-22.84.06-6.25-3-9.17-6.95-5.93-13.56,3.46-7,4.61-14.8,7.35-22C631.52,252.12,630,240.56,624.47,229.22Z"/><path class="cls-39" d="M691.82,337.23a142.43,142.43,0,0,1-39.52,11.26c-8.1,1.17-19.74-3.21-18.18-6,3.45-6.21,10.62-4.9,16-4C664.26,340.88,678,338,691.82,337.23Z"/><path class="cls-40" d="M659.2,225.81c10.64-.64,20.9,2.07,31.31,3.47,2.64,1.57,6.34.43,8.47,3.3,2.53,1.27,4.6,3.17,3,6-1.45,2.65-4.12,1.14-6.1.29a101.34,101.34,0,0,0-31.47-7.53C660.64,231,658.43,230.05,659.2,225.81Z"/><path class="cls-41" d="M699,232.58c-3-.59-6.06-1.14-8.47-3.3,3.43.28,7.12-1.23,10.19,1.48Z"/><path class="cls-42" d="M647,772.78c2.4-1.55,5.59-2,6.82-5.16,10-10,21.69-17.77,33.38-25.54,3.37-2.67,6.55-5.6,10.53-7.41,2.07-.87,3.81-2.94,6.44-1.81a11.27,11.27,0,0,1-1.82,6.84Q678.26,757.36,654.16,775c-2.29,1.67-4.74,3.12-7.12,4.68-11.81-3.48-23.7-6.74-35.43-10.48q-75.47-24.12-150.86-48.44c-11.2-3.59-22.47-7-33.71-10.41-4.36-2.41-9.25-2.7-14-3.51a6.74,6.74,0,0,1,5.22-3.6c13.18.58,25,6.32,37.28,10.13,50.29,15.64,100.69,30.89,150.82,47A44.73,44.73,0,0,0,619,763,78.92,78.92,0,0,0,647,772.78Z"/><path class="cls-43" d="M768,699.92c1.42,8-2.09,13.39-8.74,17.71-7.15,4.64-12.95,11.18-20.49,15.35C740.8,715.12,751.11,704.6,768,699.92Z"/><path class="cls-44" d="M704.17,732.86l-5.42,3.37c-7.89-3.43-17.49-2.12-24.2-8.78,5.18-4.11,9.65-9.12,15.66-12.15,5.71,1.85,12,2,17.2,5.3C706.2,724.65,706.79,729.18,704.17,732.86Z"/><path class="cls-45" d="M707.41,720.6c-6.18-.3-12.78.74-17.2-5.3l17-12.9C709.92,708.44,708,714.52,707.41,720.6Z"/><path class="cls-46" d="M754.35,667.11c0,1.12,0,2.25,0,3.38-5,3.33-9.94,6.73-15.6,8.89C742.65,673.65,748.53,670.42,754.35,667.11Z"/><path class="cls-47" d="M678.13,790.36c-2.27-.59-4.46-1.3-5.22-3.9,3-3.59,6.77-6.16,10.63-8.67,8.17-.91,16.06,1.7,24.14,1.9,3.54,3.75-.77,8.4,1.41,12.31-.32,4.32-3.46,3-5.74,2.63C694.93,793.32,686.53,791.8,678.13,790.36Z"/><path class="cls-48" d="M709.09,792c-2.26-3.9-1.19-8.18-1.41-12.31l3.44,1.53c-.1,1.81-.21,3.61-.31,5.42C708.92,788,709.57,790.18,709.09,792Z"/><path class="cls-49" d="M505.12,624.6c4.17,1.19,7.13,3.62,8.24,8a3.28,3.28,0,0,1-3.1,1c-.6-.13-.64.35.06.5,10.65,2.17,13.16,8,6.89,17.93.74.57,2.76.13,1.61.07q-.24,0,0-.69c2.89-8.42,4.44-9,13.09-7.88,4.56.59,9.41,3.28,14-.19,3.67-1.85,6.48-1,8.38,2.67-.45,5.79-4.83,8.15-9.32,10-4,1.65-7,3.64-7.51,8.32-.17,1.76-1,3.63-2.78,4-5.32,1-7.68,5.56-11.29,8.64-22.81,3-37.79-13-32.8-34.92.29-1.39.73-2.76,1-4.17.71-3.38-4.71-6.12-1.39-9.44,2.9-2.91,7.15-3.51,11.09-4.39A8.18,8.18,0,0,1,505.12,624.6Z"/><path class="cls-50" d="M553.61,646.26c-2.28-1.76-4.61-3.29-7.69-2-7.83.23-8.6-4-6.41-10.12-.17-6.19-.31-12.35,1.54-18.41,1.1-3.6,2.72-6.18,7-5.85,4.94-1.52,8.15,1.23,10.93,4.63,4.92,6,8.26,12.92,11.26,20C568.55,643.69,565.13,646.11,553.61,646.26Z"/><path class="cls-51" d="M539.51,634.12c-.87,5.28,3.28,7.38,6.41,10.12-.61,1.18,3.34,6.13-2.27,3.1-5.2-2.81-11.51,1.21-16.52-3.46-1.32-1.23-3.78,2.14-4.82,4-1.66,2.93-2.66,6.23-4.3,10.26-2.23-6.78-3.24-12.53,1.43-17.79-5.09-3-11.39-3.53-15.17-11.15,4.09,1.7,6.2,4.15,9.09,3.4,3.79.53,8,4.87,11.1-1.28.16-.31,2-.31,2.22,0C529.88,637.4,535,634.45,539.51,634.12Z"/><path class="cls-52" d="M505.08,621.86c-7.15-27.42-8.34-54.73,1-82A43.87,43.87,0,0,1,517.59,522c6.25-5.92,13.37-8.69,21.94-5.41-.43.38-.84,1-1.29,1.08-7.72.53-15.2.83-20.83,7.84a59.38,59.38,0,0,0-12.29,28,170.48,170.48,0,0,0,1.71,64.72c.29,1.32,1.2,2.7-.22,3.93C506,622.87,505.45,622.75,505.08,621.86Z"/><path class="cls-53" d="M569.29,634.23c-5.24-5.1-6.51-12.64-11.49-18.09-2.91-3.18-5.64-5.52-9.78-6.28,4.64-3,8.36.36,12.34,1.83l3.28,5.43c1.33-.09,1.38,1.11,1.87,1.87a28.9,28.9,0,0,0,5.15,10.16c1.2.81,1.05,2,1,3.2C571.49,633.78,570.76,634.47,569.29,634.23Z"/><path class="cls-54" d="M505.08,621.86a2.6,2.6,0,0,0,1.53.26c.51,1.43-.31,2.06-1.49,2.48l-3.59.6c-1.87-.57-4.35.69-5.58-1.84.66-2.1,1.94-2.55,3.82-1.46Z"/><path class="cls-55" d="M750.8,215.19c-.57.07-1.26.39-1.68.18-42.31-21.63-87.63-20.19-133.13-17.46a40.23,40.23,0,0,1-5.13-.3c0-20.94,9.87-36.63,26-49.13,43.13-33.35,83.85-13.79,105.48,29.05C748.3,189.28,749.49,202.3,750.8,215.19Z"/><path class="cls-15" d="M402.75,630.79c.7-7.63,5.1-11.73,12-14.88,14.94-6.8,29.48-14.5,44.18-21.83,3.08-1.54,6-3.49,9.71-3.18,2.44,9.17,2.61,18.66,3.84,28,2.16,1.66,5.56,2.31,5.09,6.15-5.45,2.75-11.5,1.48-17.21,2.57-2.15.41-4.64-.36-6,2.17-1.85,3.43-4.16,6.59-5.73,10.18-2.48,3-5.05,5.87-9.58,4.71a9.42,9.42,0,0,1-8.55-3.39c-9-2.95-18.13-5.11-27.61-2.08C400.49,636.44,400.54,633.63,402.75,630.79Z"/><path class="cls-42" d="M626.28,691.61c7.87,5.4,17.6,6,26,10.11,0,8.23-.51,16.49.07,24.67.44,6.06-1.9,9.48-7.16,11.56-5.69,1.75-10.74-1-15.86-2.53q-92.38-27-184.89-53.63c-3.18-.71-6.52-1.12-8.43-4.31,1.06-3.19,3-3.25,6-2.34,4.79,1.5,9.75,2.44,14.64,3.62,10.06-2.39,18.45,3.52,27.64,5.49A216.63,216.63,0,0,0,507,690.78c2.61.5,5.09,1.52,7.72,1.9,16.93,4.69,33.86,9.38,50.73,14.24,7.94,2.77,16,5,24.18,7,2.16.59,4.34,1.11,6.52,1.6,5.19,1.54,10.4,3,15.63,4.44,8.36,2.24,10,1,10.28-7.93.16-4.84-.32-9.71.28-14.51C622.61,695.16,621.63,691.33,626.28,691.61Z"/><path class="cls-56" d="M619.29,764c-4.61,3.43-8.8,0-12.78-1.26-50.66-15.66-101.22-31.62-151.85-47.4-12.21-3.8-24.7-6.76-36.41-12.1l3.46-3.33c2.66-1.78,5.33-.74,8,0,59.81,19.38,119.84,38,179.58,57.61C613,758.68,618.25,758.35,619.29,764Z"/><path class="cls-57" d="M492.83,641a33.07,33.07,0,0,1-.44,4.25c-3.25,13.53-1,19.26,11,25.17,6.35,3.12,13.07,5.88,20.51,5.29,2.6,2.45,2.4,5.23,1,8.15-10.19,3.24-18.31-1.52-25.63-7.46-4.13-3.35-7.87-4.79-13.17-3.95a42.87,42.87,0,0,1-20.3-1.59c-6.51-2.51-11.6-6.6-14.38-13.19-.9-2.76-1.82-5.52-4-7.62-1.58-2.62-2.08-5.31-.5-8.12,4.1-2.43,4.77,1.48,5.78,3.55,4.94,10.27,13.66,14.23,24.33,15.47,5.15.6,7.47-.62,7-6.42-.49-6.18-1.46-12.84,4.49-17.52C491.63,636.52,492.08,638.94,492.83,641Z"/><path class="cls-58" d="M484.24,686.39l-27.64-7.63c-.45-1-.91-2.07-1.36-3.11,1-2.82,2.75-4.53,6-4.21,10.83,3,22.46,3.25,32.25,9.67C493.35,688,488.67,687,484.24,686.39Z"/><path class="cls-59" d="M428.78,701.7l-7.06-1.8c5.28-7.14,10.5-14.31,14.27-22.42l8.4,1.75C442.25,688.84,437.61,696.72,428.78,701.7Z"/><path class="cls-60" d="M376.79,689.61c-6.52-7.19-6.32-8.92,1.84-15.54,6.42-.06,10,3.65,9.41,9.51C387.42,690,381.92,690.09,376.79,689.61Z"/><path class="cls-61" d="M459.75,672.48l-4.52,3.18c.16-6.3-3.14-11.84-3.86-17.95a55.08,55.08,0,0,0,13.68,11.2C465.22,673,461.9,671.85,459.75,672.48Z"/><path class="cls-62" d="M406.2,666.12c7.43,5.63,10.29,13.5,10.58,22.61C412.58,681.55,410.46,673.31,406.2,666.12Z"/><path class="cls-63" d="M420.12,648.06c1.16-1.68,4-2.18,4.24-1.06,1.61,7.49,8.58,5.58,13,8-.57.83-1.17.85-1.79,0-8.27-1.37-7.82,5.93-10.28,10.33h0c.36-3.83-1.39-5.56-5.21-5.2l-.34-1.09c1.26-3.24,4.09-6.37.75-10C420.38,648.76,420.25,648.41,420.12,648.06Z"/><path class="cls-64" d="M448.07,641.16q-.35,4.46-.7,8.92c-3.86-.12-6.36-2.34-8.31-5.4l8.4-5A.92.92,0,0,1,448.07,641.16Z"/><path class="cls-65" d="M435.59,655l1.8,0c1.36,2.88-4.27,7.18,1.94,9.22,1,.34.2,2.74-.42,2.77-1.44.07-2.89-.91-4.37-1-2.44-.18-1.75-1.36-1.29-2.79C434.11,660.47,434.82,657.73,435.59,655Z"/><path class="cls-63" d="M425.31,665.35a19.07,19.07,0,0,0,.78,2.39c.79,1.69,5.66.66,3.21,4.38-1.5,2.29-3.65-.31-5.13-.64-3.89-.85-.63-3.26-.09-5,.14-.45.81-.74,1.24-1.11Z"/><path class="cls-63" d="M414.9,653.26l-5.18,0c-.1-.38-.2-.76-.31-1.14,1.28-2.9,3.62-5,5.48-7.5l0,0c1.78,1.1,2.49,3.77,5.19,3.5v0c.75,3.34-2,3.88-4,5.08Z"/><path class="cls-66" d="M420.11,660.16a7,7,0,0,1-5.21,2.9v-9.8l0,0c4.74.07,3.16,4.84,5.18,6.94Z"/><path class="cls-19" d="M409.72,653.24c-.81,1.49-1.8,3.45-3.68,2.63-2.66-1.17-1.1-4-1.54-6.07l.06,0c3.24-1.11,3.66,2,5.17,3.47Z"/><path class="cls-67" d="M523.75,684c0-2.75.09-5.5.13-8.25,1-4.31,1.9-8.57,8-8.08,3.63.29,3.76-2.06,3.72-5.09-.06-4.29,1.32-7.81,6.85-8s8.72-3.87,11.2-8.34c5.33-3.88,14.94-2.17,15.68-12,.55-.63,1.11-1.25,1.67-1.88s1.19-.61,1.53.32l3.38,3.33a2,2,0,0,1,1.89,1.62c11.08,9.23,11.28,10.41,1,20.5-7.26,7.12-8.26,16.79-11.11,25.66-1.13,3.49,1.42,6.5,4.66,8.44,4.16,2.48,8.28,5,12.42,7.58-5.25,4.4-11.34,2.53-17.14,2.11-3.08-.23-6.08-1.41-9.24-1.29-2.36-.08-4.62-.47-6.47-2.09-2.59-9-10.18-15.25-12.27-21.62,1.22,3.19,4.5,8.13,8,12.91,1.27,1.73,2.4,3.32.64,5.34a27.43,27.43,0,0,1-15.83-6.09c1.89-5-4.14-7.33-3.88-11.78-.71,4.36,5.54,6.43,3.59,11.2-3.33,1.61-6,.39-8.43-1.94A2.33,2.33,0,0,1,523.75,684Z"/><path class="cls-67" d="M619.14,596.28l8.66,6.82c2.41,1.63,5.18,2.3,7.94,3,1.37.35,3.62.23,4,1.27,2.89,9,13.14,12.24,16.36,20.94a32.58,32.58,0,0,1,0,5.41,11,11,0,0,1-1,3.86c-1.79,2.66-4.19,4.23-7.49,4.11-1-.24-1.65-2.13-2-1.7-.76,1.06.2,2.54.12,3.88a4.43,4.43,0,0,1-2.69,2.34c-3.66.57-7.21,2.44-11.05,1-3-2.56-.53-4.44.75-6.57,1.8-3,4.09-5.68,5.5-8.51-4.72,6-7.72,13.52-12.9,19.64a7.29,7.29,0,0,1-2,1.15c-2.33,1.14-5.37-.28-7.4,2-3.35-5.3-5.68-10.24-5.89-17.33-.29-9.9-3.62-20.21-12-27.31-4-3.37-5.57-7.72-6.24-12.62,1.43-4.1,5.34-4.93,8.64-6.56,4.21-2.75,8.18-5.59,10.71,2C612.2,596.72,616.12,596,619.14,596.28Z"/><path class="cls-68" d="M595,717.28c-1.91,0-3.95.33-5.35-1.51a18.7,18.7,0,0,1-1.3-2.09c-.84-4.13-.73-8.16,1.48-11.92,1.53-7.14,8.8-9.84,12.1-15.61a4.16,4.16,0,0,1,1.73-3.49c1.42-.87,2.85-1.75,3.21-3.58-.6-1.15-.91-2.24.57-3,2.06-3.27,4.28-6.46,5-10.39,1.16-1.82,1.48-4.2,3.55-5.44l1.86-1.73c.84-2.49,2.67-3.47,5.18-3.43a4.87,4.87,0,0,1,3.5,1.67c-6.54,11.27-12,23.28-19.18,34C601.73,699.17,597.37,707.63,595,717.28Z"/><path class="cls-69" d="M589.86,701.76c1.65,4-.87,8.08,0,12.12-10-.11-17.75-6.34-26.5-9.84-2.63-1-6.44-1.29-6.19-5.68,9.19.43,18.28,2.75,27.57,1.44Z"/><path class="cls-70" d="M622.7,656.67l-4.85,1.85c-.2-1.07-.39-2.13-.59-3.19.51-3.05,3.63-2.35,5.32-3.7l2-.23c2-2,2.79-5.72,6.79-5.16l12.3-1.66a2.6,2.6,0,0,1,.17,2.42C638,652.85,631.08,656.38,622.7,656.67Z"/><path class="cls-71" d="M616,660.25c-.25,2.43-1.17,4.41-3.55,5.44-.47-9.33-7.52-15.44-11.41-23.18C608.29,646.58,610.27,655,616,660.25Z"/><path class="cls-72" d="M577.76,637.62,575.87,636c3-6.88,7.07-12.94,15.61-18.22C586.09,625.57,581.92,631.59,577.76,637.62Z"/><path class="cls-73" d="M607.47,676.08l-.57,3c-4.51-6.57-5.09-15.43-11.95-20.65a1.08,1.08,0,0,1,1.82,0C603.52,662.38,606.74,668.48,607.47,676.08Z"/><path class="cls-74" d="M603.69,682.66c-.07,1.41-.07,2.86-1.73,3.49l-10.41-15.59c-.48-1.64,0-2.31,1.75-1.74Q598.49,675.75,603.69,682.66Z"/><path class="cls-74" d="M572.49,632.67c-.51-.09-1-.19-1.53-.32l-.3-3.2c1.82-5.67,2.31-12.14,9.18-14.9C576,619.89,574.61,626.42,572.49,632.67Z"/><path class="cls-75" d="M565.51,619l-1.87-1.87c.29-7.2,4.9-12.2,8.91-17.51a1,1,0,0,1,1.84,0C572,606.33,566.67,611.7,565.51,619Z"/><path class="cls-76" d="M600.32,591.12c-2.1,3.21-5.68,4.48-8.64,6.56v-6.8Z"/><path class="cls-77" d="M593.15,631.7c1.64-3.7,4.31-6.43,9.23-9.59A17.59,17.59,0,0,1,593.15,631.7Z"/><path class="cls-78" d="M593.3,668.82l-1.75,1.74-8-7.09,1.24-1.55Z"/><path class="cls-79" d="M574.39,599.6h-1.84c1.39-3,4-4.74,7.74-5.6Z"/><path class="cls-80" d="M581.49,693.18c3.66.85,5.73,1.59,8.51,5.36C586,697.17,583.71,696.68,581.49,693.18Z"/><path class="cls-81" d="M596.77,658.42H595c-2.47-.38-4.92-.8-6.6-4.4C592,655.06,594.71,656,596.77,658.42Z"/><path class="cls-82" d="M622.58,651.63l-5.32,3.69a7.84,7.84,0,0,1-1.42-.38C616.25,650.09,619.93,651.91,622.58,651.63Z"/><path class="cls-83" d="M499.77,621.9l-3.66,1.64c-2.27,1.16-3.79.24-4.9-1.77-.07-.43-.11-.85-.14-1.28-5.9-14.36-7-29.66-6.51-44.72.53-15.68,2.57-31.61,11.13-45.5,4.47-7.25,9.36-14.59,19.71-13.73C495.09,541.46,492,570.39,496,600.87,496.9,607.92,498.49,614.89,499.77,621.9Z"/><path class="cls-84" d="M493,523.57c-18.75,31.24-17.1,64.35-9,98-1.48,2.46-3.14,4-5.74,1.22a2.9,2.9,0,0,1,.52-2.3c-6-26.83-7.89-53.59,1.77-80.06,2.66-7.27,5.55-14.46,12.31-19.13A1.41,1.41,0,0,1,493,523.57Z"/><path class="cls-85" d="M478.82,622.16c2,2.55,3.45-.46,5.19-.54l7.2.15,4.9,1.77c1.8.58,4-.16,5.42,1.66-3.29,2.31-7.2,3-12.09,3.68,3.57,3.94,6.71,7.43,3.39,12.15L490,637.39c-8.24-1.48-16.39-5.09-24.83-.41-1.63.9-4.29.67-5.18-1.56s.9-3.67,2.3-5c-1.23-1.77-2.34.52-3.49.1-2.1.27-4.1.23-5.56-1.64-.32-1-2.47-2.54.4-2.79,7.75-.7,15.52-1.15,23.29-1.69C476.1,622.42,477.27,622.13,478.82,622.16Z"/><path class="cls-86" d="M515.4,516.54c-14.91,3.21-20.15,15.11-24.21,27.63-8.24,25.36-5.44,50.87-.12,76.32-6.8-4.24-4.89-11.65-5.9-17.68-4.15-24.77-3.16-49.24,8.59-72,5-9.69,12.14-17.78,25-15.8Z"/><path class="cls-87" d="M478.82,622.16c-.63.75-1.26,1.49-1.88,2.24-1.74-1.64-4-2.87-4.47-5.5,2.5-1,4.44.24,6.32,1.64A2.64,2.64,0,0,1,478.82,622.16Z"/><path class="cls-88" d="M493,523.57l-.18-2.22c.88-1.36,2.8-3.55,3.45-2.38C497.59,521.29,494.52,522.22,493,523.57Z"/><path class="cls-42" d="M402.75,630.79q.08,4.2.14,8.42L390.73,643l-.09-15.65C394.57,628.85,398.41,630.7,402.75,630.79Z"/><path class="cls-89" d="M409.73,653.24c-2.69.29-3.39-2.4-5.17-3.47a19.07,19.07,0,0,1,10.34-5.17C415.91,649.12,412.22,650.82,409.73,653.24Z"/><path class="cls-8" d="M428.78,701.7c6.25-6.77,10.7-14.78,15.61-22.47q97.14,28.2,194.29,56.42c2.2.64,4.33,1.53,6.49,2.3,0,8.91,0,17.82.12,26.73,0,2.77-.86,5.83,1.71,8.1-10.72,1.75-20-1.22-27.71-8.79-19.66-8.88-40.66-13.8-61-20.53C515.19,729.25,472,715.59,428.78,701.7Z"/><path class="cls-90" d="M688.55,743.28c-12.06,7.42-22.07,17.77-34.73,24.34-4.84-13.88-2.25-23.1,8.77-31.25A66.15,66.15,0,0,1,688.55,743.28Z"/><path class="cls-91" d="M688.55,743.28c-9.17-.34-17.74-3-26-6.91l12-8.92c6.78,1.77,13.55,3.62,20.36,5.26,2.09.5,3.86.92,3.84,3.52Z"/><path class="cls-92" d="M643.35,646.27a4.89,4.89,0,0,0,.29-1.69l1.24-1.83c-.14-1.49.51-2.17,2-1.93l7.22-3c3.08-2.84,7.82.86,10.68-2.76,1.72-1.34,3.78-2.22,5.25-3.89.13-7.08-.85-14.66,8.19-17.54a7.39,7.39,0,0,0,1.67-.4,12.3,12.3,0,0,1,8.52,0c3.74,2.32,7.13,4.89,7.06,9.91,0,2.33.86,3.69,3.37,4.05,5.84.84,7.61,5.35,8.84,10.24-.65,5.26-1.62,10.48-1.86,15.78-10.9,9.5-22.7,17.82-34.63,26a1.58,1.58,0,0,1-2,.36,8,8,0,0,0-5.59-2.76c-1.53-.43-2.43-1.81-3.81-2.46.71.86,1.64,1.6,1.48,2.9-.4.77-1.28,1-1.8,1.59a6.65,6.65,0,0,0,2.19-.58c2.28-.24,3.84.62,4.5,2.87-.27,3.1-2.19,4.43-5.06,4.85q-11.4,1.63-22.82,3.33c-4.71-8.4-2.48-17.25-1.71-26a7.34,7.34,0,0,1,5.05-4.65c2.46-.9,4.79.71,7.85.49-2.87-.08-4.71-1-6.12-2.74C641.09,653,641.37,649.66,643.35,646.27Z"/><path class="cls-93" d="M705.84,653.25c-3.21-5.71-1.87-10.88,1.86-15.77,4.86.48,9.81.66,13.84,4A60.88,60.88,0,0,1,705.84,653.25Z"/><path class="cls-94" d="M750.59,618.48c-1.51,5-6.12,6.61-10,9-2.36-2.12-1-5.34-2.28-7.77.39-2.21,5.06-2.93,2.18-6.28a8.38,8.38,0,0,0,3.27-5.73c.47-2.79,1.17-5.28,4.65-4.31s2.55,4,2.16,6.39C750.1,612.73,747.77,615.57,750.59,618.48Z"/><path class="cls-95" d="M740.5,613.45c8.71,4.65-.81,4.67-1.75,6.87a36.55,36.55,0,0,0-10.24,16.22c-1.5,1.8-3.06,3.52-5.42,4.18.35-11.11,3.42-20.78,13.68-27A3.8,3.8,0,0,1,740.5,613.45Z"/><path class="cls-96" d="M749.16,593.38c-.1,3.07-.81,6.26-4.55,5.8-4.57-.56-6.79-4.45-6.84-8.54,0-2.93,1.65-6.76,5.58-6.24C748.16,585,749.43,588.93,749.16,593.38Z"/><path class="cls-42" d="M688.43,613.27l-8.52,0c2.44-2.55,5.61-1.16,8.44-1.58A4.84,4.84,0,0,1,688.43,613.27Z"/><path class="cls-50" d="M638.22,661.79q.06,13.76.13,27.52l-12.07,2.3c-4,7.52-1.2,15.56-1.7,23.33-.59,9.3-2.06,10.81-10.79,8.25-6.29-1.84-12.51-3.93-18.76-5.91-.91-8.91,1.29-16.22,7.74-23.26,8.65-9.44,10.79-23.19,19.48-32.92,1.32-1.47,2.65-2.92,4-4.38C631.9,654.44,636.84,653.9,638.22,661.79Z"/><path class="cls-97" d="M728.51,636.54c-1.14-8.28,1.68-14.06,10.24-16.22,5.32,1.19.26,5,1.85,7.18A48.62,48.62,0,0,1,728.51,636.54Z"/><path class="cls-98" d="M669.9,678.93a8.49,8.49,0,0,1,1.31.28c-1.14,2-3.1,1.86-5,1.92l-5.38-1.94a1.21,1.21,0,0,1-.55-1.26c.12-.45.25-.68.39-.68-1.49-2.34-5.28-2.14-6.37-5.59,4.7-1.11,6.9,2.68,10.06,4.09A11.24,11.24,0,0,1,669.9,678.93Z"/><path class="cls-42" d="M678.24,613.63c-4.64,5-9.09,9.91-4.6,17.41.51.86-1.4,1.42-2.48,1.69-6.23,1.72-12.15,1.92-17-3.35,1.08-9-8.69-5.5-11.26-9.7s.76-12.26-8.65-11.66c-3.07.19-5-2.36-6.46-4.92A291.33,291.33,0,0,1,678.24,613.63Z"/><path class="cls-99" d="M507,637c-2.94,4.47-5.58,5.82-9.13,5.25a2.32,2.32,0,0,1-.62-2C499.29,637,502.34,637.13,507,637Z"/><path class="cls-100" d="M465,630.36l-3.86,4.39c10.2-3.48,19.94-5.38,28.86,2.64-5.62,6-4.83,13.34-3.28,20.26,1.18,5.29-.8,6.27-5,6-16.53-1.27-25.42-2.86-33.62-22.44a3.94,3.94,0,0,1-.61-1.45c.19-4.54,2.93-7.72,5.79-10.83l6.27-.06C461.57,628.58,464.12,626.52,465,630.36Z"/><path class="cls-101" d="M557.14,698.36c10.8,5.38,21.3,11.38,32.69,15.52l-.15,1.89c-8.32-1.39-16.5-3.23-24.12-7-13.92-3.08-25.43-12.28-39.39-15.45-3.45-.78-8.2-1.88-7.28-7.58a4.18,4.18,0,0,1,5.1.41l8.67,1.76v0l15.7,6.75c1.9-.71,2.67.52,3.34,1.93C553.05,698.6,555.21,698.13,557.14,698.36Z"/><path class="cls-102" d="M518.83,686.42c1,1,1.9,2.67,3,2.84,14.32,2.18,25.2,12.53,38.85,16.25a7.32,7.32,0,0,1,4.86,3.23L513.17,694.6a9.25,9.25,0,0,1-1.9-6.12,3.14,3.14,0,0,1,1.31-1.71C514.63,686.07,516.65,684.67,518.83,686.42Z"/><path class="cls-103" d="M484.24,686.39c3.68-.36,7.38-.69,8.56-5.18,7.75-1.14,15.06-1,19.8,6.75l-.66,0c-.88,2.61-3.52,3.39-5.28,5.07Z"/><path class="cls-104" d="M506.66,693c.08-3.42,2.88-4,5.27-5.07,1.87,2,1.75,4.27,1.24,6.67Z"/><path class="cls-105" d="M512.6,688c-5.67-5-13.37-4-19.81-6.75l-33-8.73,5.3-3.57c8.76,1.57,17.51,3,26.32.22a4.49,4.49,0,0,1,5.39,1.57c6.67,9.14,16.72,11.44,27,13.29.08.71.16,1.42.25,2.13-1.73.09-3.45.19-5.17.3Z"/><path class="cls-106" d="M381.73,677.28c.35,4,0,5.79-2.33,6.42-.31.09-1.13-.51-1.22-.9C377.58,680.11,380.7,680.17,381.73,677.28Z"/><path class="cls-107" d="M420.12,660.17c-4.9.05-2.26-5.51-5.18-6.94l5.17-5.19C430.65,652.08,422.84,656.13,420.12,660.17Z"/><path class="cls-108" d="M551.7,696.58l-3.34-1.93c-3.2-8.36-10.41-14.8-11.38-24.27C540.45,680,549.52,686.3,551.7,696.58Z"/><path class="cls-109" d="M532.66,687.88c-2-3.91-6.27-7-4.22-12.36-.24,4.72,7,6.71,4.22,12.38Z"/><path class="cls-110" d="M631.34,646.24l-6.79,5.16c4.73-7.6,9.47-15.19,15-24.08C639.79,636.07,632.33,639.74,631.34,646.24Z"/><path class="cls-111" d="M654.17,629.38l17,3.35-5.58,3.38c-4.37,2.37-8,.59-11.33-2.18C654.22,632.42,654.19,630.9,654.17,629.38Z"/><path class="cls-112" d="M654.25,633.93l11.33,2.18c-2.9,6.77-7.58,1.51-11.46,1.7C654.17,636.52,654.21,635.23,654.25,633.93Z"/><path class="cls-113" d="M646.9,640.82l-2,1.93c-3.75-4.25,1.75-4.92,2.31-8.32C649.08,637.48,646.52,638.93,646.9,640.82Z"/><path class="cls-114" d="M638.22,661.79c-2.69-4.79-7-5.7-12-5.07l-3.53-.05c7.41-2.43,13.81-6.86,20.66-10.4.12,3.54-.32,7.19,2,10.3,1,2-.6,2.6-1.87,3.36Z"/><path class="cls-115" d="M465,630.36c-1.48-1.74-3.64-1.09-5.48-1.54a6.57,6.57,0,0,1,6.23-1.16C468.47,628.8,466.74,629.83,465,630.36Z"/><path class="cls-116" d="M679.82,653.21c1.22-1.42,4.08-2.11,3.81-.62-.45,2.48,3.21,5.8-1,7.45a55.08,55.08,0,0,1-6.57,1.72,4.48,4.48,0,0,1-.59-4.47C676.5,655.49,679.36,655.64,679.82,653.21Z"/><path class="cls-117" d="M672.74,656.8,664.66,654l.52-1.4,12.79.67c.73,3.62-2.61,2.5-4.11,3.53Z"/><path class="cls-118" d="M643.5,659.93c.63-1.12,1.25-2.24,1.87-3.36l8.44,4.19Z"/><path class="cls-119" d="M676.79,656.85c-.25,1.64-.49,3.27-.74,4.91-3.21-.25-5-1.46-3.3-5l.57-.28C674.56,655.79,675.74,655.69,676.79,656.85Z"/><path class="cls-120" d="M660.68,677.25c.05.65.11,1.3.16,1.94-1.42,1.81-3.22,2.87-6.37,3A7.88,7.88,0,0,1,660.68,677.25Z"/><path class="cls-121" d="M672.27,649c-3.88.9-5.89-1.07-9.4-1.66C667,645.42,669.32,646.88,672.27,649Z"/><path class="cls-122" d="M669.9,678.93c-2.12-.58-4.25-1.14-5.53-3.18C668.24,673.3,669.63,675.15,669.9,678.93Z"/><path class="cls-123" d="M676.79,656.85l-3.47-.34,4.65-3.24,1.85-.06C682.06,657.13,679,656.62,676.79,656.85Z"/></svg>