<svg id="Calque_1" data-name="Calque 1" xmlns="http://www.w3.org/2000/svg" viewBox="0 0 1280 1024"><defs><style>.cls-1{fill:#09090d;}.cls-2{fill:#918c97;}.cls-3{fill:#d58f7c;}.cls-4{fill:#e2f4f8;}.cls-5{fill:#2f1214;}.cls-6{fill:#d2e2e6;}.cls-7{fill:#190a0b;}.cls-8{fill:#d5907c;}.cls-9{fill:#96919d;}.cls-10{fill:#bd806e;}.cls-11{fill:#efe5ee;}.cls-12{fill:#dbc4d7;}.cls-13{fill:#e2d0df;}.cls-14{fill:#decadb;}.cls-15{fill:#faf8fa;}.cls-16{fill:#a87363;}.cls-17{fill:#85808a;}.cls-18{fill:#f3ecf2;}.cls-19{fill:#d3e1e5;}.cls-20{fill:#a77263;}.cls-21{fill:#3a1b1b;}.cls-22{fill:#a5aeae;}.cls-23{fill:#d3626d;}.cls-24{fill:#a87161;}.cls-25{fill:#371819;}.cls-26{fill:#a77161;}.cls-27{fill:#e7c8b4;}.cls-28{fill:#c3b7cf;}.cls-29{fill:#b2bdbf;}.cls-30{fill:#a5aeaf;}.cls-31{fill:#9ca4a4;}.cls-32{fill:#ede0d8;}.cls-33{fill:#f2eaf1;}.cls-34{fill:#f7f3f7;}.cls-35{fill:#dfeef4;}.cls-36{fill:#9aafb4;}.cls-37{fill:#b7c1c2;}.cls-38{fill:#ccd8dd;}.cls-39{fill:#9baeb2;}.cls-40{fill:#c5bcd2;}.cls-41{fill:#c8c1d5;}.cls-42{fill:#d2d5e3;}.cls-43{fill:#cfd0df;}.cls-44{fill:#cac6d9;}.cls-45{fill:#cccadb;}.cls-46{fill:#d2d4e2;}.cls-47{fill:#d0d0e0;}.cls-48{fill:#cdcbdc;}.cls-49{fill:#c9c5d8;}.cls-50{fill:#a8afb2;}.cls-51{fill:#e7d8e4;}.cls-52{fill:#eadee8;}.cls-53{fill:#ddebf2;}.cls-54{fill:#98aeb4;}.cls-55{fill:#f7f2f6;}.cls-56{fill:#d9e2ec;}.cls-57{fill:#d8bfd4;}.cls-58{fill:#ddc7d9;}.cls-59{fill:#e2cfdf;}.cls-60{fill:#ece0ea;}.cls-61{fill:#e7d7e4;}.cls-62{fill:#dce8f0;}.cls-63{fill:#d5dbe7;}.cls-64{fill:#99a0a0;}</style></defs><path class="cls-1" d="M681.22,860.46c-25.91,2.14-52,1.89-78.35.28-3.06-.19-6.1-.39-9.12-.62-10.85-1.59-21.63-3.63-32.32-6-13.2-2.93-26.14-7.75-39.37-10.68,4.26-22.74,9.65-45.27,14.52-67.9,0-4.37,2.82-6,6.53-6.89,7.15-1.64,14.34-1.42,21.52-.38C580,770.49,594.36,776,609,780.71c14.82,4.79,29.87,6.95,45.41,4.92,6.75-.88,12.91-2.84,16.23-9.35,2.66-5.22,5.41-4.85,8.88-1,5,5.63,11,7.48,18.24,4.48,2.2-.9,4.92-2.34,6.68,1,.26,1.6.43,3.22.78,4.8,5.27,23.24,9.32,46.61,10.43,70.37C704.14,857.51,692.69,859.12,681.22,860.46Z"/><path class="cls-2" d="M777.28,587.1c2.9-10.45,5.7-20.93,8.77-31.33,1-3.27,1.51-6.28-.37-9.32-2.49-2.27-5.6-2-8.62-2.06-34.28-.87-68.51,2.1-102.8,1.55-10.81-.18-16.76,5-19.59,16.46-6.95,28.1-13.95,56.2-20.65,84.37-3.61,15.22-7.5,30.37-11.18,45.57-.82,3.37-2.07,6.79-.19,10.23,3.84,4.19,9,3.47,13.61,2.88,9.41-1.19,18.82-1,28.24-1.29h2.58c10.61-.89,21.4-.06,31.78-3.21,10.42-.54,20.84-1.15,31.27-1.6s15.62-4.25,18.61-14.4c2.16-7.32,4.06-14.73,6.07-22.09-3.6-5.25-9.15-5.75-14.76-6-9.88-.49-11.91-2.12-14.55-11.5-2-7.12-2.77-14.56-5.9-21.37a5.39,5.39,0,0,1,.48-5.31c.71-.94,1.43-2.11,2.6-2.22,11.1-1.09,22.26-2,33.23.64,4.22,1,6.74,4.79,8.77,8.57a227.63,227.63,0,0,0,13.44,21.25c1.53,2.22,2.68,5.08,6.12,5,2.26-2.95,0-5.26-1.22-7.6-3.32-6.12-6.58-12.29-10.17-18.26-2.84-4.75-3-9.43-1.48-14.69C773.64,603.38,777.16,595.64,777.28,587.1Z"/><path class="cls-3" d="M644.15,376.67l3,5.71c2.42,12.95,10.1,22.69,19.66,31,7.32,6.35,15.07,12.28,23.76,16.79,23.18,4.6,39.24-9.67,55.8-21.73,17.43-12.7,26.52-30.91,30.18-51.84a31.54,31.54,0,0,0-.72-12.44c-2.35-9.79.36-18.25,5.59-26.29-7.74-2.57-15.4-.6-23.07.39-5.15,7.59-5.07,16.33-4.55,24.82.4,6.47,1,13,1.87,19.46.46,3.37,1.9,7.21-2.21,9.39s-8.09,1.5-11.79-2.53c2.08-.68,3.7.34,5.3.41,5.55.26,8.43-2.18,8.28-7.83a114.36,114.36,0,0,0-1.12-15.34c-1.38-8.42-.32-16.68,1.87-24.88.7-2.62,1.7-4.8,4-6.23,4-1.87,8.21-1.06,12.33-1.26,3.2-.16,6.55.37,9.23-2.08.6-11.73-1.5-23.25-2.63-34.85-2.06,1.47-1.43,3.59-1.29,5.24-2.33-6.36-6.32-12.11-10.24-17.89-2.29-3.37-5.34-4.24-9.08-2.19-25.38,13.91-51.7,11.46-78.15,4.19-14.09-3.88-14.11-4.19-14,10.87.09,11.46-1.79,22.21-8.77,31.77-3,4.06-5.17,4.74-9.5,1.55-4.9-3.62-10.61-1.67-13.63,3.64-4.61,8.09-3.65,22,3.25,27.19,2.16,1,3.54,0,4.34-1.93.52-1.27.65-3.16,2.45-1.13.94,1.07,2.74,2.63,0,3.65a4.44,4.44,0,0,0-3,5.53c1,3.61-.29,6.77-.9,10.09,1.56,2.8,2,5.59,0,8.38C639.5,370.52,642.16,373.48,644.15,376.67Z"/><path class="cls-4" d="M665.09,702.25c-11.28.38-22.55.8-33.83,1.12-2.73.08-5.57.45-8-1.26-1.76-2.3-2.28-5.15-3.48-7.71-9.35-15-19.12-29.65-29.47-43.95-1.24-1.7-2.34-4.37-5.43-2.77C577.64,675,565.46,700.19,553,725.3c-.81,3.16,1.86,3.84,3.7,5,4.52,2.75,9.11,5.38,13.81,7.82,3.13,1.61,4.92,3.72,1.33,6.76-3.29,3.23-6.6,6.45-9.76,9.79-6.56,6.94-14,9.46-23,5-1.56,5.18-5.67,10-2.53,15.89,1.07-3.24,3.51-4.4,6.7-5,11.77-2.39,23.15-.39,34.5,2.55,16,4.13,31.24,10.72,47.49,13.89a88.57,88.57,0,0,0,31.23.68c8.78-1.41,15.18-5.65,17.6-14.58,1.86,0,2.3,1.53,3.13,2.57,6.26,7.87,12,9.47,21.53,6,1.82-.66,3.46-2.79,5.66-.82.21-1.69.74-3.24,2.38-4,7.44-3.6,6-8.87,3.67-15.2-6.31-17.21-13.17-34.37-13-53.2,0-2.58-.13-5.16,1.4-7.44-10.69-.67-21.28.76-31.92,1.4-.78,6.85,1.38,13.48,1.65,18.75C666.7,715.91,668.45,708.66,665.09,702.25Z"/><path class="cls-5" d="M638.68,341.62c-6.34-7.65-6.27-16.36-3.38-25.08,2.37-7.16,9.63-8.34,13.87-2.16,3.1,4.52,4.39,2.79,6.94-.17,8.35-9.64,12.1-20.84,12.1-33.44,0-5.1,0-10.19,0-15.78,11.94,3.84,23.53,7.15,35.62,8.51,19.71,2.23,38.68.63,56-9.9,3.27-2,4.37-.59,5.86,1.85,4,6.5,8.08,12.91,12.7,20.26.22-3.54.37-6,.52-8.4a135.8,135.8,0,0,0-3.61-22c-8.32-34.07-33.17-48.63-64.86-55.46-6.26-1.35-12.85.27-18.84-2.6-23-.49-43.11,6.33-58.81,23.91,1.8,2.84-1,4.18-2.05,6-29,48.85-23.39,103.6,11.13,148.09a8.34,8.34,0,0,0,2.25,1.47q-1.5-5.44-3-10.88c-.39-1.2-1.58-1.89-1.9-3.12-.43-2.22,1.86-3.78,1.48-6C641,351.51,641.69,346.31,638.68,341.62Z"/><path class="cls-6" d="M548.91,474.83C534,490.77,519.08,507,508.81,526.27c-20.76,39-37.41,80.05-55.21,120.5a95.88,95.88,0,0,1-6.14,11.54c-2.76,4.46-2.59,8.25,1.63,11.61a57.47,57.47,0,0,1,41.06-2.35c1.76.31,3.52.86,5.3.07,2.37-2.22,1.54-4.93.42-7.11-2.51-4.88-.86-9,1.53-13.2,12.68-22.37,26.78-43.75,44.12-62.85a54,54,0,0,1,6-6.33c4.87-5.81,10.32-11.15,14.18-17.78,5.63-26.56,4.56-52.65-5.7-78C554.64,479.09,553.78,475,548.91,474.83Z"/><path class="cls-4" d="M548.91,474.83c7.28,7.58,9,17.61,11.07,27.16a127.85,127.85,0,0,1,.31,55,27.2,27.2,0,0,0-.16,4.87c-1.1,1.81-1.43,3.46.93,4.57,30.53-13.63,61.61-26,92.35-39.18,6.39-2.74,13-5,19.11-8.42a5.47,5.47,0,0,0,1.07-1.91c.38-6.89,3-13.75.29-20.68a9.24,9.24,0,0,0-.79-2c-6.14-5.62-10-13.55-17.68-17.61-1.19-.06-2.59,0-3.16,1-3.8,6.57-6.26,4-10.1-.49a325.28,325.28,0,0,1-27.35-37.37C592.62,451.09,570.3,462.09,548.91,474.83Z"/><path class="cls-3" d="M784.42,651.86a145.54,145.54,0,0,1-18-27.07c-3.72-7-8.89-11-16.91-11-8.36,0-16.71.06-25.07,0-3.1,0-5.6.5-5.92,4.23,1.46,11.56,6.38,22.06,10.06,32.93a5.09,5.09,0,0,0,4.8,3.54c8-.2,15.34,3.16,23.08,4.25,4.63,12.37,9.6,24.62,13.8,37.14,7,20.91,22.9,31.43,42.59,37.8,4.54,1.47,9.22,1.06,13.84.32a7.35,7.35,0,0,0,6.52-6.41,81.36,81.36,0,0,0-1.25-33.85c-8.2-4.23-12.25,3.08-18,6.39-2.12-1-2-3.7-3.39-5.35A262.24,262.24,0,0,1,797,669.53C792.73,663.68,791.57,655.63,784.42,651.86Z"/><path class="cls-3" d="M495.55,667.28l-4.31-1.18c-3.92.57-7.73-.62-11.62-.67-9.4-.11-17.05,5.2-20.46,14.38l39.27,40.87c3.52,3.68,7.4,6.92,9.32,12,1.21,3.21,4.3,5.13,7.88,6.39,9.28,3.26,18.13,7.43,25.14,14.66,6.37,8.4,9.06,8.86,17.91,3.31,5.15-3.22,8.81-8.26,14.09-11.3,5.6-3.32,5.71-5,.16-8.34-6.58-3.9-13.3-7.56-20-11.32-4.8-5.11-11.32-7.28-17.55-9.63a18.42,18.42,0,0,1-9.1-7.1c-8.6-12.22-16.73-24.76-25.45-36.9C499.41,670.46,498.46,667.85,495.55,667.28Z"/><path class="cls-7" d="M632.82,221.12a7.23,7.23,0,0,0,4.76-2.53c13.23-13.39,30.11-18,48.09-20,2.09-.22,4.13-.3,6-1.43,9-15.19-1.43-33.25-20.24-35-6.58-.62-12.89.07-18.54,4.32-5.09,3.82-11.14,5.71-17.39,6.75-2.32.39-4.69.64-6.59,2.06-9,6.7-11.18,16.52-10.8,26.72C618.41,211.36,623.59,218.1,632.82,221.12Z"/><path class="cls-6" d="M784.42,651.86l11.09,17.81c3.79,7.61,11.17,12.92,13.64,21.42.38,1.29,1.82,2,3.25,2.33,6.62,0,12.62-4.85,19.54-2.48,3.42-9.14-2.15-16.06-5.73-23.52C813.09,640,794.54,616,779.38,589.81a25.85,25.85,0,0,0-2.1-2.71c-4.35,9.8-6.16,20.4-9.44,30.53-.8,2.48,1,4.42,2,6.49C774.3,633.58,780.65,642,784.42,651.86Z"/><path class="cls-8" d="M647,393.46c-2.34,9.06-2.65,18.74-8.18,26.83-10.14,11.23-12.66,9.3.93,23.77,8,8.5,15.77,17.14,21.67,27.28,3.66,7.74,5.68,16.24,10.84,23.27h-.07c.92,1,1.67,2.25,3.29,2.19,3.86-.63,7.07-2.74,10.42-4.54,1.55-1.06,3-2.29,4.41-3.45,6-4.81,7.29-8.8,4.33-16-3.31-8-6.33-16.06-9.14-24.22-7.65-.69-12.94-5.17-17.19-11.05a112.54,112.54,0,0,1-17.07-35.8C650.37,398.79,650.64,395.07,647,393.46Z"/><path class="cls-9" d="M618.92,695.17c0,3.2.93,5.83,4.29,6.94,2.46-16.1,7.44-31.6,11.21-47.38,7.34-30.69,14.85-61.34,22.32-92,2.71-11.1,7.45-14.76,18.59-14.9q51.69-.63,103.36-1.38c2.33,0,4.66,0,7,0,0-2.85-2.18-4.16-4.08-5.66-8.39-4-17.17-1.75-25.81-1.59-5.27,1.48-10.63.93-16,.67-8.5-2.16-16.93,1.14-25.45.34-3.64-.34-7.36.17-11.05,0-4.15-.25-8.31.25-12.46,0s-8,.15-12,.09c-1.92-.09-3.83,0-5.75.06-.74,0-1.48,0-2.22,0-7.88.45-13.91,4-18,10.83a36.86,36.86,0,0,0-1.92,6c-.35,2-1.05,3.91-1.5,5.88-.65,3-1.45,5.9-2.27,8.82-.65,2.7-1.36,5.39-2,8.09-1.16,4.92-2.4,9.82-3.8,14.68-6.62,30.26-15.1,60.06-21.85,90.28C618.77,688.32,617.5,691.67,618.92,695.17Z"/><path class="cls-6" d="M663.1,470.91c-7.19-13.26-18.15-23.5-28-34.57-3.46-3.88-4.13-6.28,0-9.54a10.75,10.75,0,0,0,3.75-6.51c-10.35,3.62-19.64,8.54-24,19.55,3.28,11.25,11.09,19.65,18.05,28.57,3.42,4.37,7.15,8.51,10.4,13,3.1,4.28,5.52,5,8.17-.3.78-1.55,1.69-3.45,4-3.39C658,475.41,661,473.71,663.1,470.91Z"/><path class="cls-10" d="M647,393.46c4.23,16,9.86,31.45,19.69,45.06A33.27,33.27,0,0,0,680,449.43c2.19,1,3.41.53,4.6-1.19,2.1-1.44.09-4,1.58-5.64.4-4.53,2.45-8.48,4.39-12.46-2.91-5.75-9.07-7.65-13.82-10.93-13.65-9.42-23.08-21.86-29.6-36.83Z"/><path class="cls-11" d="M783,504.37c3-6.85.61-14,1.34-21-3.48-2.08-6.35.49-9,1.69-13.46,6-27.36,11-40.77,17.18-2.32,1.07-4.86,1.66-5.59,4.59.07,3.05,1.87,4.64,4.58,5.46,9.09-1.25,16.82-6.22,25.2-9.41,5.83-2.21,11.57-4.7,17.33-7.11,1.71-.72,3.92-2.5,5,.95.32,2.35,0,4.8,1.21,7Z"/><path class="cls-12" d="M755,540.89l26.64-.1c0-3.23,0-6.47,0-9.71,1.25-2.56.44-5.27.55-7.92-1.13-2.13-3.17-2.07-4.83-1.36-8.51,3.63-17.51,6.19-25.25,11.52C751.05,536.6,751.77,539.22,755,540.89Z"/><path class="cls-13" d="M782.87,512.8c0-2.81.09-5.62.14-8.43l-.09,0c-2.82-2-5.42-.36-7.89.7-8.56,3.68-17.12,7.39-25.77,10.87-3,1.19-6.31,2.26-6.58,6.38a6.17,6.17,0,0,0,5.07,5.38A125.64,125.64,0,0,0,782.87,512.8Z"/><path class="cls-6" d="M686.15,442.6c-1.63,1.57-1,3.79-1.58,5.64.31,7.87,4,14.68,7,21.66,4.68,11,4.64,11.79-4.52,19.23a31.21,31.21,0,0,0-2.44,2.44,3.07,3.07,0,0,0,2.89,1c.86-.36-.21.15.67-.16,3.89-1.36,7.81-5.59,11.4-3.93,3.79,1.76,1,7.21,1.92,10.93.39,1.57.46,3.27,2.34,3.95a2.38,2.38,0,0,0,1.78-1.38c1.41-6.34,2.13-12.62-1.09-18.67-4.37-11.71-10.59-22.49-16.66-33.35A15.84,15.84,0,0,1,686.15,442.6Z"/><path class="cls-14" d="M782.87,512.8c-12.1,3.56-23.09,9.88-35,14-1.4,4,.29,6.2,4.22,7,7.43-3,14.88-6,22.28-9.06,2.33-1,4.46-2.45,7.16-2.15,1.51-1.61-.1-4,1.3-5.59C782.87,515.61,782.87,514.21,782.87,512.8Z"/><path class="cls-15" d="M784.38,481.93c2.4-2.31,1.26-5.25,1.3-7.92,0-3.39-2.24-3.83-4.76-2.76-15.11,6.39-30.18,12.88-45.26,19.34l-15.76,6.77a1.81,1.81,0,0,0-.17,1.92,4.38,4.38,0,0,0,3.56,1.82c11.68-3.69,22.81-8.8,34-13.73,7-3.08,14.22-5.48,21.25-8.44,1.25-.53,2.6-1.11,3.84.12A7.37,7.37,0,0,0,784.38,481.93Z"/><path class="cls-16" d="M459.16,679.81C466.42,667.2,479,667,491.24,666.1c-12.07-3.6-24.2-4.65-36.31-.34-2.21.78-5.32.81-5.84,4.16Z"/><path class="cls-17" d="M756.44,658.7a29.54,29.54,0,0,0-19.57-5.54c-4.42.24-6.66-1.38-8-5.71-3.15-9.92-6.86-19.66-10.34-29.47-2.12,1.89-1.84,4.39-.83,6.4,3.72,7.36,4.25,15.55,6.42,23.3,2.29,8.16,5.73,11.31,14.28,10.86,6.11-.32,11.18,2.05,16.44,4.31C755.35,661.46,755.9,660.08,756.44,658.7Z"/><path class="cls-18" d="M784.38,481.93c0-1.4,0-2.8,0-4.21-4.63-1.11-7.74,2.51-11.44,4-15.83,6.37-31.81,12.41-47.16,19.93a4.17,4.17,0,0,0-.86,1.87c.17,1.93,1.4,3.08,2.93,4a1.91,1.91,0,0,0,1.88-.3c1.09-3.12,4.17-2.46,6.41-3.41q24.14-10.2,48.23-20.46Z"/><path class="cls-4" d="M719.91,498.75c0-.46,0-.93,0-1.39l-15.42-14q0,9.82,0,19.64C710.84,506,715.34,502.25,719.91,498.75Z"/><path class="cls-19" d="M572.77,745.78c-4.87.85-7.84,4.61-11.46,7.4-9.08,7-9.77,7-20.54.59-.55,2-1.11,3.92-1.66,5.88,4.83,5.72,13.76,5.76,20.61-.42C564.35,755.06,568.44,750.28,572.77,745.78Z"/><path class="cls-20" d="M831.94,690.94c-2.17-3.45-5.24-2.94-8.44-1.93-3.69,1.17-7.4,2.31-11.09,3.47-1.15.7-3.57,0-2.92,2.68,1.16,3,2.31,5.93,3.63,9.34,5.1-6.38,10.4-11.44,18.82-10.8Z"/><path class="cls-21" d="M757.73,319.3l23.66-1.46c.42-1.88,1.14-3.76.18-5.68-7.94.56-16-.46-23.84,1.44A5.62,5.62,0,0,0,757.73,319.3Z"/><path class="cls-13" d="M782.86,517c-1.92,1.51-1.09,3.67-1.3,5.59,0,2.82,0,5.65.05,8.47C784.22,526.59,782.47,521.71,782.86,517Z"/><path class="cls-22" d="M665.09,702.25c1.61,6.49.8,13.42,4.37,19.62l-2.52-19.53Z"/><path class="cls-23" d="M705.68,395.6c9.64,8.2,20.68,11.43,33,10.6,3-.2,4.88-1.23,5.05-4.48.15-3-1-4.67-4.08-5.42C728.38,393.6,717.07,395.71,705.68,395.6Z"/><path class="cls-24" d="M757.73,319.3v-5.7c-5.32,9.5-6.72,19.86-5.21,30.36a132.16,132.16,0,0,1,1,16.7c.12,7.42-1.75,8.76-8.78,6.78-2.19-.62-4.37-1.26-6.77-1.95,2.16,8.06,7.29,11.61,14.13,9.54,4.38-1.32,7.76-3.12,6-9.52A93.52,93.52,0,0,1,757.73,319.3Z"/><path class="cls-25" d="M697.06,321.09c12.11-5.81,22.85-2.61,33.58-1.59,1.83.17,4.73,1.89,4.92-1.44.14-2.47-1.44-4.71-4.81-4.74-7.17-.07-14.34-.45-21.5-.63C704.13,312.56,700.43,314.87,697.06,321.09Z"/><path class="cls-26" d="M638.68,341.62l1.2,16.58a.93.93,0,0,0,1.11.63l.34-.66c1.24-3.21,3.1-6.14,1.65-10-.6-1.59-1.45-5.95,3.54-3.65,2.52,1.16,1.93-1.26,1.76-2.29a10.57,10.57,0,0,0-3.25-6.05c-1.27-1.21-2.77-1.9-4.42-.94-2.11,1.24,0,2.17.3,3.29C641.28,340.15,639.93,340.93,638.68,341.62Z"/><path class="cls-27" d="M637.54,364c.54,1.94,2.21,1.57,3.6,1.78,5.2-2.41,3.52-5,.19-7.62l.1.36C639.46,359.88,637.8,361.44,637.54,364Z"/><path class="cls-28" d="M585.27,644.79l.27,2.47c10.7,13.16,19.21,27.86,29,41.69q2.21,3.12,4.42,6.22,11.91-48.75,23.8-97.51a20.2,20.2,0,0,0,.22-3.49c-2.79-2.58-5.68-1.17-8.41,0-16.25,6.71-32.38,13.69-48.66,20.32-2.57,1-5.1,2.31-6,5.33A67.1,67.1,0,0,0,585.27,644.79Z"/><path class="cls-29" d="M671.06,749.78,673,765.69l2-.23c-1.36-5.17-.18-10.57-2.59-15.64C671.94,749.17,671.51,749.16,671.06,749.78Z"/><path class="cls-30" d="M671.83,741.41c-1.31-4.78-.21-10-2.84-14.57,1,4.82-.84,10,1.94,14.56Z"/><path class="cls-22" d="M675.18,757.91c.51,1.3,1,2.51,2.43,2.21a2.57,2.57,0,0,0,2.2-3c-.21-1.41-.93-2.86-2.71-2.34A2.91,2.91,0,0,0,675.18,757.91Z"/><path class="cls-31" d="M669.62,708.87c-.08,2.17.66,3,1.91,3a1.9,1.9,0,0,0,2-2.16c0-1.45-.54-2.74-2.26-2.54A1.92,1.92,0,0,0,669.62,708.87Z"/><path class="cls-30" d="M671.83,741.41h-.9q.06,4.19.13,8.38l1.29,0C672.17,747,672,744.21,671.83,741.41Z"/><path class="cls-32" d="M637.54,364c1.18-1.91,3.76-2.82,3.89-5.48l-1.55-.33C636.65,359.15,636.58,361.37,637.54,364Z"/><path class="cls-33" d="M540.57,582.94c3-.16,3.1,3.59,5.55,4.19,7-1.06,13-4.92,19.39-7.64a3.44,3.44,0,0,0,1.06-1.73,7.35,7.35,0,0,0-1.42-4.86,4.81,4.81,0,0,0-2.41-1.75c-6.18.3-10.9,4.54-16.57,6.2Z"/><path class="cls-34" d="M546.17,577.35c6.5.83,11.13-3.91,16.77-5.66a2.76,2.76,0,0,0,.79-2.6,4.51,4.51,0,0,0-2.19-3c-1.64-1-1.34-2.68-1.41-4.23C554.11,565.78,551.07,572.41,546.17,577.35Z"/><path class="cls-35" d="M561.54,566.09a3,3,0,0,0,1.39,2.82q50.93-21.58,102-42.87c2.77-1.16,5.69-2.2,7.75-4.62a2.68,2.68,0,0,0-.45-3c-10.35,2.13-19.54,7.35-29.18,11.28-25.42,10.39-50.61,21.34-75.9,32C564.81,562.65,561.93,562.75,561.54,566.09Z"/><path class="cls-36" d="M663.1,470.91c-3.76.9-7.05,2.34-7.66,6.8,6.24,5,10.16,12.3,16.79,16.9Q667.67,482.76,663.1,470.91Z"/><path class="cls-37" d="M675.19,496.18l-3-1.57c2.21,7.42-.15,14.87.19,22.31a2.23,2.23,0,0,0,3.43-.38C677.62,509.7,678.52,502.88,675.19,496.18Z"/><path class="cls-38" d="M675,517l-2.67-.07-.15,1.46,0,2.81a1.54,1.54,0,0,0-.4,1.66,2.72,2.72,0,0,0,5.15-.42,10.21,10.21,0,0,0-.33-5.61A1.17,1.17,0,0,0,675,517Z"/><path class="cls-39" d="M809.49,695.16l2.92-2.68c-.69-.59-1.9-1.1-2-1.76-1.36-9.62-9.6-14.29-14.91-21.05A113.07,113.07,0,0,0,809.49,695.16Z"/><path class="cls-4" d="M675,517l1.56.11a2.38,2.38,0,0,0,2,.26c6.33-2.79,12.83-5.19,19.08-8.17,2.51-1.19,5.24-2.23,4.8-5.85-3.62-5.42-7.17-10.94-14.52-11.74l-3.38,0-9.38,4.61Q675.1,506.59,675,517Z"/><path class="cls-40" d="M581.17,619.39c7.6-5.46,16.75-7.5,25.1-11.3,9.66-4.4,19.56-8.25,29.29-12.49a14.94,14.94,0,0,1,7.38-1.43c2.31-4.4,2.73-9.33,3.95-14-3.87-1.46-7.39.17-10.72,1.61q-26.25,11.31-52.69,22.15c-3.08,1.26-6,2.78-6.51,6.57a10.38,10.38,0,0,0,.21,3.29C578.28,615.8,577.5,619.18,581.17,619.39Z"/><path class="cls-41" d="M578.36,611c0-2.86,2-4,4.25-4.89,18.12-7.65,36.22-15.33,54.38-22.88,3.18-1.32,6.6-2.06,9.9-3.06l1.74-8.42c-3.38-1.57-6.4,0-9.35,1.26-19.13,8-38.3,16-57.44,24-2.57,1.07-5.3,1.92-7,4.39C574.35,605.17,573.5,609.12,578.36,611Z"/><path class="cls-42" d="M653.91,552.05c4.06-6,9.39-9.78,16.9-9.85a3.19,3.19,0,0,0,.45-4.09c-2.91-1.6-5.43,0-8,1.06q-43,17.75-85.68,36.08c-3.83,1.63-9,2-10.36,7.3a5.09,5.09,0,0,0,.79,3.21,4,4,0,0,0,1.94,1c8.3-1.44,15.6-5.62,23.25-8.78C613.58,569.63,634.07,561.6,653.91,552.05Z"/><path class="cls-43" d="M653.91,552.05c-9.09.39-16.42,5.73-24.45,9-17,6.84-33.6,14.43-50.8,20.66-3,1.1-5.22,4-8.72,4.06-2,2.5-.93,4.89.25,7.28a2.69,2.69,0,0,0,2.73,1.4c10.9-7.89,23.81-11.5,36-16.63,12-5.07,23.74-10.77,36-15.14a15.43,15.43,0,0,0,7.45-5Z"/><path class="cls-44" d="M575.55,601.15c15.18-6.18,30.31-12.5,45.56-18.51,9.18-3.61,17.92-8.34,27.52-10.92,1.8-2.51,1.7-5.57,2.41-8.4-2.42-1.1-4.5.1-6.62,1-21.39,9-42.76,17.94-64.06,27.1-2.75,1.17-5.74,2.07-7.19,5.11a5.13,5.13,0,0,0,.42,4.34A1.36,1.36,0,0,0,575.55,601.15Z"/><path class="cls-45" d="M574.15,597c10-6.5,21.39-9.9,32.17-14.65,14.82-6.53,29.81-12.68,44.72-19l1.35-5.67q-37.08,15.48-74.15,31c-2.47,1-5.45,1.9-5.48,5.51C571.84,595.76,571.83,596.94,574.15,597Z"/><path class="cls-6" d="M729.71,507.21l-1.39,0c-1.27-.56-1.72.28-2.12,1.23a10.6,10.6,0,0,0,.8,4.72c.85,2.33,2,4.54,2.74,6.94.39,1.18.81,2.36,1.2,3.55.92,2.71,2.26,5.27,3,8,1.16,3.83,2.54,7.54,5.63,10.31,5.14,0,10.39,1.5,15.35-1.07l-2.84-7.07c-1.82-2.08-3.86-4-4.22-7a8.79,8.79,0,0,1-4.17-4.21c-1.42-2.86-3.6-5.16-5.52-7.65a8.5,8.5,0,0,0-4.31-3.55A9.05,9.05,0,0,1,729.71,507.21Z"/><path class="cls-46" d="M731.12,519.8l-2.81-7c-6.92.33-12.4,4.54-18.44,7.12-12.28,5.24-25.09,9.31-36.63,16.23-.83,1.92-2.53,3.71-.83,6l5.49,0C695.86,535.18,713.62,527.81,731.12,519.8Z"/><path class="cls-47" d="M731.12,519.8c-11.46,1.45-21.26,7.51-31.64,11.83-7.34,3-15.52,4.67-21.58,10.46l12.62,0c11.69-3.87,22.63-9.59,34.16-13.87a17.28,17.28,0,0,0,7.82-5.59Z"/><path class="cls-48" d="M732.5,522.61q-18.86,8-37.69,16.1c-1.71.74-3.46,1.49-4.3,3.36l12.66-.05a39,39,0,0,0,14.41-4.76c5.54-3,11.72-4.46,17.73-6.24C734.37,528.21,733.44,525.41,732.5,522.61Z"/><path class="cls-49" d="M735.31,531c-7.16-2.4-12.7,2.44-18.61,4.72-4.57,1.75-8.94,4.35-13.53,6.28,9.66-.11,19.35,1.08,29-1a13.67,13.67,0,0,1,7.48.9Q737.46,536.48,735.31,531Z"/><path class="cls-50" d="M672.41,542.12l1.26-5.5a5.5,5.5,0,0,0,1.35-5,4.67,4.67,0,0,0-.9-1.94,2,2,0,0,0-2-.33,6,6,0,0,0-1.7,2.68c-.63,2.05-1.34,4.1.4,6,0,1.39,0,2.77,0,4.16Z"/><path class="cls-51" d="M736.75,515.58a21.2,21.2,0,0,0,7,7c0-2.3,1.77-3.18,3.47-3.81,12-4.44,23.36-10.74,35.72-14.4,0-2.81,0-5.62,0-8.43-2.21-1.07-4.07.19-6,1q-16.72,7-33.42,14.05C741,512.06,738.4,513.11,736.75,515.58Z"/><path class="cls-52" d="M736.75,515.58,783,496c.17-5.27-2.52-4.17-5.75-2.79-14.41,6.15-28.87,12.16-43.31,18.23Z"/><path class="cls-53" d="M701.67,503c-.08,2.86-2.25,3.33-4.33,4.48-6.33,3.47-13.88,4.35-19.49,9.29a10.89,10.89,0,0,0,.74,1.89c1.78,4.09,4.75,3.53,8.07,2.19,13.06-5.24,26.17-10.38,38.84-16.52,0-.47,0-.93,0-1.39-.19-1.68-1.6-2.13-2.8-2.81l-2.78-1.42c-5.38.52-9.72,4.85-15.42,4.21h-1.44C702.54,502.27,702.08,502.33,701.67,503Z"/><path class="cls-54" d="M701.67,503a12.79,12.79,0,0,0,1.38-.09c0-4.43-.14-8.86.09-13.28.27-5.16-2.08-5.76-5.77-3.36-3,2-7.44,1.51-9.43,5.29C693.23,494.56,697.08,499.25,701.67,503Z"/><path class="cls-55" d="M722.69,500.17l2.8,2.81c13.47-4.65,26.1-11.36,39.62-15.93,6.7-2.27,12.85-6.17,19.25-9.33-.86-4.62-3.41-1.62-5.07-.94C760.4,484.51,741.55,492.36,722.69,500.17Z"/><path class="cls-56" d="M725.5,504.37c-1.74.1-3.24-.93-5.28.17-10.81,5.8-22.51,9.62-33.65,14.66-3.91,1.77-5.64.86-7.53-2.1-1.59,1.48-1.29,3.84-2.54,5.48L673.8,524c-1.82,1.75-1.65,3.61-.3,5.53l.31,1.39c3.74,1.11,6.77-1.08,9.89-2.35,12.46-5.08,24.81-10.44,37.2-15.69,2.3-1,4.94-1.6,6-4.34l1.41-1.4A4.84,4.84,0,0,0,725.5,504.37Z"/><path class="cls-57" d="M581.17,619.39c-2.27-1.21-.54-4.41-2.81-5.62-4.15,1.06-9,1.13-9.76,7,5.52,8,10.17,16.7,16.67,24.07C585.2,636.11,581.82,628,581.17,619.39Z"/><path class="cls-58" d="M568.6,620.72c2-4,7.21-3.65,9.76-7V611a21.44,21.44,0,0,1-2.81-9.82h-1.39c-4.54,2.37-11.19,1.57-12.68,8.5C563,613.9,565.69,617.38,568.6,620.72Z"/><path class="cls-59" d="M561.48,609.65c2.56-5.33,10.08-3.23,12.68-8.5,0-1.4,0-2.79,0-4.19a3,3,0,0,1-1.39-2.82l-1.41-1.41c-6-1.28-10.25,2.53-15,5-1.36.71-1.45,2.17-.51,3.51A16.3,16.3,0,0,0,561.48,609.65Z"/><path class="cls-60" d="M568.55,585.72c0-.93,0-1.86,0-2.79-1.67-.92.8-4.58-2.79-4.22-7.15,1.37-13.52,4.59-19.63,8.42a30.2,30.2,0,0,0,5.61,8.43C556.76,591.29,564.22,591.19,568.55,585.72Z"/><path class="cls-61" d="M568.55,585.72c-5.32,3.78-13.66,2.37-16.82,9.84,1.15,2.06,1.74,4.54,4.16,5.67,3.75-5.39,10.28-5.71,15.46-8.5l-1.41-7Z"/><path class="cls-62" d="M672.38,522.81l-.15-1.62q-32.79,13.62-65.58,27.24c-12.65,5.28-25.2,10.77-37.9,15.92-2.51,1-4.59,2.12-5.82,4.56,0,.93,0,1.85,0,2.78l1.41,1.41c13.09-3.53,25.09-9.83,37.52-15,23-9.54,45.89-19.39,69-28.74a7.7,7.7,0,0,0,1.74-1.17A7.56,7.56,0,0,0,672.38,522.81Z"/><path class="cls-63" d="M565.75,578.71l2.79,4.22c5.27-6.43,13.45-7.51,20.39-10.64,19.38-8.73,39.3-16.22,58.7-25,7.52-3.4,15.36-6.44,23.19-9.27q.64-2.82,1.28-5.64c-2.75-2.22-5.36-.57-7.83.49-30.77,13.19-61.74,25.87-92.55,39-2.62,1.12-5,2.47-6,5.44Z"/><path class="cls-56" d="M565.76,577.3c10.71-6.54,22.66-10.33,34.07-15.3,16.29-7.1,32.62-14.16,49.17-20.59,7.7-3,14.7-7.85,23.11-9,.1-.95.21-1.89.32-2.84.46-.62.34-1.07-.38-1.36-9-.19-15.95,5.58-23.88,8.41-13.61,4.85-26.83,10.88-40,16.88-14.56,6.64-30.1,11.09-43.82,19.61Z"/><path class="cls-31" d="M676.5,522.58c4.1-.32,2.72-3.18,2.54-5.48a4.41,4.41,0,0,1-1.19-.29l-1.27.29A4.24,4.24,0,0,0,676.5,522.58Z"/><path class="cls-64" d="M672.05,528.2c.13.45.25.91.38,1.36l.54,0,.53,0,.3-5.53-1.42-1.23Z"/><path class="cls-63" d="M726.91,508.57,673.81,531c0,1.89-.09,3.78-.14,5.67,18.39-7.53,37.16-14.21,54.64-23.83C727.85,511.38,727.38,510,726.91,508.57Z"/></svg>