<svg id="Calque_1" data-name="Calque 1" xmlns="http://www.w3.org/2000/svg" xmlns:xlink="http://www.w3.org/1999/xlink" viewBox="0 0 1280 1024"><defs><style>.cls-1{fill:#a67c52;}.cls-2{fill:#8c6239;}.cls-3{fill:#603813;}.cls-4{fill:url(#Dégradé_sans_nom_11);}</style><linearGradient id="Dégradé_sans_nom_11" x1="698.64" y1="781.88" x2="791.79" y2="781.88" gradientUnits="userSpaceOnUse"><stop offset="0.18" stop-color="#48153f"/><stop offset="1" stop-color="#65143e"/></linearGradient></defs><path d="M1011.56,775.89c0,7.23-2.69,11.24-9.66,13.62Q827,849.2,652.19,909.43c-9,3.09-16.36,2.74-25-.24Q452.85,849,278.31,789.4c-7.2-2.47-9.87-7.29-9.87-14.7q.17-223.19.13-446.38c0-24.78-1.83-22.88,22.2-30.71,81.28-26.5,162.41-53.49,243.64-80.18,33.32-10.94,66.67-21.82,100.18-32.16,4.6-1.42,10.55-.64,15.29.91q115.3,37.59,230.44,75.66,61.21,20.09,122.52,39.84c6.79,2.19,8.7,6.79,8.69,13.48q-.16,115.6-.06,231.21Q1011.47,661.12,1011.56,775.89ZM989.21,760.8q-.19-211.36-.11-422.73c0-2.67-.22-5.33-.35-8.27a28.33,28.33,0,0,0-4,.67c-28.27,9.3-56.46,18.85-84.84,27.8-5.64,1.78-5.65,5.06-5.64,9.45,0,30.66-.08,61.31.1,92,0,7.92-2.41,13.48-10.38,16.24-36.87,12.75-73.66,25.77-110.55,38.46-10.35,3.56-17-1.51-17.13-12.61-.16-15.75,0-31.5,0-47.25V405.91c-3.57,1-6.26,1.61-8.87,2.47-28.81,9.47-57.53,19.19-86.44,28.32-7,2.21-9.31,5.31-9.3,12.9q.42,212.21.21,424.41v10.48c3.44-1,5.58-1.44,7.65-2.15Q820.78,827,982.12,771.77C988.37,769.64,989.21,766.42,989.21,760.8ZM962.39,313.63c-4.64-1.79-6.87-2.77-9.16-3.52C861,279.8,768.43,250.38,676.67,218.67c-25.63-8.86-48.78-11.06-73.22.69-7.11,3.42-15,5.26-23.43,8.14,1.81,1,2.27,1.37,2.78,1.56Q730.09,283.48,877.41,337.8c2.72,1,6.28,1.48,9,.63C911,330.63,935.42,322.48,962.39,313.63Zm-91.65,136.1c.32-23.32.19-46.64.19-70v-11.4L780.2,398.22v89.22c29.33-10.18,57.95-20,86.41-30.24C868.67,456.45,870.71,452.32,870.74,449.73Zm-25-98.39c-2.67-1.21-4.12-2-5.65-2.55Q694.41,294.91,548.65,241.15a13.24,13.24,0,0,0-7.94-.55c-24.78,7.87-49.47,16-75.16,24.41a29.65,29.65,0,0,0,3.41,2.05q146.57,54,293.16,107.92c2.73,1,6.27,1.57,8.91.73C795.61,367.92,820.08,359.77,845.77,351.34ZM731.26,388.85c-1.53-.79-2-1.11-2.52-1.3Q581.4,333.18,434,279c-3.56-1.3-8.37-1-12.08.19-26.24,8.27-52.35,16.94-78.48,25.55-7.61,2.5-15.16,5.19-25.11,8.61,3.89,1.46,5.17,2,6.49,2.43q155.2,51,310.46,101.79c3.37,1.1,7.78.72,11.25-.39C672.2,409,697.76,400.48,723.35,392,725.8,391.22,728.16,390.11,731.26,388.85ZM628.9,448.58c0-6.87-2.13-9.74-8.54-11.82Q460.22,384.64,300.22,332.11c-2.47-.81-5-1.33-8.24-2.17v10.4q0,209.64-.21,419.28c0,7.5,2.12,10.6,9.14,13Q453.13,824.53,605.15,877c7.37,2.54,14.8,4.91,23.58,7.82V874.61Q628.73,661.6,628.9,448.58Z"/><path class="cls-1" d="M989.1,338.07q0,211.37.11,422.73c0,5.62-.84,8.84-7.09,11q-161.42,55-322.64,110.57c-2.07.71-4.21,1.19-7.65,2.15V874q0-212.21-.21-424.41c0-7.59,2.29-10.69,9.3-12.9,28.91-9.13,57.63-18.85,86.44-28.32,2.61-.86,5.3-1.49,8.87-2.47v48.62c0,15.75-.12,31.5,0,47.25.11,11.1,6.78,16.17,17.13,12.61,36.89-12.69,73.68-25.71,110.55-38.46,8-2.76,10.42-8.32,10.38-16.24-.18-30.66-.05-61.31-.1-92,0-4.39,0-7.67,5.64-9.45,28.38-8.95,56.57-18.5,84.84-27.8a28.33,28.33,0,0,1,4-.67C988.88,332.74,989.1,335.4,989.1,338.07ZM814.64,791.28c.94-19.61.76-39.3.27-58.94-.23-8.91-7.56-13.55-15.92-10.7Q741.69,741.16,684.51,761c-6.3,2.17-9.48,6.52-9.39,13.34.13,9.26,0,18.53,0,27.8,0,9.55-.2,19.1.06,28.64.25,9.27,7.24,14.5,16,11.54,38.22-13,76.43-26,114.39-39.67C809.58,801.19,814.45,795.31,814.64,791.28Z"/><path class="cls-2" d="M953.23,310.11c2.29.75,4.52,1.73,9.16,3.52-27,8.85-51.44,17-76,24.8-2.67.85-6.23.37-9-.63Q730.05,283.56,582.8,229.06c-.51-.19-1-.54-2.78-1.56,8.46-2.88,16.32-4.72,23.43-8.14,24.44-11.75,47.59-9.55,73.22-.69C768.43,250.38,861,279.8,953.23,310.11Z"/><path class="cls-2" d="M870.93,379.77c0,23.32.13,46.64-.19,70,0,2.59-2.07,6.72-4.13,7.47-28.46,10.26-57.08,20.06-86.41,30.24V398.22l90.73-29.85Z"/><path class="cls-1" d="M840.12,348.79c1.53.56,3,1.34,5.65,2.55-25.69,8.43-50.16,16.58-74.74,24.37-2.64.84-6.18.27-8.91-.73Q615.5,321.15,469,267.06a29.65,29.65,0,0,1-3.41-2.05c25.69-8.39,50.38-16.54,75.16-24.41a13.24,13.24,0,0,1,7.94.55Q694.42,294.85,840.12,348.79Z"/><path class="cls-3" d="M814.91,732.34c.49,19.64.67,39.33-.27,58.94-.19,4-5.06,9.91-9.06,11.36-38,13.69-76.17,26.7-114.39,39.67-8.73,3-15.72-2.27-16-11.54-.26-9.54-.06-19.09-.06-28.64,0-9.27.09-18.54,0-27.8-.09-6.82,3.09-11.17,9.39-13.34Q741.73,741.27,799,721.64C807.35,718.79,814.68,723.43,814.91,732.34ZM791.5,779.68c.47-10,.22-20.09.22-31.1-30.44,10.43-60.05,20.55-89.62,30.79-1.34.47-3.26,2-3.29,3.13-.25,10.67-.15,21.34-.15,32.67,30.44-10.34,59.32-20.09,88.11-30.12C788.8,784.35,791.41,781.59,791.5,779.68Z"/><path class="cls-4" d="M791.72,748.58c0,11,.25,21.07-.22,31.1-.09,1.91-2.7,4.67-4.73,5.37-28.79,10-57.67,19.78-88.11,30.12,0-11.33-.1-22,.15-32.67,0-1.09,2-2.66,3.29-3.13C731.67,769.13,761.28,759,791.72,748.58Z"/><path class="cls-2" d="M728.74,387.55c.52.19,1,.51,2.52,1.3-3.1,1.26-5.46,2.37-7.91,3.18-25.59,8.45-51.15,17-76.83,25.13-3.47,1.11-7.88,1.49-11.25.39Q480,366.87,324.81,315.76c-1.32-.44-2.6-1-6.49-2.43,9.95-3.42,17.5-6.11,25.11-8.61,26.13-8.61,52.24-17.28,78.48-25.55,3.71-1.18,8.52-1.49,12.08-.19Q581.45,333,728.74,387.55Z"/><path class="cls-1" d="M620.36,436.76c6.41,2.08,8.55,4.95,8.54,11.82q-.33,213-.17,426v10.17c-8.78-2.91-16.21-5.28-23.58-7.82q-152.1-52.23-304.24-104.35c-7-2.39-9.15-5.49-9.14-13q.42-209.64.21-419.28v-10.4c3.21.84,5.77,1.36,8.24,2.17Q460.29,384.48,620.36,436.76ZM389.23,754.24c7.81,2.42,14.34-3.42,14.11-13.85-1.41-1.54-3.66-6.15-7.15-7.46-17.55-6.62-35.36-12.57-53.22-18.3-6.21-2-11.32,1.06-13.4,7-2,5.81-.67,11.72,5.67,14C353.11,742.25,371.06,748.61,389.23,754.24Z"/><path class="cls-3" d="M403.34,740.39c.23,10.43-6.3,16.27-14.11,13.85-18.17-5.63-36.12-12-54-18.53-6.34-2.32-7.7-8.23-5.67-14,2.08-6,7.19-9,13.4-7,17.86,5.73,35.67,11.68,53.22,18.3C399.68,734.24,401.93,738.85,403.34,740.39Z"/></svg>