<svg id="Calque_1" data-name="Calque 1" xmlns="http://www.w3.org/2000/svg" xmlns:xlink="http://www.w3.org/1999/xlink" viewBox="0 0 1280 1024"><defs><style>.cls-1,.cls-2,.cls-3{stroke:#5dcad1;stroke-miterlimit:10;stroke-width:4.78px;}.cls-1{fill:url(#Dégradé_sans_nom_19);}.cls-2{fill:url(#Dégradé_sans_nom_19-2);}.cls-3{fill:url(#Dégradé_sans_nom_19-3);}</style><linearGradient id="Dégradé_sans_nom_19" x1="268.44" y1="548.06" x2="1011.56" y2="548.06" gradientUnits="userSpaceOnUse"><stop offset="0.65" stop-color="#5dcad1"/><stop offset="0.92" stop-color="#5db4d1"/></linearGradient><linearGradient id="Dégradé_sans_nom_19-2" x1="328.69" y1="734.4" x2="403.35" y2="734.4" xlink:href="#Dégradé_sans_nom_19"/><linearGradient id="Dégradé_sans_nom_19-3" x1="675.09" y1="781.97" x2="815.31" y2="781.97" xlink:href="#Dégradé_sans_nom_19"/></defs><path class="cls-1" d="M1011.47,546.37q0,114.75.09,229.52c0,7.23-2.69,11.24-9.66,13.62Q827,849.2,652.19,909.43c-9,3.09-16.36,2.74-25-.24Q452.85,849,278.31,789.4c-7.2-2.47-9.87-7.29-9.87-14.7q.17-223.19.13-446.38c0-24.78-1.83-22.88,22.2-30.71,81.28-26.5,162.41-53.49,243.64-80.18,33.32-10.94,66.67-21.82,100.18-32.16,4.6-1.42,10.55-.64,15.29.91q115.3,37.59,230.44,75.66,61.21,20.09,122.52,39.84c6.79,2.19,8.7,6.79,8.69,13.48Q1011.37,430.77,1011.47,546.37ZM628.73,884.78V874.61q0-213,.17-426c0-6.87-2.13-9.74-8.54-11.82Q460.22,384.64,300.22,332.11c-2.47-.81-5-1.33-8.24-2.17v10.4q0,209.64-.21,419.28c0,7.5,2.12,10.6,9.14,13Q453.13,824.53,605.15,877C612.52,879.5,620,881.87,628.73,884.78Zm23.1-.29c3.44-1,5.58-1.44,7.65-2.15Q820.78,827,982.12,771.77c6.25-2.13,7.09-5.35,7.09-11q-.19-211.36-.11-422.73c0-2.67-.22-5.33-.35-8.27a28.33,28.33,0,0,0-4,.67c-28.27,9.3-56.46,18.85-84.84,27.8-5.64,1.78-5.65,5.06-5.64,9.45,0,30.66-.08,61.31.1,92,0,7.92-2.41,13.48-10.38,16.24-36.87,12.75-73.66,25.77-110.55,38.46-10.35,3.56-17-1.51-17.13-12.61-.16-15.75,0-31.5,0-47.25V405.91c-3.57,1-6.26,1.61-8.87,2.47-28.81,9.47-57.53,19.19-86.44,28.32-7,2.21-9.31,5.31-9.3,12.9q.42,212.21.21,424.41ZM318.32,313.33c3.89,1.46,5.17,2,6.49,2.43q155.2,51,310.46,101.79c3.37,1.1,7.78.72,11.25-.39C672.2,409,697.76,400.48,723.35,392c2.45-.81,4.81-1.92,7.91-3.18-1.53-.79-2-1.11-2.52-1.3Q581.4,333.18,434,279c-3.56-1.3-8.37-1-12.08.19-26.24,8.27-52.35,16.94-78.48,25.55C335.82,307.22,328.27,309.91,318.32,313.33ZM465.55,265a29.65,29.65,0,0,0,3.41,2.05q146.57,54,293.16,107.92c2.73,1,6.27,1.57,8.91.73,24.58-7.79,49.05-15.94,74.74-24.37-2.67-1.21-4.12-2-5.65-2.55Q694.41,294.91,548.65,241.15a13.24,13.24,0,0,0-7.94-.55C515.93,248.47,491.24,256.62,465.55,265Zm496.84,48.62c-4.64-1.79-6.87-2.77-9.16-3.52C861,279.8,768.43,250.38,676.67,218.67c-25.63-8.86-48.78-11.06-73.22.69-7.11,3.42-15,5.26-23.43,8.14,1.81,1,2.27,1.37,2.78,1.56Q730.09,283.48,877.41,337.8c2.72,1,6.28,1.48,9,.63C911,330.63,935.42,322.48,962.39,313.63ZM780.2,398.22v89.22c29.33-10.18,57.95-20,86.41-30.24,2.06-.75,4.1-4.88,4.13-7.47.32-23.32.19-46.64.19-70v-11.4Z"/><path class="cls-2" d="M403.34,740.39c.23,10.43-6.3,16.27-14.11,13.85-18.17-5.63-36.12-12-54-18.53-6.34-2.32-7.7-8.23-5.67-14,2.08-6,7.19-9,13.4-7,17.86,5.73,35.67,11.68,53.22,18.3C399.68,734.24,401.93,738.85,403.34,740.39Z"/><path class="cls-3" d="M675.16,802.13c0-9.27.09-18.54,0-27.8-.09-6.82,3.09-11.17,9.39-13.34Q741.73,741.27,799,721.64c8.36-2.85,15.69,1.79,15.92,10.7.49,19.64.67,39.33-.27,58.94-.19,4-5.06,9.91-9.06,11.36-38,13.69-76.17,26.7-114.39,39.67-8.73,3-15.72-2.27-16-11.54C675,821.23,675.16,811.68,675.16,802.13Zm116.56-53.55c-30.44,10.43-60.05,20.55-89.62,30.79-1.34.47-3.26,2-3.29,3.13-.25,10.67-.15,21.34-.15,32.67,30.44-10.34,59.32-20.09,88.11-30.12,2-.7,4.64-3.46,4.73-5.37C792,769.65,791.72,759.59,791.72,748.58Z"/></svg>