<svg id="Calque_1" data-name="Calque 1" xmlns="http://www.w3.org/2000/svg" xmlns:xlink="http://www.w3.org/1999/xlink" viewBox="0 0 1280 1024"><defs><style>.cls-1{fill:url(#Dégradé_sans_nom_19);}.cls-2{fill:url(#Dégradé_sans_nom_19-2);}.cls-3{fill:url(#Dégradé_sans_nom_19-3);}.cls-4{fill:url(#Dégradé_sans_nom_19-4);}.cls-5{fill:url(#Dégradé_sans_nom_19-5);}.cls-6{fill:url(#Dégradé_sans_nom_19-6);}</style><linearGradient id="Dégradé_sans_nom_19" x1="351.33" y1="499.38" x2="881.15" y2="499.38" gradientUnits="userSpaceOnUse"><stop offset="0.65" stop-color="#5dcad1"/><stop offset="0.92" stop-color="#5db4d1"/></linearGradient><linearGradient id="Dégradé_sans_nom_19-2" x1="466.64" y1="254.57" x2="765.45" y2="254.57" xlink:href="#Dégradé_sans_nom_19"/><linearGradient id="Dégradé_sans_nom_19-3" x1="466.72" y1="337.34" x2="765.34" y2="337.34" xlink:href="#Dégradé_sans_nom_19"/><linearGradient id="Dégradé_sans_nom_19-4" x1="466.52" y1="420.31" x2="765.4" y2="420.31" xlink:href="#Dégradé_sans_nom_19"/><linearGradient id="Dégradé_sans_nom_19-5" x1="466.66" y1="585.81" x2="765.4" y2="585.81" xlink:href="#Dégradé_sans_nom_19"/><linearGradient id="Dégradé_sans_nom_19-6" x1="466.72" y1="503.12" x2="766.15" y2="503.12" xlink:href="#Dégradé_sans_nom_19"/></defs><path class="cls-1" d="M351.33,856.85V141.57H881V150q0,277.38.12,554.77c0,5.75-1.65,9.59-5.92,13.52-48.47,44.61-96.7,89.49-145.18,134.09-2.73,2.51-7.1,4.58-10.71,4.58q-181.46.35-362.92.18C355.05,857.18,353.68,857,351.33,856.85ZM708,683.93H849.09v-511H382.78V825.12H708Zm32.48,32.48v83.23l89.37-83.23Z"/><path class="cls-2" d="M765.45,239.19V270H466.64V239.19Z"/><path class="cls-3" d="M466.72,321.72H765.34V353H466.72Z"/><path class="cls-4" d="M466.52,435.59V405H765.4v30.56Z"/><path class="cls-5" d="M765.4,570.36v30.89H466.66V570.36Z"/><path class="cls-6" d="M765.89,519H466.72V487.84c3.08-.16,6-.45,9-.45q140.3,0,280.6-.17c7.45,0,10.52,1.73,9.76,9.61C765.35,503.9,765.89,511.08,765.89,519Z"/></svg>