<svg id="Calque_1" data-name="Calque 1" xmlns="http://www.w3.org/2000/svg" viewBox="0 0 1280 1024"><defs><style>.cls-1{fill:#e6e6e6;}.cls-2{fill:none;}.cls-2,.cls-3{stroke:#50bf00;stroke-miterlimit:10;}</style></defs><path d="M881.15,704.81c0,5.75-1.65,9.59-5.92,13.52-48.47,44.61-96.7,89.49-145.18,134.09-2.73,2.51-7.1,4.58-10.71,4.58q-181.46.35-362.92.18c-1.37,0-2.74-.17-5.09-.33V141.57H881V150Q881,427.42,881.15,704.81Zm-32.06-20.88v-511H382.78V825.12H708V683.93Zm-19.23,32.48H740.49v83.23Z"/><path class="cls-1" d="M849.09,172.88V683.93H708V825.12H382.78V172.88Z"/><path class="cls-1" d="M740.49,716.41h89.37l-89.37,83.23Z"/><path class="cls-2" d="M708,683.93H849.09v-511H382.78V825.12H708Z"/><path class="cls-2" d="M740.49,716.41v83.23l89.37-83.23Z"/><path class="cls-3" d="M765.45,239.19V270H466.64V239.19Z"/><path class="cls-3" d="M466.72,321.72H765.34V353H466.72Z"/><path class="cls-3" d="M466.52,435.59V405H765.4v30.56Z"/><path class="cls-3" d="M765.4,570.36v30.89H466.66V570.36Z"/><path class="cls-3" d="M765.89,519H466.72V487.84c3.08-.16,6-.45,9-.45q140.3,0,280.6-.17c7.45,0,10.52,1.73,9.76,9.61C765.35,503.9,765.89,511.08,765.89,519Z"/></svg>