<svg id="Calque_1" data-name="Calque 1" xmlns="http://www.w3.org/2000/svg" viewBox="0 0 1280 1024"><defs><style>.cls-1{fill:#6c9400;}.cls-2{fill:#d40005;}.cls-3{fill:#ff7e2a;}.cls-4{fill:#007f00;}.cls-5{fill:#089400;}</style></defs><path class="cls-1" d="M363.83,791.59c2.73.11,5.31,4,11.13,8.7-20.22,4.56-35.54,8.64-51.11,11.06-3.63.57-8.14-4.49-12.25-7,2.89-4.34,5.44-12.09,8.71-12.41C334.7,790.59,349.32,791,363.83,791.59Z"/><path class="cls-1" d="M374.81,719c-5.75,4.43-8.6,8.49-11.64,8.64-14.05.68-28.23,1.08-42.17-.31-3.53-.35-6.38-7.64-9.54-11.75,3.93-2.79,8.31-8.43,11.72-7.89C339.17,710.18,354.9,714.41,374.81,719Z"/><path class="cls-1" d="M363.64,749.12v20.7c-24.17,0-47.27.55-70.29-.47-4.48-.19-8.7-6.46-13-9.92,4-3.44,7.85-9.68,12-9.85C315.73,748.62,339.25,749.12,363.64,749.12Z"/><path d="M914.11,584.11c2.78,44-3.92,85.36-32.09,118.88,9.1,10.41,19.31,18.77,25.25,29.49,19.71,35.51-2.51,79.17-43.85,86-64.12,10.62-128.43,20.11-192.68,30-56.17,8.64-112.34,17.35-168.56,25.67-46.13,6.83-84.46-7.64-113.38-44.42-5.82-7.39-10.66-9.16-19.34-6.48-10.82,3.34-22.15,5-33.23,7.53-32.24,7.34-47.08-5-45.24-37.74-23.24-7.82-32.72-17.91-32.23-34.35.47-16,10.22-25.85,31.56-32,.88-36.14,13.23-45.57,49.08-37.49,3.55.8,7.31,1,10.64,2.33,19.87,7.79,34.83,6.07,49.55-13.29,8.81-11.6,11.61-19.11,5.7-31.28a105.41,105.41,0,0,1-7-19.19c-4.26-16.23-10.76-27.9-29.35-34.07-24.55-8.14-37.25-34.19-36.44-60.14a29.68,29.68,0,0,0-5.57-17.78C313.08,498,309,478.67,313.67,456.74c.85-4-1.14-10.43-4.15-13.17-45.41-41.35-37-111.7,16.83-140.27a28.43,28.43,0,0,0,11.3-12.06c10-20.71,25.58-33.55,48.19-38.4a24.93,24.93,0,0,0,12.87-7.91c30.52-36.41,82.39-31.77,106.59,9.46,2.26,3.84,7.64,7.52,12,8.15,15.42,2.22,28.77,7.74,39.9,18.84,3.1,3.1,7.38,5.08,11.24,7.37s8.92,3.49,11.79,6.67c8.7,9.65,15,22.47,25.28,29.42,9.91,6.67,25,5.36,35.56,11.4,28,15.94,37.73,51.64,23.24,80.94-3.43,6.92-2.84,11.6-.28,18.62,4.53,12.41,6.4,25.8,9.45,39.09l23.06-11.81c-1.24-15.47-2.91-31.66-3.74-47.89-1.43-28.22,16.41-47.54,42.72-46.9,26.62.66,43.53,21.7,40.62,50.25-1.51,14.85-2.61,29.74-3.85,43.93,7.44,3.82,13.64,7.71,20.37,10.12,3,1.07,7.55.07,10.53-1.57,19.91-11,36.88-10.19,54.46,3.88C892.62,502.89,911.28,539.41,914.11,584.11Zm-46.17,103c23.76-31.69,27.13-67.6,24.59-105.14s-19.55-67.6-48.59-91c-9.49-7.66-19.64-8.53-31.26-.23,50,63.59,44.73,133,26.08,204.79C850.47,701.38,859.25,698.68,867.94,687.09Zm-8.45,110.58c23.43-4,36-21.83,33-43.91-2.45-18.09-16.24-30.13-37.75-33.43q-122-18.71-244.06-37.55c-42.24-6.47-84.52-12.75-121-18.24-29.48-.8-53.66,7.87-71.16,23.25a95.12,95.12,0,0,0-23.34,113.12c18.67,39.28,61.22,59.55,107.22,52.23,75-11.92,150.07-23.17,225.1-34.75C771.48,811.6,815.58,805.17,859.49,797.67ZM821,677.88c12.5-35.36,10.41-71.66,6.13-107.75-3.67-31-19.48-56.28-43-76.59-3.73-3.21-8.44-5.29-12.7-7.89l-3.28,2.41c1.62,5.6,1.53,12.91,5.13,16.52,20.81,20.81,17.15,39.61-11.23,49.14-11,3.68-22.86,4.58-35.57,7-4.26,36.33-5,73.36,1.61,110.2.73,4.06,6.75,9.37,11.07,10.2,20,3.87,40.64,5.08,60.43,9.81C813,694.12,817.26,688.43,821,677.88ZM755.26,417.93c1-10.07.8-20.62-9.35-24.8-6.65-2.74-16.21-2.56-23,.11-9.8,3.87-9.94,14-8.8,23.58,1.18,9.93,1.91,19.92,2.76,29.89,2,23.38,3.94,46.76,5.8,68.8L703,525.64c16,15.87,47.29,15.87,63.2.16L747,515.65c0-2.22-.17-4.46,0-6.67C749.72,478.63,752.33,448.26,755.26,417.93ZM704.43,675.72V553.85l-4.6-2.76c-22.61-13.52-23.7-28.35-4.6-46.23,3.75-3.51,3.79-11,5.53-16.62l-3.89-1.89c-3.27,2.14-6.74,4-9.79,6.47-42.35,33.68-64.49,119.3-43.51,168.79,1,2.45,3.85,5.43,6.23,5.83C668.3,670.58,686.91,673.14,704.43,675.72Zm-71.52-251c14.17-13.83,23.15-31.71,12.53-53.36C633.57,347.14,612.09,344.48,588,350c-.79-3.41-1.28-5.54-1.78-7.66-5.15-21.79-17.7-34.5-36.6-37.08-18.13-2.47-33.15,6.49-44.51,25-2.13,3.48-8.05,6.32-12.36,6.52-21.64,1-37.16,11.55-41.84,32.14-2,8.6-6.3,11.56-13.53,14.42-24.68,9.76-38.88,28.32-40.73,54.74-1.81,25.82,9.49,45.64,31.6,59.19,4.1,2.51,8.22,5,12.31,7.44-17.77,30.21-16.63,50.75,4.75,66.2,8,5.8,8.12,10.5,5.74,19-7.24,25.66,9.73,50,36.26,53.45,7.65,1,15.33,1.79,23,2.85,16,2.22,32,4.55,47.36,6.74-.9-22.8-3.84-44.17-1.94-65.1,1.61-17.82-6.42-25-20.69-29-17.77-4.9-35.79-8.89-53.6-13.26V526.06c12.79,1.92,24.5,3.07,35.93,5.56,11.26,2.45,22.23,6.25,33.55,9.53-17.13-60.15-13.35-75.42-100.69-78.82-.64-6.05-1.3-12.22-2-19.35,12.17,0,23.41-.73,34.51.21,10.85.93,21.55,3.57,34.69,5.88l-34.25-65,18.15-11.19c14.6,28.1,28.79,55.39,42,80.79l45.15-64.25,14.34,17.82c-51.84,60.92-50.67,86-32,114.92,20.08-27.8,37.35-59.27,82.24-59.51Zm24.19,67.67c-12.42-9.75-20.61-9.87-32.46-1-52.55,39.51-56.5,108.4-42,159.58.78,2.78,4.16,6.18,6.89,6.8,10,2.26,20.27,3.47,31.35,5.22C615.2,600.66,612.2,541.27,657.1,492.35ZM521.67,283.87l-28.89,1.68c-.7-2.54-1.38-4.65-1.87-6.8-4.9-21.61-16.7-33.88-35.25-36.59-19.56-2.85-34.2,5.47-45.83,24.84-1.91,3.19-7.18,6-11,6.15-21.85.68-38,10.93-42.63,31.12C354,314,349,317.28,341,320.49,312.34,332,296.73,360.8,302.3,390.93c4.57,24.69,21,39.36,42.66,49.2-18.4,41.72-17.34,47.36,14.07,75.41-.49,1.57-1,3.28-1.56,5-9.91,31.64,5.35,54.87,38.18,59.35,4,.54,9.17,5.09,10.72,9,8.46,21.42,16,43.23,24.08,65.69l17-6.71c-14.92-16.84-22.08-35.75-18.94-58,.32-2.25-1.07-5.43-2.73-7.16-19.66-20.46-23.49-44.17-14.5-69.92a27,27,0,0,0-2.26-2.71c-51.19-44.45-44.18-111.36,15-144.47a21.44,21.44,0,0,0,8.44-9.61c9.62-22.23,26.2-35.37,49.87-39.87,2.59-.49,5.75-.74,7.52-2.35C500.15,304.48,510.15,294.78,521.67,283.87ZM375,800.29c-5.82-4.7-8.4-8.59-11.13-8.7-14.51-.59-29.13-1-43.52.4-3.27.32-5.82,8.07-8.71,12.41,4.11,2.46,8.62,7.52,12.25,7C339.42,808.93,354.74,804.85,375,800.29ZM363.17,727.6c3-.15,5.89-4.21,11.64-8.64-19.91-4.55-35.64-8.78-51.63-11.31-3.41-.54-7.79,5.1-11.72,7.89,3.16,4.11,6,11.4,9.54,11.75C334.94,728.68,349.12,728.28,363.17,727.6Zm.47,42.22v-20.7c-24.39,0-47.91-.5-71.37.46-4.11.17-8,6.41-12,9.85,4.34,3.46,8.56,9.73,13,9.92C316.37,770.37,339.47,769.82,363.64,769.82Z"/><path class="cls-2" d="M892.53,582c2.54,37.54-.83,73.45-24.59,105.14-8.69,11.59-17.47,14.29-29.18,8.4,18.65-71.77,23.93-141.2-26.08-204.79,11.62-8.3,21.77-7.43,31.26.23C873,514.35,890,544.32,892.53,582Z"/><path class="cls-3" d="M892.45,753.76c3,22.08-9.53,39.91-33,43.91-43.91,7.5-88,13.93-132,20.72-75,11.58-150.12,22.83-225.1,34.75-46,7.32-88.55-12.95-107.22-52.23a95.12,95.12,0,0,1,23.34-113.12c17.5-15.38,41.68-24,71.16-23.25,36.49,5.49,78.77,11.77,121,18.24q122,18.71,244.06,37.55C876.21,723.63,890,735.67,892.45,753.76ZM828.7,780V739.76H809.21V780Zm-84.56,10.37V728.55H724.77v61.84Zm-84.65,21.55V707.59H640V811.94Zm-84.65,0V707.63H555.43V812Zm-84.85.35V707.36H471.33V812.31Z"/><path d="M828.7,739.76V780H809.21V739.76Z"/><path class="cls-2" d="M827.12,570.13c4.28,36.09,6.37,72.39-6.13,107.75-3.73,10.55-8,16.24-21.43,13-19.79-4.73-40.39-5.94-60.43-9.81-4.32-.83-10.34-6.14-11.07-10.2-6.59-36.84-5.87-73.87-1.61-110.2,12.71-2.4,24.61-3.3,35.57-7,28.38-9.53,32-28.33,11.23-49.14-3.6-3.61-3.51-10.92-5.13-16.52l3.28-2.41c4.26,2.6,9,4.68,12.7,7.89C807.64,513.85,823.45,539.14,827.12,570.13Z"/><path class="cls-4" d="M745.91,393.13c10.15,4.18,10.32,14.73,9.35,24.8-2.93,30.33-5.54,60.7-8.23,91.05-.2,2.21,0,4.45,0,6.67l19.18,10.15c-15.91,15.71-47.2,15.71-63.2-.16l19.72-10.13c-1.86-22-3.81-45.42-5.8-68.8-.85-10-1.58-20-2.76-29.89-1.14-9.57-1-19.71,8.8-23.58C729.7,390.57,739.26,390.39,745.91,393.13Z"/><path d="M744.14,728.55v61.84H724.77V728.55Z"/><path class="cls-2" d="M704.43,553.85V675.72c-17.52-2.58-36.13-5.14-54.63-8.28-2.38-.4-5.19-3.38-6.23-5.83-21-49.49,1.16-135.11,43.51-168.79,3-2.42,6.52-4.33,9.79-6.47l3.89,1.89c-1.74,5.65-1.78,13.11-5.53,16.62-19.1,17.88-18,32.71,4.6,46.23Z"/><path d="M659.49,707.59V811.94H640V707.59Z"/><path class="cls-5" d="M645.44,371.32c10.62,21.65,1.64,39.53-12.53,53.36l20.09,38c-44.89.24-62.16,31.71-82.24,59.51-18.68-28.89-19.85-54,32-114.92l-14.34-17.82-45.15,64.25c-13.21-25.4-27.4-52.69-42-80.79l-18.15,11.19,34.25,65c-13.14-2.31-23.84-4.95-34.69-5.88-11.1-.94-22.34-.21-34.51-.21.75,7.13,1.41,13.3,2,19.35,87.34,3.4,83.56,18.67,100.69,78.82-11.32-3.28-22.29-7.08-33.55-9.53-11.43-2.49-23.14-3.64-35.93-5.56v19.56C499.23,550,517.25,554,535,558.88c14.27,4,22.3,11.17,20.69,29-1.9,20.93,1,42.3,1.94,65.1-15.34-2.19-31.34-4.52-47.36-6.74-7.65-1.06-15.33-1.87-23-2.85-26.53-3.42-43.5-27.79-36.26-53.45,2.38-8.46,2.29-13.16-5.74-19-21.38-15.45-22.52-36-4.75-66.2-4.09-2.47-8.21-4.93-12.31-7.44-22.11-13.55-33.41-33.37-31.6-59.19,1.85-26.42,16.05-45,40.73-54.74,7.23-2.86,11.58-5.82,13.53-14.42,4.68-20.59,20.2-31.15,41.84-32.14,4.31-.2,10.23-3,12.36-6.52,11.36-18.54,26.38-27.5,44.51-25,18.9,2.58,31.45,15.29,36.6,37.08.5,2.12,1,4.25,1.78,7.66C612.09,344.48,633.57,347.14,645.44,371.32Z"/><path class="cls-2" d="M624.64,491.4c11.85-8.92,20-8.8,32.46,1C612.2,541.27,615.2,600.66,620.92,663c-11.08-1.75-21.34-3-31.35-5.22-2.73-.62-6.11-4-6.89-6.8C568.14,599.8,572.09,530.91,624.64,491.4Z"/><path d="M574.84,707.63V812H555.43V707.63Z"/><path class="cls-5" d="M492.78,285.55l28.89-1.68c-11.52,10.91-21.52,20.61-31.85,29.94-1.77,1.61-4.93,1.86-7.52,2.35-23.67,4.5-40.25,17.64-49.87,39.87a21.44,21.44,0,0,1-8.44,9.61c-59.14,33.11-66.15,100-15,144.47a27,27,0,0,1,2.26,2.71c-9,25.75-5.16,49.46,14.5,69.92,1.66,1.73,3,4.91,2.73,7.16-3.14,22.2,4,41.11,18.94,58l-17,6.71c-8.12-22.46-15.62-44.27-24.08-65.69-1.55-3.9-6.72-8.45-10.72-9-32.83-4.48-48.09-27.71-38.18-59.35.54-1.71,1.07-3.42,1.56-5-31.41-28-32.47-33.69-14.07-75.41-21.63-9.84-38.09-24.51-42.66-49.2-5.57-30.13,10-59,38.68-70.44,8-3.21,13-6.54,15.23-16.22,4.64-20.19,20.78-30.44,42.63-31.12,3.81-.12,9.08-3,11-6.15,11.63-19.37,26.27-27.69,45.83-24.84,18.55,2.71,30.35,15,35.25,36.59C491.4,280.9,492.08,283,492.78,285.55Z"/><path d="M490,707.36V812.31H471.33V707.36Z"/></svg>