<svg id="Calque_1" data-name="Calque 1" xmlns="http://www.w3.org/2000/svg" xmlns:xlink="http://www.w3.org/1999/xlink" viewBox="0 0 1280 1024"><defs><style>.cls-1{fill:url(#Dégradé_sans_nom_19);}.cls-2{fill:url(#Dégradé_sans_nom_19-2);}.cls-3{fill:url(#Dégradé_sans_nom_19-3);}.cls-4{fill:url(#Dégradé_sans_nom_19-4);}.cls-5{fill:url(#Dégradé_sans_nom_19-5);}.cls-6{fill:url(#Dégradé_sans_nom_19-6);}</style><linearGradient id="Dégradé_sans_nom_19" x1="258.74" y1="548.06" x2="914.69" y2="548.06" gradientUnits="userSpaceOnUse"><stop offset="0.65" stop-color="#5dcad1"/><stop offset="0.92" stop-color="#5db4d1"/></linearGradient><linearGradient id="Dégradé_sans_nom_19-2" x1="639.97" y1="759.76" x2="659.49" y2="759.76" xlink:href="#Dégradé_sans_nom_19"/><linearGradient id="Dégradé_sans_nom_19-3" x1="471.33" y1="759.84" x2="489.99" y2="759.84" xlink:href="#Dégradé_sans_nom_19"/><linearGradient id="Dégradé_sans_nom_19-4" x1="555.43" y1="759.8" x2="574.84" y2="759.8" xlink:href="#Dégradé_sans_nom_19"/><linearGradient id="Dégradé_sans_nom_19-5" x1="724.77" y1="759.47" x2="744.14" y2="759.47" xlink:href="#Dégradé_sans_nom_19"/><linearGradient id="Dégradé_sans_nom_19-6" x1="809.21" y1="759.89" x2="828.7" y2="759.89" xlink:href="#Dégradé_sans_nom_19"/></defs><path class="cls-1" d="M290.32,726.73c.88-36.14,13.23-45.57,49.08-37.49,3.55.8,7.31,1,10.64,2.33,19.87,7.79,34.83,6.07,49.55-13.29,8.81-11.6,11.61-19.11,5.7-31.28a105.41,105.41,0,0,1-7-19.19c-4.26-16.23-10.76-27.9-29.35-34.07-24.55-8.14-37.25-34.19-36.44-60.14a29.68,29.68,0,0,0-5.57-17.78C313.08,498,309,478.67,313.67,456.74c.85-4-1.14-10.43-4.15-13.17-45.41-41.35-37-111.7,16.83-140.27a28.43,28.43,0,0,0,11.3-12.06c10-20.71,25.58-33.55,48.19-38.4a24.93,24.93,0,0,0,12.87-7.91c30.52-36.41,82.39-31.77,106.59,9.46,2.26,3.84,7.64,7.52,12,8.15,15.42,2.22,28.77,7.74,39.9,18.84,3.1,3.1,7.38,5.08,11.24,7.37s8.92,3.49,11.79,6.67c8.7,9.65,15,22.47,25.28,29.42,9.91,6.67,25,5.36,35.56,11.4,28,15.94,37.73,51.64,23.24,80.94-3.43,6.92-2.84,11.6-.28,18.62,4.53,12.41,6.4,25.8,9.45,39.09l23.06-11.81c-1.24-15.47-2.91-31.66-3.74-47.89-1.43-28.22,16.41-47.54,42.72-46.9,26.62.66,43.53,21.7,40.62,50.25-1.51,14.85-2.61,29.74-3.85,43.93,7.44,3.82,13.64,7.71,20.37,10.12,3,1.07,7.55.07,10.53-1.57,19.91-11,36.88-10.19,54.46,3.88,35,28,53.61,64.51,56.44,109.21,2.78,44-3.92,85.36-32.09,118.88,9.1,10.41,19.31,18.77,25.25,29.49,19.71,35.51-2.51,79.17-43.85,86-64.12,10.62-128.43,20.11-192.68,30-56.17,8.64-112.34,17.35-168.56,25.67-46.13,6.83-84.46-7.64-113.38-44.42-5.82-7.39-10.66-9.16-19.34-6.48-10.82,3.34-22.15,5-33.23,7.53-32.24,7.34-47.08-5-45.24-37.74-23.24-7.82-32.72-17.91-32.23-34.35C259.23,742.74,269,732.86,290.32,726.73Zm199.31-62.19c-29.48-.8-53.66,7.87-71.16,23.25a95.12,95.12,0,0,0-23.34,113.12c18.67,39.28,61.22,59.55,107.22,52.23,75-11.92,150.07-23.17,225.1-34.75,44-6.79,88.13-13.22,132-20.72,23.43-4,36-21.83,33-43.91-2.45-18.09-16.24-30.13-37.75-33.43q-122-18.71-244.06-37.55C568.4,676.31,526.12,670,489.63,664.54ZM588,350c-.79-3.41-1.28-5.54-1.78-7.66-5.15-21.79-17.7-34.5-36.6-37.08-18.13-2.47-33.15,6.49-44.51,25-2.13,3.48-8.05,6.32-12.36,6.52-21.64,1-37.16,11.55-41.84,32.14-2,8.6-6.3,11.56-13.53,14.42-24.68,9.76-38.88,28.32-40.73,54.74-1.81,25.82,9.49,45.64,31.6,59.19,4.1,2.51,8.22,5,12.31,7.44-17.77,30.21-16.63,50.75,4.75,66.2,8,5.8,8.12,10.5,5.74,19-7.24,25.66,9.73,50,36.26,53.45,7.65,1,15.33,1.79,23,2.85,16,2.22,32,4.55,47.36,6.74-.9-22.8-3.84-44.17-1.94-65.1,1.61-17.82-6.42-25-20.69-29-17.77-4.9-35.79-8.89-53.6-13.26V526.06c12.79,1.92,24.5,3.07,35.93,5.56,11.26,2.45,22.23,6.25,33.55,9.53-17.13-60.15-13.35-75.42-100.69-78.82-.64-6.05-1.3-12.22-2-19.35,12.17,0,23.41-.73,34.51.21,10.85.93,21.55,3.57,34.69,5.88l-34.25-65,18.15-11.19c14.6,28.1,28.79,55.39,42,80.79l45.15-64.25,14.34,17.82c-51.84,60.92-50.67,86-32,114.92,20.08-27.8,37.35-59.27,82.24-59.51l-20.09-38c14.17-13.83,23.15-31.71,12.53-53.36C633.57,347.14,612.09,344.48,588,350Zm-95.22-64.48c-.7-2.54-1.38-4.65-1.87-6.8-4.9-21.61-16.7-33.88-35.25-36.59-19.56-2.85-34.2,5.47-45.83,24.84-1.91,3.19-7.18,6-11,6.15-21.85.68-38,10.93-42.63,31.12C354,314,349,317.28,341,320.49,312.34,332,296.73,360.8,302.3,390.93c4.57,24.69,21,39.36,42.66,49.2-18.4,41.72-17.34,47.36,14.07,75.41-.49,1.57-1,3.28-1.56,5-9.91,31.64,5.35,54.87,38.18,59.35,4,.54,9.17,5.09,10.72,9,8.46,21.42,16,43.23,24.08,65.69l17-6.71c-14.92-16.84-22.08-35.75-18.94-58,.32-2.25-1.07-5.43-2.73-7.16-19.66-20.46-23.49-44.17-14.5-69.92a27,27,0,0,0-2.26-2.71c-51.19-44.45-44.18-111.36,15-144.47a21.44,21.44,0,0,0,8.44-9.61c9.62-22.23,26.2-35.37,49.87-39.87,2.59-.49,5.75-.74,7.52-2.35,10.33-9.33,20.33-19,31.85-29.94ZM726.45,560.7c-4.26,36.33-5,73.36,1.61,110.2.73,4.06,6.75,9.37,11.07,10.2,20,3.87,40.64,5.08,60.43,9.81,13.43,3.21,17.7-2.48,21.43-13,12.5-35.36,10.41-71.66,6.13-107.75-3.67-31-19.48-56.28-43-76.59-3.73-3.21-8.44-5.29-12.7-7.89l-3.28,2.41c1.62,5.6,1.53,12.91,5.13,16.52,20.81,20.81,17.15,39.61-11.23,49.14C751.06,557.4,739.16,558.3,726.45,560.7Zm-22-6.85-4.6-2.76c-22.61-13.52-23.7-28.35-4.6-46.23,3.75-3.51,3.79-11,5.53-16.62l-3.89-1.89c-3.27,2.14-6.74,4-9.79,6.47-42.35,33.68-64.49,119.3-43.51,168.79,1,2.45,3.85,5.43,6.23,5.83,18.5,3.14,37.11,5.7,54.63,8.28ZM812.68,490.7c50,63.59,44.73,133,26.08,204.79,11.71,5.89,20.49,3.19,29.18-8.4,23.76-31.69,27.13-67.6,24.59-105.14s-19.55-67.6-48.59-91C834.45,483.27,824.3,482.4,812.68,490.7ZM620.92,663c-5.72-62.34-8.72-121.73,36.18-170.65-12.42-9.75-20.61-9.87-32.46-1-52.55,39.51-56.5,108.4-42,159.58.78,2.78,4.16,6.18,6.89,6.8C599.58,660,609.84,661.25,620.92,663ZM703,525.64c16,15.87,47.29,15.87,63.2.16L747,515.65c0-2.22-.17-4.46,0-6.67,2.69-30.35,5.3-60.72,8.23-91.05,1-10.07.8-20.62-9.35-24.8-6.65-2.74-16.21-2.56-23,.11-9.8,3.87-9.94,14-8.8,23.58,1.18,9.93,1.91,19.92,2.76,29.89,2,23.38,3.94,46.76,5.8,68.8ZM363.64,769.82v-20.7c-24.39,0-47.91-.5-71.37.46-4.11.17-8,6.41-12,9.85,4.34,3.46,8.56,9.73,13,9.92C316.37,770.37,339.47,769.82,363.64,769.82ZM374.81,719c-19.91-4.55-35.64-8.78-51.63-11.31-3.41-.54-7.79,5.1-11.72,7.89,3.16,4.11,6,11.4,9.54,11.75,13.94,1.39,28.12,1,42.17.31C366.21,727.45,369.06,723.39,374.81,719Zm.15,81.33c-5.82-4.7-8.4-8.59-11.13-8.7-14.51-.59-29.13-1-43.52.4-3.27.32-5.82,8.07-8.71,12.41,4.11,2.46,8.62,7.52,12.25,7C339.42,808.93,354.74,804.85,375,800.29Z"/><path class="cls-2" d="M659.49,811.94H640V707.59h19.52Z"/><path class="cls-3" d="M490,812.31H471.33V707.36H490Z"/><path class="cls-4" d="M574.84,812H555.43V707.63h19.41Z"/><path class="cls-5" d="M724.77,728.55h19.37v61.84H724.77Z"/><path class="cls-6" d="M828.7,780H809.21V739.76H828.7Z"/></svg>