<?xml version="1.0" standalone="no"?>
<!DOCTYPE svg PUBLIC "-//W3C//DTD SVG 20010904//EN"
 "http://www.w3.org/TR/2001/REC-SVG-20010904/DTD/svg10.dtd">
<svg version="1.0" xmlns="http://www.w3.org/2000/svg"
 width="700.000000pt" height="500.000000pt" viewBox="0 0 631.000000 465.000000"
 preserveAspectRatio="xMidYMid meet">

<g transform="translate(0.000000,465.000000) scale(0.100000,-0.100000)"
fill="#4c023e" stroke="none">
<path d="M2470 3613 c0 -6 -23 -119 -51 -252 -72 -350 -62 -342 46 32 24 82
45 151 48 153 2 2 73 -18 158 -45 386 -123 921 -278 1389 -402 151 -40 276
-73 277 -74 2 -1 -31 -141 -72 -311 -162 -677 -358 -1635 -336 -1648 6 -4 546
2033 540 2038 -3 2 -1219 317 -1981 514 -10 2 -18 0 -18 -5z"/>
<path d="M2121 2609 c-167 -576 -280 -984 -275 -989 16 -15 2016 -582 2023
-574 11 13 113 483 108 497 -4 11 -64 -171 -117 -353 -12 -41 -23 -76 -25 -78
-2 -2 -131 40 -287 93 -430 146 -1496 475 -1541 475 -40 1 -39 14 27 261 142
534 275 1091 346 1449 17 85 33 165 35 178 3 12 2 22 -2 22 -5 0 -136 -441
-292 -981z"/>
<path d="M3490 2799 c-246 -64 -446 -242 -564 -500 l-31 -70 0 123 c0 119 -1
125 -33 190 -57 116 -169 195 -338 238 -111 29 -132 24 -41 -10 213 -79 343
-212 376 -384 27 -143 29 -172 15 -232 -22 -96 -16 -94 31 10 130 289 284 468
490 572 50 25 122 54 160 64 45 12 59 19 40 19 -16 0 -64 -9 -105 -20z"/>
<path d="M3747 2809 c-412 -43 -721 -328 -891 -818 -20 -57 -35 -105 -33 -107
2 -2 18 16 36 39 73 95 211 244 291 314 75 65 222 154 235 142 2 -3 -32 -31
-76 -64 -145 -107 -255 -240 -330 -400 -59 -126 -69 -118 134 -112 144 4 188
9 272 31 323 87 567 295 730 624 42 85 118 292 110 300 -12 12 -166 43 -255
52 -115 11 -111 11 -223 -1z"/>
<path d="M2321 2771 c-5 -9 -21 -50 -36 -91 -37 -99 -46 -271 -20 -369 33
-128 132 -284 239 -375 71 -60 197 -147 206 -141 14 9 33 167 27 229 -3 35
-15 87 -26 117 l-20 54 24 -28 c37 -42 59 -128 59 -239 l1 -97 22 66 c54 159
73 365 44 483 -51 208 -220 353 -465 399 -39 7 -48 6 -55 -8z"/>
</g>
</svg>
