<?xml version="1.0" standalone="no"?>
<!DOCTYPE svg PUBLIC "-//W3C//DTD SVG 20010904//EN"
 "http://www.w3.org/TR/2001/REC-SVG-20010904/DTD/svg10.dtd">
<svg version="1.0" xmlns="http://www.w3.org/2000/svg"
 width="796.000000pt" height="291.000000pt" viewBox="0 0 796.000000 291.000000"
 preserveAspectRatio="xMidYMid meet">

<g transform="translate(0.000000,291.000000) scale(0.100000,-0.100000)"
fill="#000000" stroke="none">
<path d="M6467 2288 c-15 -72 -25 -133 -23 -135 2 -2 18 48 36 112 18 63 37
115 41 115 5 0 127 -36 271 -79 145 -44 360 -105 478 -137 118 -31 216 -58
218 -59 1 -1 -20 -96 -47 -211 -85 -358 -179 -820 -168 -830 2 -2 68 239 146
537 79 297 141 543 138 545 -5 5 -1040 274 -1054 274 -6 0 -22 -59 -36 -132z"/>
<path d="M6455 2398 c-21 -62 -295 -1023 -295 -1033 0 -8 17 -19 38 -24 20 -6
263 -75 539 -154 l503 -144 9 36 c24 94 53 233 49 237 -3 2 -19 -44 -37 -104
-17 -59 -34 -113 -36 -119 -3 -9 -31 -3 -102 23 -115 41 -534 173 -745 235
-82 23 -148 47 -148 52 0 6 20 85 44 176 77 285 201 831 190 831 -3 0 -7 -6
-9 -12z"/>
<path d="M5597 2288 l-65 -93 45 -3 c25 -2 51 -1 57 1 7 3 49 46 95 96 l83 91
-75 0 -75 0 -65 -92z"/>
<path d="M1673 2156 c-104 -34 -195 -115 -241 -214 -23 -50 -26 -71 -26 -162
-1 -99 1 -109 31 -171 39 -80 111 -150 191 -187 51 -24 69 -27 167 -27 101 0
115 2 168 28 74 37 147 110 184 184 26 54 28 67 28 173 0 106 -2 120 -28 172
-37 76 -102 140 -184 180 -57 28 -78 33 -157 35 -57 2 -107 -2 -133 -11z m206
-102 c76 -22 163 -109 185 -183 20 -68 20 -113 1 -179 -21 -69 -69 -129 -135
-166 -50 -28 -63 -31 -140 -31 -101 0 -143 18 -208 88 -56 62 -74 108 -75 192
-2 202 178 337 372 279z"/>
<path d="M2330 2090 c0 -73 2 -80 20 -80 24 0 25 -18 5 -67 -15 -36 -15 -38 7
-55 36 -27 45 -22 67 37 16 42 21 79 21 150 l0 95 -60 0 -60 0 0 -80z"/>
<path d="M2907 2159 c-349 -82 -396 -584 -69 -737 52 -25 68 -27 177 -27 120
0 122 0 197 38 66 32 138 93 138 115 0 4 -18 19 -39 34 l-38 27 -29 -30 c-15
-16 -55 -43 -88 -59 -50 -26 -71 -30 -137 -30 -68 0 -85 4 -140 33 -172 89
-210 308 -78 452 110 120 320 122 434 5 l38 -39 38 27 c21 15 39 30 39 34 0
15 -63 78 -108 106 -26 17 -71 37 -101 46 -59 17 -172 20 -234 5z"/>
<path d="M750 1780 l0 -370 50 0 50 0 0 170 0 170 165 0 165 0 0 -170 0 -170
55 0 55 0 0 370 0 370 -55 0 -55 0 0 -150 0 -150 -165 0 -165 0 0 150 0 150
-50 0 -50 0 0 -370z"/>
<path d="M3725 2120 c-21 -41 -302 -634 -321 -677 l-14 -33 58 0 58 0 54 115
53 115 144 0 144 0 55 -115 56 -115 54 0 c30 0 54 3 54 8 -1 4 -76 169 -169
367 -181 389 -191 403 -226 335z m81 -274 c24 -51 44 -96 44 -100 0 -3 -42 -6
-94 -6 l-94 0 46 100 c25 55 48 100 50 100 2 0 23 -42 48 -94z"/>
<path d="M4200 1781 l0 -371 50 0 50 0 0 159 c0 88 4 162 9 166 5 3 67 -69
138 -160 l128 -165 62 0 c35 0 63 1 63 3 0 2 -54 73 -120 158 -66 85 -120 157
-120 160 0 4 18 9 41 13 48 8 107 36 131 63 78 86 58 240 -40 308 l-44 30
-174 3 -174 4 0 -371z m326 250 c69 -42 63 -146 -10 -176 -22 -10 -69 -15
-126 -15 l-90 0 0 105 0 105 98 0 c78 0 103 -4 128 -19z"/>
<path d="M4810 1781 l0 -371 50 0 50 0 0 166 c0 99 4 164 9 162 6 -1 66 -76
136 -165 l126 -163 65 0 66 0 -68 88 c-38 48 -95 121 -127 162 l-58 74 58 13
c112 26 168 91 168 198 0 80 -27 131 -90 170 -48 30 -50 30 -217 33 l-168 4 0
-371z m341 231 c20 -22 29 -43 29 -67 0 -24 -9 -45 -29 -67 -29 -33 -30 -33
-135 -36 l-106 -4 0 107 0 107 106 -4 c105 -3 106 -3 135 -36z"/>
<path d="M5410 1780 l0 -370 220 0 220 0 0 50 0 50 -170 0 -171 0 3 123 3 122
168 3 167 2 0 50 0 50 -170 0 -170 0 0 95 0 95 170 0 170 0 0 50 0 50 -220 0
-220 0 0 -370z"/>
<path d="M7088 1993 c6 -2 18 -2 25 0 6 3 1 5 -13 5 -14 0 -19 -2 -12 -5z"/>
<path d="M6995 1973 c-107 -43 -206 -140 -256 -248 l-19 -40 0 62 c0 74 -9
100 -49 146 -44 49 -113 79 -189 82 -59 2 -64 0 -77 -24 -44 -86 -39 -223 11
-309 53 -90 183 -207 206 -184 13 13 16 124 5 167 l-7 30 14 -25 c8 -14 18
-52 22 -85 l8 -60 12 40 c7 22 13 54 14 70 1 17 4 24 7 17 3 -7 25 27 49 76
69 138 170 239 283 283 25 10 37 18 26 18 -11 0 -38 -7 -60 -16z m-334 -114
c30 -43 49 -113 48 -178 l-2 -56 -7 71 c-9 88 -36 149 -86 199 -36 36 -37 37
-7 16 18 -12 42 -35 54 -52z"/>
<path d="M7091 1974 c-156 -42 -294 -175 -368 -356 -51 -125 -48 -126 55 -17
87 92 170 159 195 159 6 0 -11 -16 -35 -35 -67 -51 -135 -132 -168 -201 -17
-34 -30 -65 -30 -68 0 -3 35 -6 78 -6 96 0 211 28 295 72 85 44 192 154 240
245 33 64 77 173 77 193 0 13 -113 30 -199 29 -47 0 -110 -7 -140 -15z"/>
<path d="M1175 828 c-7 -20 -25 -130 -25 -150 0 -38 19 -16 29 35 22 112 23
127 12 127 -6 0 -14 -6 -16 -12z"/>
<path d="M1582 828 c-7 -7 -12 -18 -12 -25 0 -7 -7 -13 -15 -13 -17 0 -20 -17
-4 -22 7 -2 8 -19 1 -56 -7 -41 -6 -52 4 -52 8 0 15 19 19 48 4 26 15 53 24
60 13 11 14 14 2 21 -16 10 -6 31 15 31 8 0 14 5 14 10 0 14 -33 13 -48 -2z"/>
<path d="M2324 810 c-6 -25 -10 -29 -29 -24 -33 8 -65 -27 -65 -70 0 -42 17
-57 61 -53 32 2 33 4 45 67 7 36 13 75 13 88 1 33 -19 27 -25 -8z m-14 -73 c0
-51 -41 -80 -55 -38 -9 29 12 71 35 71 16 0 20 -7 20 -33z"/>
<path d="M2386 818 c-9 -36 -7 -41 9 -28 16 13 21 50 6 50 -5 0 -11 -10 -15
-22z"/>
<path d="M2476 824 c-10 -27 2 -29 24 -6 20 21 20 22 1 22 -10 0 -22 -7 -25
-16z"/>
<path d="M2675 818 c-13 -63 -26 -151 -21 -155 10 -10 26 9 26 32 0 41 18 77
38 73 18 -4 19 -10 9 -70 -4 -28 -2 -38 8 -38 15 0 32 101 20 120 -4 7 -19 10
-34 7 -25 -5 -27 -4 -23 24 5 34 -15 40 -23 7z"/>
<path d="M4518 813 c-2 -23 -7 -28 -29 -25 -34 4 -63 -30 -63 -73 0 -43 6 -48
53 -51 l39 -2 11 62 c7 33 14 73 17 89 4 20 2 27 -10 27 -9 0 -16 -11 -18 -27z
m-16 -83 c-3 -41 -15 -55 -36 -47 -19 8 -21 58 -4 75 23 23 43 9 40 -28z"/>
<path d="M730 826 c0 -2 -7 -40 -15 -83 -8 -43 -15 -79 -15 -80 0 -8 100 -1
105 7 4 6 -10 10 -34 10 -39 0 -40 1 -35 28 21 118 21 122 8 122 -8 0 -14 -2
-14 -4z"/>
<path d="M1360 809 c0 -7 -8 -18 -17 -25 -13 -9 -14 -13 -5 -14 11 0 12 -11 7
-50 -6 -41 -4 -51 10 -56 9 -4 21 -2 28 5 8 8 8 11 -2 11 -18 0 -8 79 11 92
10 7 10 11 1 14 -7 3 -9 12 -6 20 3 8 -1 14 -11 14 -9 0 -16 -5 -16 -11z"/>
<path d="M3760 809 c0 -7 -8 -18 -17 -25 -13 -9 -14 -13 -5 -14 11 0 12 -11 7
-50 -6 -41 -4 -51 10 -56 9 -4 21 -2 28 5 8 8 8 11 -2 11 -18 0 -8 79 11 92
10 7 10 11 1 14 -7 3 -9 12 -6 20 3 8 -1 14 -11 14 -9 0 -16 -5 -16 -11z"/>
<path d="M4840 809 c0 -7 -8 -18 -17 -25 -13 -9 -14 -13 -5 -14 11 0 12 -11 7
-50 -6 -41 -4 -51 10 -56 9 -4 21 -2 28 5 8 8 8 11 -2 11 -18 0 -8 79 11 92
10 7 10 11 1 14 -7 3 -9 12 -6 20 3 8 -1 14 -11 14 -9 0 -16 -5 -16 -11z"/>
<path d="M5560 809 c0 -7 -8 -18 -17 -25 -13 -9 -14 -13 -5 -14 11 0 12 -11 7
-50 -6 -41 -4 -51 10 -56 9 -4 21 -2 28 5 8 8 8 11 -2 11 -18 0 -8 79 11 92
10 7 10 11 1 14 -7 3 -9 12 -6 20 3 8 -1 14 -11 14 -9 0 -16 -5 -16 -11z"/>
<path d="M6950 809 c0 -7 -8 -18 -17 -25 -13 -9 -14 -13 -5 -14 11 0 12 -11 7
-50 -6 -41 -4 -51 10 -56 9 -4 21 -2 28 5 8 8 8 11 -2 11 -18 0 -8 79 11 92
10 7 10 11 1 14 -7 3 -9 12 -6 20 3 8 -1 14 -11 14 -9 0 -16 -5 -16 -11z"/>
<path d="M854 775 c-18 -14 -17 -15 15 -12 20 1 36 -3 38 -10 3 -8 -4 -13 -19
-13 -36 0 -60 -22 -56 -51 3 -21 8 -24 45 -25 38 -1 42 1 47 29 10 51 7 85
-10 91 -24 9 -39 7 -60 -9z m46 -70 c0 -9 -7 -18 -16 -22 -18 -7 -39 11 -30
26 11 17 46 13 46 -4z"/>
<path d="M1030 786 c0 0 -7 -39 -15 -86 -8 -47 -15 -86 -15 -87 0 -2 7 -3 15
-3 10 0 15 10 15 30 0 27 2 29 28 24 20 -4 33 0 46 15 18 20 26 84 13 98 -6 5
-87 15 -87 9z m68 -46 c4 -33 -20 -65 -42 -57 -18 7 -20 25 -6 62 13 33 44 30
48 -5z"/>
<path d="M1234 775 c-18 -14 -17 -15 15 -12 20 1 36 -3 38 -10 3 -8 -4 -13
-19 -13 -36 0 -60 -22 -56 -51 3 -21 8 -24 45 -25 38 -1 42 1 47 29 10 51 7
85 -10 91 -24 9 -39 7 -60 -9z m46 -70 c0 -9 -7 -18 -16 -22 -18 -7 -39 11
-30 26 11 17 46 13 46 -4z"/>
<path d="M1443 775 c-62 -43 -19 -136 51 -109 27 10 18 22 -16 20 -23 -1 -33
4 -36 17 -3 14 4 17 37 17 36 0 41 3 41 23 0 44 -37 60 -77 32z m55 -22 c2 -9
-7 -13 -28 -13 -28 0 -31 2 -20 15 15 18 41 16 48 -2z"/>
<path d="M1652 773 c-31 -27 -37 -65 -14 -93 17 -21 24 -23 48 -15 16 6 35 23
44 38 13 24 13 30 0 55 -19 33 -49 39 -78 15z m56 -39 c3 -34 -18 -60 -43 -50
-30 11 -9 90 23 84 11 -2 18 -15 20 -34z"/>
<path d="M1763 724 c-7 -49 -6 -64 3 -64 7 0 15 19 19 43 4 27 15 49 32 64
l26 21 -35 0 -35 0 -10 -64z"/>
<path d="M1843 724 c-7 -50 -6 -64 3 -64 7 0 16 19 19 43 9 56 19 72 40 63 14
-5 16 -14 10 -56 -7 -54 10 -73 20 -22 12 58 21 77 39 80 17 4 18 -1 13 -52
-4 -42 -2 -56 7 -56 9 0 16 19 20 52 9 64 -8 88 -48 70 -15 -6 -28 -7 -31 -2
-3 5 -23 9 -44 8 l-38 0 -10 -64z"/>
<path d="M2073 775 c-62 -43 -19 -136 51 -109 27 10 18 22 -16 20 -23 -1 -33
4 -36 17 -3 14 4 17 37 17 36 0 41 3 41 23 0 44 -37 60 -77 32z m55 -22 c2 -9
-7 -13 -28 -13 -28 0 -31 2 -20 15 15 18 41 16 48 -2z"/>
<path d="M2433 775 c-62 -43 -19 -136 51 -109 27 10 18 22 -16 20 -23 -1 -33
4 -36 17 -3 14 4 17 37 17 36 0 41 3 41 23 0 44 -37 60 -77 32z m55 -22 c2 -9
-7 -13 -28 -13 -28 0 -31 2 -20 15 15 18 41 16 48 -2z"/>
<path d="M2550 770 c-37 -37 -17 -110 30 -110 20 0 55 29 45 38 -3 3 -17 -1
-31 -8 -22 -12 -27 -12 -34 0 -10 16 -3 59 11 74 5 6 18 4 34 -4 30 -16 42 -8
20 14 -22 22 -51 20 -75 -4z"/>
<path d="M2813 783 c-26 -10 -12 -24 17 -18 23 5 30 3 30 -9 0 -10 -9 -16 -24
-16 -27 0 -56 -23 -56 -44 0 -22 23 -34 61 -34 36 0 36 0 42 51 4 31 2 56 -4
64 -11 13 -43 16 -66 6z m45 -75 c-6 -16 -36 -34 -44 -26 -3 4 -4 14 -1 23 7
17 51 21 45 3z"/>
<path d="M2913 724 c-7 -49 -6 -64 3 -64 7 0 15 19 19 43 8 47 20 67 42 67 13
0 14 -10 8 -55 -4 -36 -3 -55 4 -55 10 0 13 10 26 74 7 35 -11 53 -53 53 l-39
0 -10 -63z"/>
<path d="M3059 769 c-23 -23 -25 -81 -4 -99 8 -7 24 -10 35 -7 23 6 26 -5 6
-22 -9 -7 -25 -9 -43 -5 -25 7 -27 6 -14 -9 17 -21 55 -22 75 -1 17 16 20 27
34 110 l9 52 -39 0 c-26 1 -46 -6 -59 -19z m59 -35 c-3 -43 -32 -69 -48 -44
-16 26 9 80 37 80 10 0 13 -10 11 -36z"/>
<path d="M3203 775 c-62 -43 -19 -136 51 -109 27 10 18 22 -16 20 -23 -1 -33
4 -36 17 -3 14 4 17 37 17 36 0 41 3 41 23 0 44 -37 60 -77 32z m55 -22 c2 -9
-7 -13 -28 -13 -28 0 -31 2 -20 15 15 18 41 16 48 -2z"/>
<path d="M3328 779 c-29 -16 -22 -49 12 -60 17 -6 30 -15 30 -20 0 -15 -30
-23 -43 -10 -15 15 -27 14 -27 -4 0 -19 48 -31 69 -18 9 6 17 20 19 32 3 16
-4 24 -27 32 -17 6 -31 15 -31 20 0 16 30 22 45 9 20 -17 32 -5 15 15 -14 17
-37 19 -62 4z"/>
<path d="M3500 770 c-54 -54 6 -141 66 -95 18 14 17 15 -16 12 -26 -1 -35 2
-38 16 -3 14 4 17 37 17 34 0 41 3 41 19 0 25 -26 51 -51 51 -10 0 -28 -9 -39
-20z m60 -15 c0 -9 -9 -15 -25 -15 -24 0 -32 10 -18 23 12 13 43 7 43 -8z"/>
<path d="M3616 760 c-18 -90 -19 -103 -5 -98 8 3 17 24 21 48 9 50 20 65 43
57 11 -5 14 -14 10 -34 -15 -71 -15 -73 -1 -73 16 0 34 99 22 119 -4 5 -24 9
-46 8 -34 -1 -40 -5 -44 -27z"/>
<path d="M3826 761 c-17 -83 -18 -101 -7 -101 13 0 17 9 26 64 4 26 12 40 26
43 29 8 23 20 -11 20 -23 0 -30 -5 -34 -26z"/>
<path d="M3923 775 c-62 -43 -19 -136 51 -109 27 10 18 22 -16 20 -23 -1 -33
4 -36 17 -3 14 4 17 37 17 36 0 41 3 41 23 0 44 -37 60 -77 32z m55 -22 c2 -9
-7 -13 -28 -13 -28 0 -31 2 -20 15 15 18 41 16 48 -2z"/>
<path d="M4082 712 c-14 -92 -15 -102 -3 -102 5 0 12 13 16 30 6 25 10 29 30
24 33 -8 65 26 65 70 0 41 -14 54 -61 54 l-36 0 -11 -76z m78 25 c0 -34 -15
-57 -37 -57 -17 0 -17 62 -1 78 22 22 38 13 38 -21z"/>
<path d="M4226 761 c-17 -83 -18 -101 -7 -101 13 0 17 9 26 64 4 26 12 40 26
43 29 8 23 20 -11 20 -23 0 -30 -5 -34 -26z"/>
<path d="M4322 773 c-31 -27 -37 -65 -14 -93 17 -21 24 -23 48 -15 16 6 35 23
44 38 13 24 13 30 0 55 -19 33 -49 39 -78 15z m56 -39 c3 -34 -18 -60 -43 -50
-30 11 -9 90 23 84 11 -2 18 -15 20 -34z"/>
<path d="M4566 739 c-9 -63 3 -80 53 -76 36 2 36 3 45 60 4 32 5 61 2 65 -10
9 -26 -19 -26 -46 0 -32 -18 -62 -37 -62 -13 0 -15 9 -10 55 4 41 2 55 -7 55
-9 0 -16 -19 -20 -51z"/>
<path d="M4710 770 c-37 -37 -17 -110 30 -110 20 0 55 29 45 38 -3 3 -17 -1
-31 -8 -22 -12 -27 -12 -34 0 -10 16 -3 59 11 74 5 6 18 4 34 -4 30 -16 42 -8
20 14 -22 22 -51 20 -75 -4z"/>
<path d="M4910 770 c-54 -54 6 -141 66 -95 18 14 17 15 -16 12 -26 -1 -35 2
-38 16 -3 14 4 17 37 17 34 0 41 3 41 19 0 25 -26 51 -51 51 -10 0 -28 -9 -39
-20z m60 -15 c0 -9 -9 -15 -25 -15 -24 0 -32 10 -18 23 12 13 43 7 43 -8z"/>
<path d="M5025 757 c-4 -19 -5 -47 -3 -63 3 -26 7 -29 45 -31 40 -2 41 -1 47
35 4 20 9 49 12 65 4 19 2 27 -9 27 -9 0 -17 -18 -23 -52 -7 -43 -13 -53 -29
-53 -18 0 -20 6 -17 53 4 58 -13 73 -23 19z"/>
<path d="M5153 724 c-7 -49 -6 -64 3 -64 7 0 15 19 19 43 4 27 15 49 32 64
l26 21 -35 0 -35 0 -10 -64z"/>
<path d="M5258 779 c-29 -16 -22 -49 12 -60 17 -6 30 -15 30 -20 0 -15 -30
-23 -43 -10 -15 15 -27 14 -27 -4 0 -19 48 -31 69 -18 9 6 17 20 19 32 3 16
-4 24 -27 32 -17 6 -31 15 -31 20 0 16 30 22 45 9 20 -17 32 -5 15 15 -14 17
-37 19 -62 4z"/>
<path d="M5430 770 c-54 -54 6 -141 66 -95 18 14 17 15 -16 12 -26 -1 -35 2
-38 16 -3 14 4 17 37 17 34 0 41 3 41 19 0 25 -26 51 -51 51 -10 0 -28 -9 -39
-20z m60 -15 c0 -9 -9 -15 -25 -15 -24 0 -32 10 -18 23 12 13 43 7 43 -8z"/>
<path d="M5703 775 c-43 -30 -32 -115 15 -115 23 0 59 26 50 36 -4 4 -14 1
-23 -6 -22 -19 -45 -5 -45 28 0 40 25 60 52 43 24 -15 35 -7 18 14 -16 19 -40
19 -67 0z"/>
<path d="M5820 770 c-38 -38 -17 -110 31 -110 51 0 83 96 40 120 -29 15 -49
12 -71 -10z m65 -19 c9 -29 -12 -71 -35 -71 -16 0 -20 7 -20 33 0 51 41 80 55
38z"/>
<path d="M5933 724 c-7 -50 -6 -64 3 -64 7 0 16 19 19 43 9 56 19 72 40 63 14
-5 16 -14 10 -56 -7 -54 10 -73 20 -22 12 58 21 77 39 80 17 4 18 -1 13 -52
-4 -42 -2 -56 7 -56 9 0 16 19 20 52 9 64 -8 88 -48 70 -15 -6 -28 -7 -31 -2
-3 5 -23 9 -44 8 l-38 0 -10 -64z"/>
<path d="M6146 760 c-18 -90 -19 -103 -5 -98 8 3 17 23 21 46 9 51 15 62 35
62 13 0 15 -10 11 -55 -6 -73 16 -75 28 -2 7 42 13 52 29 52 18 0 20 -6 17
-52 -2 -29 1 -53 6 -53 12 0 22 35 22 83 0 42 -20 58 -51 39 -11 -7 -20 -8
-24 -2 -3 5 -23 8 -45 7 -34 -1 -40 -5 -44 -27z"/>
<path d="M6360 770 c-54 -54 6 -141 66 -95 18 14 17 15 -16 12 -26 -1 -35 2
-38 16 -3 14 4 17 37 17 34 0 41 3 41 19 0 25 -26 51 -51 51 -10 0 -28 -9 -39
-20z m60 -15 c0 -9 -9 -15 -25 -15 -24 0 -32 10 -18 23 12 13 43 7 43 -8z"/>
<path d="M6476 761 c-17 -83 -18 -101 -7 -101 13 0 17 9 26 64 4 26 12 40 26
43 29 8 23 20 -11 20 -23 0 -30 -5 -34 -26z"/>
<path d="M6572 773 c-34 -29 -36 -63 -7 -102 18 -26 22 -37 13 -42 -17 -11 -4
-21 16 -13 9 4 16 15 14 25 -2 10 6 25 17 33 11 8 17 18 13 22 -4 4 -14 1 -23
-6 -22 -19 -45 -5 -45 28 0 40 25 60 52 43 24 -15 35 -7 18 14 -17 20 -43 19
-68 -2z"/>
<path d="M6694 775 c-18 -14 -17 -15 15 -12 20 1 36 -3 38 -10 3 -8 -4 -13
-19 -13 -36 0 -60 -22 -56 -51 3 -21 8 -24 45 -25 38 -1 42 1 47 29 10 51 7
85 -10 91 -24 9 -39 7 -60 -9z m46 -70 c0 -9 -7 -18 -16 -22 -18 -7 -39 11
-30 26 11 17 46 13 46 -4z"/>
<path d="M6806 760 c-18 -90 -19 -103 -5 -98 8 3 17 24 21 48 9 50 20 65 43
57 11 -5 14 -14 10 -34 -15 -71 -15 -73 -1 -73 16 0 34 99 22 119 -4 5 -24 9
-46 8 -34 -1 -40 -5 -44 -27z"/>
<path d="M7025 774 c-20 -21 -15 -36 18 -52 32 -15 36 -42 7 -42 -11 0 -20 5
-20 10 0 6 -7 10 -15 10 -24 0 -18 -19 10 -32 19 -8 31 -8 51 1 32 14 28 41
-9 59 -15 7 -27 17 -27 23 0 16 31 23 40 9 4 -7 13 -11 20 -8 9 3 8 9 -4 21
-22 21 -50 22 -71 1z"/>
</g>
</svg>
