<?xml version="1.0" standalone="no"?>
<!DOCTYPE svg PUBLIC "-//W3C//DTD SVG 20010904//EN"
 "http://www.w3.org/TR/2001/REC-SVG-20010904/DTD/svg10.dtd">
<svg version="1.0" xmlns="http://www.w3.org/2000/svg"
 width="785.000000pt" height="331.000000pt" viewBox="0 0 785.000000 331.000000"
 preserveAspectRatio="xMidYMid meet">

<g transform="translate(0.000000,331.000000) scale(0.100000,-0.100000)"
fill="#4c023e" stroke="none">
<path d="M6265 2328 c-28 -123 -51 -247 -46 -243 4 2 20 50 36 107 16 57 31
106 34 110 3 4 92 -20 196 -52 159 -49 589 -170 741 -209 l41 -11 -43 -177
c-79 -321 -180 -819 -172 -843 2 -8 277 1017 282 1054 1 6 -983 271 -1061 286
-2 0 -5 -10 -8 -22z"/>
<path d="M6230 2328 c0 -4 -68 -239 -150 -524 -83 -285 -147 -521 -143 -524 9
-8 1074 -312 1078 -308 7 8 61 268 55 261 -5 -4 -23 -55 -40 -113 -18 -58 -33
-106 -35 -108 -1 -1 -96 29 -211 67 -227 76 -737 231 -759 231 -8 0 -16 4 -19
8 -3 5 11 67 30 138 84 307 210 861 199 872 -3 3 -5 3 -5 0z"/>
<path d="M5378 2223 c-30 -43 -58 -84 -62 -90 -5 -10 6 -13 47 -13 l54 0 82
90 83 90 -74 0 -74 0 -56 -77z"/>
<path d="M1490 2090 c-108 -19 -215 -98 -267 -197 -59 -110 -65 -223 -20 -343
28 -77 131 -179 208 -208 208 -77 416 2 511 196 30 61 33 74 33 162 0 107 -15
158 -69 234 -85 121 -246 184 -396 156z m190 -122 c151 -64 215 -246 139 -396
-51 -104 -136 -155 -254 -155 -85 0 -127 16 -190 74 -62 57 -87 109 -93 190
-16 222 195 374 398 287z"/>
<path d="M2110 2015 c0 -79 1 -85 21 -85 22 0 21 -17 -8 -72 -13 -27 -12 -29
19 -48 l33 -20 24 52 c20 43 24 68 25 152 l1 101 -57 3 -58 3 0 -86z"/>
<path d="M2693 2085 c-70 -15 -90 -24 -154 -71 -201 -146 -196 -480 9 -628
154 -113 405 -93 540 41 l44 44 -41 30 -40 30 -56 -45 c-129 -106 -305 -98
-419 18 -111 114 -102 307 18 413 57 50 119 73 201 73 83 0 145 -23 205 -77
l50 -45 41 30 41 30 -42 46 c-51 55 -143 103 -225 116 -75 12 -95 12 -172 -5z"/>
<path d="M520 1705 l0 -375 50 0 50 0 2 173 3 172 165 0 165 0 3 -172 2 -173
50 0 50 0 0 375 0 375 -50 0 -50 0 0 -150 0 -150 -170 0 -170 0 0 150 0 150
-50 0 -50 0 0 -375z"/>
<path d="M3391 1818 c-68 -145 -148 -314 -177 -375 l-53 -113 58 0 58 0 57
120 57 121 142 -3 142 -3 57 -117 57 -118 56 0 c31 0 55 4 53 9 -1 4 -79 173
-173 374 -142 305 -173 366 -190 367 -17 0 -42 -44 -144 -262z m192 -146 c-23
-2 -65 -2 -93 0 l-51 3 48 98 47 98 46 -98 46 -98 -43 -3z"/>
<path d="M3980 1706 l0 -376 50 0 50 0 0 165 c0 91 4 165 9 165 5 0 66 -74
136 -165 l128 -165 65 0 64 0 -34 44 c-18 25 -75 99 -126 166 -59 76 -88 122
-80 124 7 3 31 7 53 11 81 14 136 66 155 149 21 96 -24 191 -109 229 -38 17
-72 22 -203 25 l-158 4 0 -376z m328 247 c35 -26 49 -81 32 -123 -19 -45 -61
-62 -167 -68 l-93 -5 0 113 0 113 101 -5 c79 -4 106 -9 127 -25z"/>
<path d="M4580 1706 l0 -376 50 0 50 0 0 166 c0 135 2 165 14 162 7 -2 69 -75
138 -163 l123 -160 68 -3 68 -3 -126 162 c-68 89 -122 165 -119 170 3 5 17 9
32 9 71 1 165 77 178 145 19 105 -20 196 -103 236 -43 21 -65 24 -210 27
l-163 4 0 -376z m327 248 c45 -33 58 -69 41 -111 -23 -62 -52 -75 -165 -77
l-98 -1 -3 94 c-1 52 0 101 3 109 9 24 186 12 222 -14z"/>
<path d="M5180 1705 l0 -375 220 0 220 0 0 50 0 50 -165 0 -165 0 0 125 0 125
165 0 165 0 0 50 0 50 -165 0 -165 0 0 100 0 100 170 0 170 0 0 50 0 50 -225
0 -225 0 0 -375z"/>
<path d="M6784 1902 c-114 -40 -193 -111 -260 -234 l-34 -63 6 45 c8 60 -10
122 -47 165 -35 40 -116 81 -174 90 -29 4 -34 3 -20 -4 15 -7 9 -9 -25 -8
l-45 2 -18 -50 c-12 -36 -16 -72 -14 -130 3 -68 8 -89 37 -143 33 -63 117
-150 178 -185 l31 -17 7 46 c3 25 4 69 1 97 -5 42 -4 48 5 32 7 -11 14 -49 18
-85 l5 -65 19 72 c23 92 19 220 -8 276 -25 50 -68 92 -125 122 -25 13 -42 24
-38 25 13 0 69 -31 105 -58 37 -28 77 -92 87 -138 3 -18 6 -60 7 -94 l1 -62
45 87 c74 143 171 234 297 277 27 10 41 17 30 17 -11 0 -43 -8 -71 -17z"/>
<path d="M6905 1910 c-173 -38 -296 -142 -385 -325 -27 -55 -52 -113 -56 -130
-6 -27 -1 -24 47 30 100 112 196 195 227 195 8 0 -3 -13 -24 -28 -21 -16 -61
-53 -88 -83 -52 -57 -115 -173 -102 -186 13 -13 158 -6 226 11 199 50 351 197
430 415 l29 80 -37 11 c-51 15 -218 21 -267 10z"/>
</g>
</svg>
